;           Gerber:: Drill Report             
;           =====================             
;    Unit                   : inch
;    Format                 : 6.6, Leading Zeros Suppressed
;    Co-ordinate data Mode  : Absolute Data mode
;+----------------------------------------+
;|  D R I L L   T O O L S   T A B L E     |
;+----------------------------------------+
;|    Drill    |    Tool    |    Drill    |
;|    Tool     |    Size    |    Count    |
;+----------------------------------------+
;|          T01|    0.098425|            6|
;|          T02|    0.078740|           14|
;|          T03|    0.157480|            2|
;|          T04|    0.039370|            6|
;|          T05|    0.019685|            6|
;+----------------------------------------+

M48
INCH,LZ,000000.000000
T01C0.098425
T02C0.078740
T03C0.157480
T04C0.039370
T05C0.019685
%
M72
G90
T01
X-000000751472Y000000960787
Y-00000016126
X-000001125488
X-000001499504
X-000002247535
Y000000960787
T02
X-000000377457Y000000586772
Y000000960787
Y000001334803
Y-00000016126
Y000000212756
X-000002621551Y000001334803
Y000000960787
Y000000586772
Y000000212756
Y-00000016126
X-000000751472Y000001708819
X-000001125488
X-00000187352
X-000002247535
T03
X-000000515252Y000001571024
X-000002483756
T04
X-000001626724Y000001973398
X-000001526724
X-000001426724
Y000002073398
X-000001526724
X-000001626724
T05
X-00000173776Y000001176287
X-000001670197Y000001380378
X-000001340122Y000001155291
X-000001143906Y000001359382
X-000001407685
X-000001933976Y000001380378

M30
