G04 ===== Begin FILE IDENTIFICATION =====*
G04 File Format:  Gerber RS274X*
G04 ===== End FILE IDENTIFICATION =====*
%FSLAX66Y66*%
%MOIN*%
%SFA1.0000B1.0000*%
%OFA0.0B0.0*%
%ADD10C,0.000984*%
%LNsilk_screen*%
%IPPOS*%
%LPD*%
G75*
G36*
G01X-1447438Y1440830D02*
G01X-1450716Y1433977D01*
G01X-1458050Y1431564D01*
G01X-1465999Y1435121D01*
G01X-1468988Y1444636D01*
G01Y1447328D01*
G01X-1467594Y1454191D01*
G01X-1463644Y1458737D01*
G01X-1457723Y1460323D01*
G01X-1450572Y1457833D01*
G01X-1447438Y1450942D01*
G01X-1451148D01*
G01X-1453234Y1455801D01*
G01X-1457723Y1457305D01*
G01X-1463269Y1454688D01*
G01X-1465278Y1447242D01*
G01Y1444530D01*
G01X-1463375Y1437276D01*
G01X-1458050Y1434582D01*
G01X-1453330Y1435976D01*
G01X-1451148Y1440830D01*
G01X-1447438D01*
G37*
G36*
G01X-1416273Y1447597D02*
G01X-1432305D01*
G01Y1450692D01*
G01X-1416273D01*
G01Y1447597D01*
G37*
G36*
G01X-1416273Y1439619D02*
G01X-1432305D01*
G01Y1442695D01*
G01X-1416273D01*
G01Y1439619D01*
G37*
G36*
G01X-1389176Y1431949D02*
G01X-1392752D01*
G01Y1455652D01*
G01X-1399922Y1453018D01*
G01Y1456248D01*
G01X-1389733Y1460073D01*
G01X-1389176D01*
G01Y1431949D01*
G37*
G36*
G01X-1377505Y1443406D02*
G01X-1375275Y1434534D01*
G01X-1368643Y1431564D01*
G01X-1361972Y1434602D01*
G01X-1359838Y1443887D01*
G01Y1448500D01*
G01X-1362030Y1457430D01*
G01X-1368681Y1460323D01*
G01Y1457401D01*
G01X-1364663Y1455334D01*
G01X-1363395Y1448750D01*
G01Y1442926D01*
G01X-1364731Y1436505D01*
G01X-1368643Y1434467D01*
G01X-1372632Y1436630D01*
G01X-1373948Y1443329D01*
G01Y1449019D01*
G01X-1372660Y1455344D01*
G01X-1368681Y1457401D01*
G01Y1460323D01*
G01X-1375371Y1457324D01*
G01X-1377505Y1448154D01*
G01Y1443406D01*
G37*
G36*
G01X-1340669Y1452749D02*
G01Y1440580D01*
G01X-1339660Y1435947D01*
G01X-1336440Y1434448D01*
G01X-1331423Y1437370D01*
G01Y1452749D01*
G01X-1327847D01*
G01Y1431949D01*
G01X-1331057D01*
G01X-1331230Y1434160D01*
G01X-1336286Y1431564D01*
G01X-1340669Y1432968D01*
G01Y1423952D01*
G01X-1344226D01*
G01Y1452749D01*
G01X-1340669D01*
G37*
G36*
G01X-1305518Y1444310D02*
G01X-1317264D01*
G01Y1431949D01*
G01X-1320955D01*
G01Y1459938D01*
G01X-1303615D01*
G01Y1456920D01*
G01X-1317264D01*
G01Y1447328D01*
G01X-1305518D01*
G01Y1444310D01*
G37*
G36*
G01X-2061434Y1297003D02*
G01X-2064712Y1290150D01*
G01X-2072046Y1287738D01*
G01X-2079995Y1291294D01*
G01X-2082984Y1300810D01*
G01Y1303501D01*
G01X-2081590Y1310364D01*
G01X-2077640Y1314910D01*
G01X-2071719Y1316496D01*
G01X-2064568Y1314007D01*
G01X-2061434Y1307115D01*
G01X-2065144D01*
G01X-2067230Y1311974D01*
G01X-2071719Y1313478D01*
G01X-2077265Y1310861D01*
G01X-2079274Y1303416D01*
G01Y1300703D01*
G01X-2077371Y1293449D01*
G01X-2072046Y1290756D01*
G01X-2067326Y1292149D01*
G01X-2065144Y1297003D01*
G01X-2061434D01*
G37*
G36*
G01X-2030269Y1303770D02*
G01X-2046301D01*
G01Y1306865D01*
G01X-2030269D01*
G01Y1303770D01*
G37*
G36*
G01X-2030269Y1295792D02*
G01X-2046301D01*
G01Y1298868D01*
G01X-2030269D01*
G01Y1295792D01*
G37*
G36*
G01X-2003172Y1288122D02*
G01X-2006748D01*
G01Y1311825D01*
G01X-2013918Y1309191D01*
G01Y1312421D01*
G01X-2003729Y1316246D01*
G01X-2003172D01*
G01Y1288122D01*
G37*
G36*
G01X-1991501Y1299579D02*
G01X-1989271Y1290708D01*
G01X-1982639Y1287738D01*
G01X-1975968Y1290775D01*
G01X-1973834Y1300060D01*
G01Y1304674D01*
G01X-1976026Y1313603D01*
G01X-1982677Y1316496D01*
G01Y1313574D01*
G01X-1978659Y1311508D01*
G01X-1977391Y1304924D01*
G01Y1299099D01*
G01X-1978727Y1292678D01*
G01X-1982639Y1290640D01*
G01X-1986628Y1292803D01*
G01X-1987945Y1299502D01*
G01Y1305193D01*
G01X-1986657Y1311517D01*
G01X-1982677Y1313574D01*
G01Y1316496D01*
G01X-1989367Y1313497D01*
G01X-1991501Y1304328D01*
G01Y1299579D01*
G37*
G36*
G01X-1968026Y1299579D02*
G01X-1965797Y1290708D01*
G01X-1959164Y1287738D01*
G01X-1952494Y1290775D01*
G01X-1950360Y1300060D01*
G01Y1304674D01*
G01X-1952551Y1313603D01*
G01X-1959203Y1316496D01*
G01Y1313574D01*
G01X-1955185Y1311508D01*
G01X-1953916Y1304924D01*
G01Y1299099D01*
G01X-1955252Y1292678D01*
G01X-1959164Y1290640D01*
G01X-1963153Y1292803D01*
G01X-1964470Y1299502D01*
G01Y1305193D01*
G01X-1963182Y1311517D01*
G01X-1959203Y1313574D01*
G01Y1316496D01*
G01X-1965893Y1313497D01*
G01X-1968026Y1304328D01*
G01Y1299579D01*
G37*
G36*
G01X-1931652Y1308922D02*
G01X-1931537Y1306308D01*
G01X-1925308Y1309307D01*
G01X-1918657Y1301867D01*
G01Y1288122D01*
G01X-1922213D01*
G01Y1301886D01*
G01X-1923242Y1305212D01*
G01X-1926385Y1306288D01*
G01X-1929422Y1305366D01*
G01X-1931460Y1302943D01*
G01Y1288122D01*
G01X-1935016D01*
G01Y1308922D01*
G01X-1931652D01*
G37*
G36*
G01X-1896606Y1300483D02*
G01X-1908352D01*
G01Y1288122D01*
G01X-1912043D01*
G01Y1316112D01*
G01X-1894703D01*
G01Y1313094D01*
G01X-1908352D01*
G01Y1303501D01*
G01X-1896606D01*
G01Y1300483D01*
G37*
G36*
G01X-970151Y484999D02*
G01X-973428Y478146D01*
G01X-980762Y475734D01*
G01X-988711Y479290D01*
G01X-991701Y488806D01*
G01Y491497D01*
G01X-990307Y498360D01*
G01X-986356Y502906D01*
G01X-980436Y504492D01*
G01X-973284Y502003D01*
G01X-970151Y495111D01*
G01X-973861D01*
G01X-975947Y499970D01*
G01X-980436Y501474D01*
G01X-985982Y498857D01*
G01X-987990Y491412D01*
G01Y488699D01*
G01X-986087Y481445D01*
G01X-980762Y478752D01*
G01X-976043Y480145D01*
G01X-973861Y484999D01*
G01X-970151D01*
G37*
G36*
G01X-965935Y486460D02*
G01X-963311Y478675D01*
G01X-956457Y475734D01*
G01X-951488Y477079D01*
G01X-948162Y480838D01*
G01X-946999Y486287D01*
G01Y486537D01*
G01X-949623Y494361D01*
G01X-956496Y497303D01*
G01Y494381D01*
G01X-952180Y492256D01*
G01X-950556Y486710D01*
G01X-952151Y480761D01*
G01X-956457Y478636D01*
G01X-960754Y480732D01*
G01X-962359Y486287D01*
G01X-960744Y492285D01*
G01X-956496Y494381D01*
G01Y497303D01*
G01X-961388Y495976D01*
G01X-964733Y492208D01*
G01X-965935Y486710D01*
G01Y486460D01*
G37*
G36*
G01X-916544Y491766D02*
G01X-932577D01*
G01Y494861D01*
G01X-916544D01*
G01Y491766D01*
G37*
G36*
G01X-916544Y483788D02*
G01X-932577D01*
G01Y486864D01*
G01X-916544D01*
G01Y483788D01*
G37*
G36*
G01X-900655Y496803D02*
G01X-899578Y493093D01*
G01X-896637Y490536D01*
G01X-900069Y487768D01*
G01X-901309Y483673D01*
G01X-898877Y477896D01*
G01X-892408Y475734D01*
G01X-885958Y477887D01*
G01X-883507Y483673D01*
G01X-884786Y487768D01*
G01X-888256Y490517D01*
G01X-885266Y493073D01*
G01X-884161Y496803D01*
G01X-886439Y502416D01*
G01X-892408Y504492D01*
G01Y501570D01*
G01X-889044Y500225D01*
G01X-887717Y496745D01*
G01X-888996Y493294D01*
G01X-892408Y491978D01*
G01X-892446Y491992D01*
G01Y489056D01*
G01X-888554Y487575D01*
G01X-887064Y483750D01*
G01X-888486Y480011D01*
G01X-892408Y478636D01*
G01X-896339Y480001D01*
G01X-897752Y483750D01*
G01X-896301Y487595D01*
G01X-892446Y489056D01*
G01Y491992D01*
G01X-895820Y493294D01*
G01X-897099Y496745D01*
G01X-895801Y500273D01*
G01X-892408Y501570D01*
G01Y504492D01*
G01X-898387Y502416D01*
G01X-900655Y496803D01*
G37*
G36*
G01X-859322Y476118D02*
G01X-877661D01*
G01Y478675D01*
G01X-867972Y489440D01*
G01X-865002Y493410D01*
G01X-864185Y496572D01*
G01X-865512Y500167D01*
G01X-869049Y501570D01*
G01X-873172Y500061D01*
G01X-874643Y495861D01*
G01X-878199D01*
G01X-875710Y502109D01*
G01X-869049Y504492D01*
G01X-862878Y502445D01*
G01X-860610Y496995D01*
G01X-865877Y487152D01*
G01X-873374Y479021D01*
G01X-859322D01*
G01Y476118D01*
G37*
G36*
G01X-844766Y468121D02*
G01X-841210D01*
G01Y478137D01*
G01X-835251Y475734D01*
G01X-829368Y478636D01*
G01X-827196Y486287D01*
G01Y486614D01*
G01X-829378Y494477D01*
G01X-835308Y497303D01*
G01X-836366Y496831D01*
G01Y494284D01*
G01X-832252Y492247D01*
G01X-830752Y486691D01*
G01X-832261Y480665D01*
G01X-836327Y478636D01*
G01X-841210Y481482D01*
G01Y491420D01*
G01X-836366Y494284D01*
G01Y496831D01*
G01X-841345Y494611D01*
G01X-841518Y496918D01*
G01X-844766D01*
G01Y468121D01*
G37*
G36*
G01X-805987Y488479D02*
G01X-817732D01*
G01Y476118D01*
G01X-821423D01*
G01Y504108D01*
G01X-804084D01*
G01Y501090D01*
G01X-817732D01*
G01Y491497D01*
G01X-805987D01*
G01Y488479D01*
G37*
G36*
G01X-2202993Y476940D02*
G01X-2206271Y470087D01*
G01X-2213605Y467675D01*
G01X-2221554Y471231D01*
G01X-2224543Y480747D01*
G01Y483438D01*
G01X-2223149Y490301D01*
G01X-2219199Y494847D01*
G01X-2213278Y496433D01*
G01X-2206127Y493944D01*
G01X-2202993Y487052D01*
G01X-2206704D01*
G01X-2208789Y491911D01*
G01X-2213278Y493415D01*
G01X-2218824Y490798D01*
G01X-2220833Y483353D01*
G01Y480640D01*
G01X-2218930Y473386D01*
G01X-2213605Y470693D01*
G01X-2208885Y472086D01*
G01X-2206704Y476940D01*
G01X-2202993D01*
G37*
G36*
G01X-2193971Y468059D02*
G01X-2197528D01*
G01Y488859D01*
G01X-2193971D01*
G01Y468059D01*
G37*
G36*
G01X-2197816Y494376D02*
G01X-2197287Y495837D01*
G01X-2195721Y496433D01*
G01X-2194144Y495837D01*
G01X-2193606Y494376D01*
G01X-2194144Y492934D01*
G01X-2195721Y492358D01*
G01X-2197287Y492934D01*
G01X-2197816Y494376D01*
G37*
G36*
G01X-2162281Y483707D02*
G01X-2178313D01*
G01Y486802D01*
G01X-2162281D01*
G01Y483707D01*
G37*
G36*
G01X-2162281Y475729D02*
G01X-2178313D01*
G01Y478805D01*
G01X-2162281D01*
G01Y475729D01*
G37*
G36*
G01X-2146391Y488744D02*
G01X-2145315Y485034D01*
G01X-2142373Y482477D01*
G01X-2145805Y479709D01*
G01X-2147045Y475614D01*
G01X-2144613Y469837D01*
G01X-2138144Y467675D01*
G01X-2131695Y469828D01*
G01X-2129244Y475614D01*
G01X-2130522Y479709D01*
G01X-2133992Y482458D01*
G01X-2131003Y485014D01*
G01X-2129897Y488744D01*
G01X-2132175Y494357D01*
G01X-2138144Y496433D01*
G01Y493511D01*
G01X-2134780Y492166D01*
G01X-2133454Y488686D01*
G01X-2134732Y485235D01*
G01X-2138144Y483919D01*
G01X-2138183Y483933D01*
G01Y480997D01*
G01X-2134290Y479516D01*
G01X-2132800Y475691D01*
G01X-2134223Y471952D01*
G01X-2138144Y470577D01*
G01X-2142075Y471942D01*
G01X-2143488Y475691D01*
G01X-2142037Y479536D01*
G01X-2138183Y480997D01*
G01Y483933D01*
G01X-2141556Y485235D01*
G01X-2142835Y488686D01*
G01X-2141537Y492214D01*
G01X-2138144Y493511D01*
G01Y496433D01*
G01X-2144123Y494357D01*
G01X-2146391Y488744D01*
G37*
G36*
G01X-2105058Y468059D02*
G01X-2123397D01*
G01Y470616D01*
G01X-2113709Y481381D01*
G01X-2110739Y485351D01*
G01X-2109922Y488513D01*
G01X-2111248Y492108D01*
G01X-2114785Y493511D01*
G01X-2118909Y492002D01*
G01X-2120379Y487802D01*
G01X-2123936D01*
G01X-2121446Y494049D01*
G01X-2114785Y496433D01*
G01X-2108614Y494386D01*
G01X-2106346Y488936D01*
G01X-2111613Y479093D01*
G01X-2119110Y470962D01*
G01X-2105058D01*
G01Y468059D01*
G37*
G36*
G01X-2090503Y460062D02*
G01X-2086946D01*
G01Y470078D01*
G01X-2080987Y467675D01*
G01X-2075104Y470577D01*
G01X-2072932Y478228D01*
G01Y478555D01*
G01X-2075114Y486418D01*
G01X-2081045Y489244D01*
G01X-2082102Y488772D01*
G01Y486225D01*
G01X-2077988Y484188D01*
G01X-2076489Y478632D01*
G01X-2077998Y472605D01*
G01X-2082063Y470577D01*
G01X-2086946Y473422D01*
G01Y483361D01*
G01X-2082102Y486225D01*
G01Y488772D01*
G01X-2087081Y486552D01*
G01X-2087254Y488859D01*
G01X-2090503D01*
G01Y460062D01*
G37*
G36*
G01X-2051723Y480420D02*
G01X-2063469D01*
G01Y468059D01*
G01X-2067160D01*
G01Y496049D01*
G01X-2049820D01*
G01Y493031D01*
G01X-2063469D01*
G01Y483438D01*
G01X-2051723D01*
G01Y480420D01*
G37*
G36*
G01X-2046312Y1982426D02*
G01X-2038315Y2005513D01*
G01X-2034278D01*
G01X-2044659Y1977524D01*
G01X-2047927D01*
G01X-2058289Y2005513D01*
G01X-2054271D01*
G01X-2046312Y1982426D01*
G37*
G36*
G01X-2032080Y1988097D02*
G01X-2029821Y1980080D01*
G01X-2023910Y1977139D01*
G01X-2018085Y1979600D01*
G01Y1977812D01*
G01X-2019536Y1973698D01*
G01X-2023583Y1972237D01*
G01X-2029177Y1975063D01*
G01X-2031022Y1972929D01*
G01X-2027735Y1970296D01*
G01X-2023333Y1969334D01*
G01X-2016903Y1971660D01*
G01X-2014509Y1978023D01*
G01Y1998324D01*
G01X-2017758D01*
G01X-2017931Y1996017D01*
G01X-2022987Y1998307D01*
G01Y1995690D01*
G01X-2018085Y1992710D01*
G01Y1983214D01*
G01X-2023025Y1980157D01*
G01X-2027062Y1982166D01*
G01X-2028504Y1987693D01*
G01X-2027043Y1993672D01*
G01X-2022987Y1995690D01*
G01Y1998307D01*
G01X-2023871Y1998708D01*
G01X-2029831Y1995834D01*
G01X-2032080Y1988097D01*
G37*
G36*
G01X-2009310Y1992557D02*
G01X-2005735D01*
G01X-2004447Y1994883D01*
G01X-2001256Y1995844D01*
G01X-1997968Y1994738D01*
G01X-1996854Y1991768D01*
G01Y1990134D01*
G01X-1999641D01*
G01Y1987616D01*
G01X-1996854D01*
G01Y1983348D01*
G01X-1999026Y1981099D01*
G01X-2002198Y1980234D01*
G01X-2005062Y1981176D01*
G01X-2006177Y1983791D01*
G01X-1999641Y1987616D01*
G01Y1990134D01*
G01X-2000314D01*
G01X-2007263Y1988337D01*
G01X-2009733Y1983291D01*
G01X-2007763Y1978879D01*
G01X-2002717Y1977139D01*
G01X-1996796Y1979715D01*
G01X-1996296Y1977524D01*
G01X-1992567D01*
G01Y1977831D01*
G01X-1993297Y1982387D01*
G01Y1991961D01*
G01X-1995412Y1996911D01*
G01X-2001044Y1998708D01*
G01X-2005206Y1997862D01*
G01X-2008205Y1995565D01*
G01X-2009310Y1992557D01*
G37*
G36*
G01X-1982905Y2003360D02*
G01Y1998324D01*
G01X-1979022D01*
G01Y1995575D01*
G01X-1982905D01*
G01Y1982659D01*
G01X-1982386Y1980783D01*
G01X-1980617Y1980157D01*
G01X-1978926Y1980388D01*
G01Y1977521D01*
G01X-1981655Y1977139D01*
G01X-1985250Y1978581D01*
G01X-1986461Y1982676D01*
G01Y1995575D01*
G01X-1990248D01*
G01Y1998324D01*
G01X-1986461D01*
G01Y2003360D01*
G01X-1982905D01*
G37*
G36*
G01X-1975764Y1987347D02*
G01X-1973111Y1979917D01*
G01X-1966229Y1977139D01*
G01X-1958386Y1981157D01*
G01X-1960558Y1982849D01*
G01X-1962846Y1980811D01*
G01X-1966037Y1980042D01*
G01X-1970411Y1981935D01*
G01X-1972208Y1986905D01*
G01X-1958117D01*
G01Y1988385D01*
G01X-1960366Y1996036D01*
G01X-1966672Y1998708D01*
G01Y1995786D01*
G01X-1963134Y1994296D01*
G01X-1961673Y1990096D01*
G01Y1989827D01*
G01X-1972093D01*
G01X-1970286Y1994219D01*
G01X-1966672Y1995786D01*
G01Y1998708D01*
G01X-1971276Y1997334D01*
G01X-1974582Y1993527D01*
G01X-1975764Y1988001D01*
G01Y1987347D01*
G37*
G36*
G01X-1927987Y1993172D02*
G01X-1944020D01*
G01Y1996267D01*
G01X-1927987D01*
G01Y1993172D01*
G37*
G36*
G01X-1927987Y1985194D02*
G01X-1944020D01*
G01Y1988270D01*
G01X-1927987D01*
G01Y1985194D01*
G37*
G36*
G01X-1905501Y1987962D02*
G01X-1914882D01*
G01Y1990865D01*
G01X-1905501D01*
G01Y1987962D01*
G37*
G36*
G01X-1883388Y1977524D02*
G01X-1901727D01*
G01Y1980080D01*
G01X-1892038Y1990846D01*
G01X-1889068Y1994815D01*
G01X-1888251Y1997978D01*
G01X-1889578Y2001572D01*
G01X-1893115Y2002976D01*
G01X-1897238Y2001467D01*
G01X-1898709Y1997266D01*
G01X-1902265D01*
G01X-1899776Y2003514D01*
G01X-1893115Y2005898D01*
G01X-1886944Y2003850D01*
G01X-1884676Y1998401D01*
G01X-1889943Y1988558D01*
G01X-1897440Y1980426D01*
G01X-1883388D01*
G01Y1977524D01*
G37*
G36*
G01X-1878500Y1979388D02*
G01X-1877952Y1980926D01*
G01X-1876308Y1981541D01*
G01X-1874645Y1980926D01*
G01X-1874078Y1979388D01*
G01X-1874645Y1977908D01*
G01X-1876308Y1977312D01*
G01X-1877952Y1977908D01*
G01X-1878500Y1979388D01*
G37*
G36*
G01X-1867413Y1998208D02*
G01X-1866336Y1994498D01*
G01X-1863395Y1991941D01*
G01X-1866827Y1989173D01*
G01X-1868066Y1985079D01*
G01X-1865635Y1979302D01*
G01X-1859166Y1977139D01*
G01X-1852716Y1979292D01*
G01X-1850265Y1985079D01*
G01X-1851544Y1989173D01*
G01X-1855014Y1991922D01*
G01X-1852024Y1994479D01*
G01X-1850919Y1998208D01*
G01X-1853197Y2003822D01*
G01X-1859166Y2005898D01*
G01Y2002976D01*
G01X-1855802Y2001630D01*
G01X-1854475Y1998151D01*
G01X-1855754Y1994700D01*
G01X-1859166Y1993383D01*
G01X-1859204Y1993398D01*
G01Y1990461D01*
G01X-1855312Y1988981D01*
G01X-1853822Y1985155D01*
G01X-1855244Y1981416D01*
G01X-1859166Y1980042D01*
G01X-1863097Y1981407D01*
G01X-1864510Y1985155D01*
G01X-1863059Y1989000D01*
G01X-1859204Y1990461D01*
G01Y1993398D01*
G01X-1862578Y1994700D01*
G01X-1863856Y1998151D01*
G01X-1862559Y2001678D01*
G01X-1859166Y2002976D01*
G01Y2005898D01*
G01X-1865144Y2003822D01*
G01X-1867413Y1998208D01*
G37*
G36*
G01X-1842785Y1991557D02*
G01X-1841362Y2005513D01*
G01X-1827022D01*
G01Y2002226D01*
G01X-1838344D01*
G01X-1839190Y1994594D01*
G01X-1834519Y1995805D01*
G01X-1828444Y1993277D01*
G01X-1826195Y1986443D01*
G01X-1828531Y1979629D01*
G01X-1835057Y1977139D01*
G01X-1841113Y1979196D01*
G01X-1843785Y1984886D01*
G01X-1840420D01*
G01X-1838710Y1981263D01*
G01X-1835057Y1980042D01*
G01X-1831164Y1981734D01*
G01X-1829751Y1986405D01*
G01X-1831280Y1990913D01*
G01X-1835345Y1992614D01*
G01X-1838998Y1991595D01*
G01X-1839940Y1990826D01*
G01X-1842785Y1991557D01*
G37*
G36*
G01X-1801012Y1982426D02*
G01X-1793015Y2005513D01*
G01X-1788978D01*
G01X-1799359Y1977524D01*
G01X-1802627D01*
G01X-1812988Y2005513D01*
G01X-1808971D01*
G01X-1801012Y1982426D01*
G37*
G36*
G01X-2046312Y1935182D02*
G01X-2038315Y1958269D01*
G01X-2034278D01*
G01X-2044659Y1930280D01*
G01X-2047927D01*
G01X-2058289Y1958269D01*
G01X-2054271D01*
G01X-2046312Y1935182D01*
G37*
G36*
G01X-2032099Y1940583D02*
G01X-2029821Y1932855D01*
G01X-2023929Y1929895D01*
G01X-2017989Y1932509D01*
G01X-2017816Y1930280D01*
G01X-2014548D01*
G01Y1959807D01*
G01X-2018104D01*
G01Y1948965D01*
G01X-2023006Y1951082D01*
G01Y1948446D01*
G01X-2018104Y1945505D01*
G01Y1935951D01*
G01X-2023045Y1932913D01*
G01X-2027082Y1934912D01*
G01X-2028543Y1940449D01*
G01X-2027082Y1946427D01*
G01X-2023006Y1948446D01*
G01Y1951082D01*
G01X-2023890Y1951464D01*
G01X-2029831Y1948552D01*
G01X-2032099Y1940853D01*
G01Y1940583D01*
G37*
G36*
G01X-1998985Y1947888D02*
G01X-2000734Y1948023D01*
G01X-2005483Y1945043D01*
G01Y1930280D01*
G01X-2009039D01*
G01Y1951080D01*
G01X-2005579D01*
G01X-2005521Y1948677D01*
G01X-2000561Y1951464D01*
G01X-1998985Y1951195D01*
G01Y1947888D01*
G37*
G36*
G01X-1996663Y1945312D02*
G01X-1993087D01*
G01X-1991799Y1947639D01*
G01X-1988608Y1948600D01*
G01X-1985321Y1947494D01*
G01X-1984206Y1944524D01*
G01Y1942890D01*
G01X-1986993D01*
G01Y1940372D01*
G01X-1984206D01*
G01Y1936104D01*
G01X-1986378Y1933855D01*
G01X-1989550Y1932990D01*
G01X-1992414Y1933932D01*
G01X-1993529Y1936546D01*
G01X-1986993Y1940372D01*
G01Y1942890D01*
G01X-1987666D01*
G01X-1994615Y1941093D01*
G01X-1997086Y1936047D01*
G01X-1995115Y1931635D01*
G01X-1990069Y1929895D01*
G01X-1984148Y1932471D01*
G01X-1983648Y1930280D01*
G01X-1979919D01*
G01Y1930587D01*
G01X-1980649Y1935143D01*
G01Y1944717D01*
G01X-1982764Y1949667D01*
G01X-1988397Y1951464D01*
G01X-1992559Y1950618D01*
G01X-1995557Y1948321D01*
G01X-1996663Y1945312D01*
G37*
G36*
G01X-1971218Y1930280D02*
G01X-1974775D01*
G01Y1951080D01*
G01X-1971218D01*
G01Y1930280D01*
G37*
G36*
G01X-1975063Y1956597D02*
G01X-1974534Y1958058D01*
G01X-1972968Y1958654D01*
G01X-1971391Y1958058D01*
G01X-1970853Y1956597D01*
G01X-1971391Y1955155D01*
G01X-1972968Y1954578D01*
G01X-1974534Y1955155D01*
G01X-1975063Y1956597D01*
G37*
G36*
G01X-1962171Y1951080D02*
G01X-1962056Y1948465D01*
G01X-1955827Y1951464D01*
G01X-1949176Y1944024D01*
G01Y1930280D01*
G01X-1952732D01*
G01Y1944044D01*
G01X-1953761Y1947369D01*
G01X-1956904Y1948446D01*
G01X-1959941Y1947523D01*
G01X-1961979Y1945101D01*
G01Y1930280D01*
G01X-1965535D01*
G01Y1951080D01*
G01X-1962171D01*
G37*
G36*
G01X-1917800Y1945928D02*
G01X-1933833D01*
G01Y1949023D01*
G01X-1917800D01*
G01Y1945928D01*
G37*
G36*
G01X-1917800Y1937950D02*
G01X-1933833D01*
G01Y1941026D01*
G01X-1917800D01*
G01Y1937950D01*
G37*
G36*
G01X-1884052Y1930280D02*
G01X-1902391D01*
G01Y1932836D01*
G01X-1892703Y1943602D01*
G01X-1889733Y1947571D01*
G01X-1888916Y1950734D01*
G01X-1890242Y1954328D01*
G01X-1893779Y1955732D01*
G01X-1897903Y1954223D01*
G01X-1899373Y1950022D01*
G01X-1902930D01*
G01X-1900440Y1956270D01*
G01X-1893779Y1958654D01*
G01X-1887608Y1956606D01*
G01X-1885340Y1951156D01*
G01X-1890607Y1941314D01*
G01X-1898105Y1933182D01*
G01X-1884052D01*
G01Y1930280D01*
G37*
G36*
G01X-1878436Y1950964D02*
G01X-1877360Y1947254D01*
G01X-1874419Y1944697D01*
G01X-1877850Y1941929D01*
G01X-1879090Y1937834D01*
G01X-1876658Y1932058D01*
G01X-1870189Y1929895D01*
G01X-1863740Y1932048D01*
G01X-1861289Y1937834D01*
G01X-1862567Y1941929D01*
G01X-1866037Y1944678D01*
G01X-1863048Y1947235D01*
G01X-1861943Y1950964D01*
G01X-1864221Y1956578D01*
G01X-1870189Y1958654D01*
G01Y1955732D01*
G01X-1866825Y1954386D01*
G01X-1865499Y1950907D01*
G01X-1866777Y1947456D01*
G01X-1870189Y1946139D01*
G01X-1870228Y1946154D01*
G01Y1943217D01*
G01X-1866335Y1941737D01*
G01X-1864845Y1937911D01*
G01X-1866268Y1934172D01*
G01X-1870189Y1932798D01*
G01X-1874121Y1934163D01*
G01X-1875534Y1937911D01*
G01X-1874082Y1941756D01*
G01X-1870228Y1943217D01*
G01Y1946154D01*
G01X-1873602Y1947456D01*
G01X-1874880Y1950907D01*
G01X-1873582Y1954434D01*
G01X-1870189Y1955732D01*
G01Y1958654D01*
G01X-1876168Y1956578D01*
G01X-1878436Y1950964D01*
G37*
G36*
G01X-1845254Y1935182D02*
G01X-1837257Y1958269D01*
G01X-1833220D01*
G01X-1843601Y1930280D01*
G01X-1846869D01*
G01X-1857230Y1958269D01*
G01X-1853213D01*
G01X-1845254Y1935182D01*
G37*
G36*
G01X-1779938Y254342D02*
G01X-1783216Y247489D01*
G01X-1790550Y245076D01*
G01X-1798499Y248633D01*
G01X-1801488Y258148D01*
G01Y260840D01*
G01X-1800094Y267702D01*
G01X-1796144Y272249D01*
G01X-1790223Y273835D01*
G01X-1783072Y271345D01*
G01X-1779938Y264454D01*
G01X-1783648D01*
G01X-1785734Y269313D01*
G01X-1790223Y270817D01*
G01X-1795769Y268200D01*
G01X-1797778Y260754D01*
G01Y258041D01*
G01X-1795875Y250788D01*
G01X-1790550Y248094D01*
G01X-1785830Y249488D01*
G01X-1783648Y254342D01*
G01X-1779938D01*
G37*
G36*
G01X-1762669Y250978D02*
G01X-1763755Y253217D01*
G01X-1767542Y254592D01*
G01X-1771829Y255976D01*
G01X-1774175Y257898D01*
G01X-1774934Y260551D01*
G01X-1772771Y264877D01*
G01X-1767244Y266645D01*
G01X-1761506Y264819D01*
G01X-1759305Y260148D01*
G01X-1762881D01*
G01X-1764121Y262666D01*
G01X-1767244Y263723D01*
G01X-1770282Y262877D01*
G01X-1771378Y260667D01*
G01X-1770359Y258725D01*
G01X-1766677Y257475D01*
G01X-1762362Y256053D01*
G01X-1759911Y254063D01*
G01X-1759113Y251228D01*
G01X-1761343Y246758D01*
G01X-1767129Y245076D01*
G01X-1771551Y245960D01*
G01X-1774559Y248431D01*
G01X-1775645Y251862D01*
G01X-1772089D01*
G01X-1770657Y249027D01*
G01X-1767129Y247979D01*
G01X-1763890Y248796D01*
G01X-1762669Y250978D01*
G37*
G36*
G01X-1728473Y261109D02*
G01X-1744505D01*
G01Y264204D01*
G01X-1728473D01*
G01Y261109D01*
G37*
G36*
G01X-1728473Y253131D02*
G01X-1744505D01*
G01Y256207D01*
G01X-1728473D01*
G01Y253131D01*
G37*
G36*
G01X-1701376Y245461D02*
G01X-1704951D01*
G01Y269163D01*
G01X-1712122Y266530D01*
G01Y269759D01*
G01X-1701933Y273585D01*
G01X-1701376D01*
G01Y245461D01*
G37*
G36*
G01X-1689836Y247325D02*
G01X-1689288Y248863D01*
G01X-1687645Y249478D01*
G01X-1685982Y248863D01*
G01X-1685415Y247325D01*
G01X-1685982Y245845D01*
G01X-1687645Y245249D01*
G01X-1689288Y245845D01*
G01X-1689836Y247325D01*
G37*
G36*
G01X-1677596Y259494D02*
G01X-1676173Y273450D01*
G01X-1661833D01*
G01Y270163D01*
G01X-1673155D01*
G01X-1674001Y262531D01*
G01X-1669330Y263742D01*
G01X-1663255Y261214D01*
G01X-1661006Y254380D01*
G01X-1663342Y247566D01*
G01X-1669868Y245076D01*
G01X-1675924Y247133D01*
G01X-1678596Y252823D01*
G01X-1675232D01*
G01X-1673521Y249200D01*
G01X-1669868Y247979D01*
G01X-1665975Y249671D01*
G01X-1664562Y254342D01*
G01X-1666091Y258850D01*
G01X-1670156Y260551D01*
G01X-1673809Y259532D01*
G01X-1674751Y258763D01*
G01X-1677596Y259494D01*
G37*
G36*
G01X-1646335Y237464D02*
G01X-1642779D01*
G01Y247479D01*
G01X-1636820Y245076D01*
G01X-1630937Y247979D01*
G01X-1628765Y255630D01*
G01Y255957D01*
G01X-1630947Y263819D01*
G01X-1636877Y266645D01*
G01X-1637935Y266174D01*
G01Y263627D01*
G01X-1633821Y261589D01*
G01X-1632321Y256034D01*
G01X-1633830Y250007D01*
G01X-1637896Y247979D01*
G01X-1642779Y250824D01*
G01Y260763D01*
G01X-1637935Y263627D01*
G01Y266174D01*
G01X-1642913Y263954D01*
G01X-1643086Y266261D01*
G01X-1646335D01*
G01Y237464D01*
G37*
G36*
G01X-1607556Y257821D02*
G01X-1619301D01*
G01Y245461D01*
G01X-1622992D01*
G01Y273450D01*
G01X-1605653D01*
G01Y270432D01*
G01X-1619301D01*
G01Y260840D01*
G01X-1607556D01*
G01Y257821D01*
G37*
G36*
G01X-1786801Y210327D02*
G01X-1782870Y213230D01*
G01X-1781457Y217786D01*
G01X-1784004Y224053D01*
G01X-1791280Y226206D01*
G01X-1796836D01*
G01Y223188D01*
G01X-1791184D01*
G01X-1786715Y221782D01*
G01X-1785167Y217796D01*
G01X-1786791Y213982D01*
G01X-1791165Y212557D01*
G01X-1796836D01*
G01Y223188D01*
G01Y226206D01*
G01X-1800546D01*
G01Y198217D01*
G01X-1796836D01*
G01Y209539D01*
G01X-1790261D01*
G01X-1784187Y198217D01*
G01X-1780227D01*
G01Y198447D01*
G01X-1786801Y210327D01*
G37*
G36*
G01X-1764047Y203734D02*
G01X-1765133Y205973D01*
G01X-1768920Y207348D01*
G01X-1773207Y208732D01*
G01X-1775553Y210654D01*
G01X-1776312Y213307D01*
G01X-1774149Y217632D01*
G01X-1768622Y219401D01*
G01X-1762884Y217575D01*
G01X-1760683Y212903D01*
G01X-1764259D01*
G01X-1765499Y215422D01*
G01X-1768622Y216479D01*
G01X-1771660Y215633D01*
G01X-1772756Y213422D01*
G01X-1771737Y211481D01*
G01X-1768055Y210231D01*
G01X-1763740Y208809D01*
G01X-1761289Y206819D01*
G01X-1760491Y203984D01*
G01X-1762721Y199514D01*
G01X-1768507Y197832D01*
G01X-1772929Y198716D01*
G01X-1775937Y201187D01*
G01X-1777023Y204618D01*
G01X-1773467D01*
G01X-1772035Y201783D01*
G01X-1768507Y200735D01*
G01X-1765268Y201552D01*
G01X-1764047Y203734D01*
G37*
G36*
G01X-1729851Y213865D02*
G01X-1745883D01*
G01Y216960D01*
G01X-1729851D01*
G01Y213865D01*
G37*
G36*
G01X-1729851Y205887D02*
G01X-1745883D01*
G01Y208963D01*
G01X-1729851D01*
G01Y205887D01*
G37*
G36*
G01X-1712808Y212250D02*
G01X-1711385Y226206D01*
G01X-1697044D01*
G01Y222919D01*
G01X-1708367D01*
G01X-1709213Y215287D01*
G01X-1704541Y216498D01*
G01X-1698467Y213970D01*
G01X-1696218Y207136D01*
G01X-1698553Y200322D01*
G01X-1705080Y197832D01*
G01X-1711135Y199889D01*
G01X-1713807Y205579D01*
G01X-1710443D01*
G01X-1708732Y201956D01*
G01X-1705080Y200735D01*
G01X-1701187Y202427D01*
G01X-1699774Y207098D01*
G01X-1701302Y211606D01*
G01X-1705368Y213307D01*
G01X-1709021Y212288D01*
G01X-1709963Y211519D01*
G01X-1712808Y212250D01*
G37*
G36*
G01X-1691214Y200081D02*
G01X-1690666Y201619D01*
G01X-1689023Y202234D01*
G01X-1687360Y201619D01*
G01X-1686793Y200081D01*
G01X-1687360Y198601D01*
G01X-1689023Y198005D01*
G01X-1690666Y198601D01*
G01X-1691214Y200081D01*
G37*
G36*
G01X-1676763Y214038D02*
G01X-1673918Y220747D01*
G01X-1667305Y223207D01*
G01X-1666652D01*
G01Y226225D01*
G01X-1667286D01*
G01X-1677100Y222044D01*
G01X-1680397Y210231D01*
G01Y208866D01*
G01X-1677897Y200917D01*
G01X-1671381Y197832D01*
G01X-1665066Y200427D01*
G01X-1662711Y207348D01*
G01X-1664893Y213999D01*
G01X-1670727Y216575D01*
G01X-1671323Y216325D01*
G01Y213615D01*
G01X-1667622Y211837D01*
G01X-1666229Y207175D01*
G01X-1667603Y202542D01*
G01X-1671381Y200773D01*
G01X-1675264Y202888D01*
G01X-1676821Y208463D01*
G01Y209770D01*
G01X-1674687Y212519D01*
G01X-1671323Y213615D01*
G01Y216325D01*
G01X-1676763Y214038D01*
G37*
G36*
G01X-1641908Y207848D02*
G01X-1644138Y205522D01*
G01Y198217D01*
G01X-1647694D01*
G01Y227744D01*
G01X-1644138D01*
G01Y209885D01*
G01X-1642234Y212173D01*
G01X-1635756Y219017D01*
G01X-1631431D01*
G01X-1639524Y210327D01*
G01X-1630489Y198217D01*
G01X-1634660D01*
G01X-1641908Y207848D01*
G37*
G36*
G01X-1615592Y201331D02*
G01X-1611459Y204582D01*
G01X-1609921Y211817D01*
G01Y214395D01*
G01X-1611786Y221206D01*
G01X-1616899Y223573D01*
G01X-1621993Y221167D01*
G01X-1623839Y214356D01*
G01Y212182D01*
G01X-1622330Y204717D01*
G01X-1618033Y201331D01*
G01Y198217D01*
G01X-1627491D01*
G01Y201235D01*
G01X-1623243D01*
G01X-1626434Y206146D01*
G01X-1627588Y212211D01*
G01Y214345D01*
G01X-1626232Y220727D01*
G01X-1622436Y225062D01*
G01X-1616899Y226591D01*
G01X-1611392Y225091D01*
G01X-1607595Y220862D01*
G01X-1606172Y214672D01*
G01Y212173D01*
G01X-1607326Y206146D01*
G01X-1610517Y201235D01*
G01X-1606288D01*
G01Y198217D01*
G01X-1615592D01*
G01Y201331D01*
G37*
G36*
G01X-1733210Y1098677D02*
G01X-1736488Y1091823D01*
G01X-1743821Y1089411D01*
G01X-1751770Y1092967D01*
G01X-1754760Y1102483D01*
G01Y1105174D01*
G01X-1753366Y1112037D01*
G01X-1749415Y1116583D01*
G01X-1743495Y1118169D01*
G01X-1736343Y1115680D01*
G01X-1733210Y1108788D01*
G01X-1736920D01*
G01X-1739006Y1113647D01*
G01X-1743495Y1115151D01*
G01X-1749041Y1112535D01*
G01X-1751049Y1105089D01*
G01Y1102376D01*
G01X-1749146Y1095122D01*
G01X-1743821Y1092429D01*
G01X-1739102Y1093823D01*
G01X-1736920Y1098677D01*
G01X-1733210D01*
G37*
G36*
G01X-1702044Y1105443D02*
G01X-1718077D01*
G01Y1108538D01*
G01X-1702044D01*
G01Y1105443D01*
G37*
G36*
G01X-1702044Y1097466D02*
G01X-1718077D01*
G01Y1100541D01*
G01X-1702044D01*
G01Y1097466D01*
G37*
G36*
G01X-1674948Y1089795D02*
G01X-1678523D01*
G01Y1113498D01*
G01X-1685694Y1110864D01*
G01Y1114094D01*
G01X-1675505Y1117920D01*
G01X-1674948D01*
G01Y1089795D01*
G37*
G36*
G01X-1663276Y1101253D02*
G01X-1661047Y1092381D01*
G01X-1654414Y1089411D01*
G01X-1647744Y1092448D01*
G01X-1645610Y1101733D01*
G01Y1106347D01*
G01X-1647801Y1115276D01*
G01X-1654453Y1118169D01*
G01Y1115247D01*
G01X-1650435Y1113181D01*
G01X-1649166Y1106597D01*
G01Y1100772D01*
G01X-1650502Y1094351D01*
G01X-1654414Y1092314D01*
G01X-1658403Y1094476D01*
G01X-1659720Y1101176D01*
G01Y1106866D01*
G01X-1658432Y1113190D01*
G01X-1654453Y1115247D01*
G01Y1118169D01*
G01X-1661143Y1115171D01*
G01X-1663276Y1106001D01*
G01Y1101253D01*
G37*
G36*
G01X-1630266Y1081798D02*
G01X-1626710D01*
G01Y1091814D01*
G01X-1620751Y1089411D01*
G01X-1614868Y1092314D01*
G01X-1612696Y1099965D01*
G01Y1100291D01*
G01X-1614878Y1108154D01*
G01X-1620808Y1110980D01*
G01X-1621866Y1110508D01*
G01Y1107962D01*
G01X-1617752Y1105924D01*
G01X-1616252Y1100368D01*
G01X-1617761Y1094342D01*
G01X-1621827Y1092314D01*
G01X-1626710Y1095159D01*
G01Y1105097D01*
G01X-1621866Y1107962D01*
G01Y1110508D01*
G01X-1626845Y1108288D01*
G01X-1627018Y1110595D01*
G01X-1630266D01*
G01Y1081798D01*
G37*
G36*
G01X-1591487Y1102156D02*
G01X-1603232D01*
G01Y1089795D01*
G01X-1606923D01*
G01Y1117785D01*
G01X-1589584D01*
G01Y1114767D01*
G01X-1603232D01*
G01Y1105174D01*
G01X-1591487D01*
G01Y1102156D01*
G37*
G36*
G01X-1497993Y1082078D02*
G01X-1501271Y1075225D01*
G01X-1508605Y1072812D01*
G01X-1516554Y1076369D01*
G01X-1519543Y1085884D01*
G01Y1088576D01*
G01X-1518149Y1095439D01*
G01X-1514199Y1099985D01*
G01X-1508278Y1101571D01*
G01X-1501127Y1099082D01*
G01X-1497993Y1092190D01*
G01X-1501704D01*
G01X-1503789Y1097049D01*
G01X-1508278Y1098553D01*
G01X-1513824Y1095936D01*
G01X-1515833Y1088490D01*
G01Y1085778D01*
G01X-1513930Y1078524D01*
G01X-1508605Y1075830D01*
G01X-1503885Y1077224D01*
G01X-1501704Y1082078D01*
G01X-1497993D01*
G37*
G36*
G01X-1466828Y1088845D02*
G01X-1482860D01*
G01Y1091940D01*
G01X-1466828D01*
G01Y1088845D01*
G37*
G36*
G01X-1466828Y1080867D02*
G01X-1482860D01*
G01Y1083943D01*
G01X-1466828D01*
G01Y1080867D01*
G37*
G36*
G01X-1439731Y1073197D02*
G01X-1443307D01*
G01Y1096900D01*
G01X-1450477Y1094266D01*
G01Y1097496D01*
G01X-1440289Y1101321D01*
G01X-1439731D01*
G01Y1073197D01*
G37*
G36*
G01X-1428060Y1084654D02*
G01X-1425830Y1075782D01*
G01X-1419198Y1072812D01*
G01X-1412527Y1075850D01*
G01X-1410393Y1085135D01*
G01Y1089748D01*
G01X-1412585Y1098678D01*
G01X-1419236Y1101571D01*
G01Y1098649D01*
G01X-1415219Y1096582D01*
G01X-1413950Y1089998D01*
G01Y1084174D01*
G01X-1415286Y1077753D01*
G01X-1419198Y1075715D01*
G01X-1423187Y1077878D01*
G01X-1424504Y1084577D01*
G01Y1090267D01*
G01X-1423216Y1096592D01*
G01X-1419236Y1098649D01*
G01Y1101571D01*
G01X-1425926Y1098572D01*
G01X-1428060Y1089402D01*
G01Y1084654D01*
G37*
G36*
G01X-1395050Y1065200D02*
G01X-1391493D01*
G01Y1075215D01*
G01X-1385534Y1072812D01*
G01X-1379652Y1075715D01*
G01X-1377479Y1083366D01*
G01Y1083693D01*
G01X-1379661Y1091555D01*
G01X-1385592Y1094381D01*
G01X-1386649Y1093910D01*
G01Y1091363D01*
G01X-1382535Y1089326D01*
G01X-1381036Y1083770D01*
G01X-1382545Y1077743D01*
G01X-1386611Y1075715D01*
G01X-1391493Y1078560D01*
G01Y1088499D01*
G01X-1386649Y1091363D01*
G01Y1093910D01*
G01X-1391628Y1091690D01*
G01X-1391801Y1093997D01*
G01X-1395050D01*
G01Y1065200D01*
G37*
G36*
G01X-1356270Y1085558D02*
G01X-1368016D01*
G01Y1073197D01*
G01X-1371707D01*
G01Y1101187D01*
G01X-1354367D01*
G01Y1098168D01*
G01X-1368016D01*
G01Y1088576D01*
G01X-1356270D01*
G01Y1085558D01*
G37*
G36*
G01X-1145009Y1285929D02*
G01X-1148287Y1279075D01*
G01X-1155621Y1276663D01*
G01X-1163570Y1280219D01*
G01X-1166559Y1289735D01*
G01Y1292426D01*
G01X-1165165Y1299289D01*
G01X-1161215Y1303835D01*
G01X-1155294Y1305421D01*
G01X-1148143Y1302932D01*
G01X-1145009Y1296040D01*
G01X-1148719D01*
G01X-1150805Y1300899D01*
G01X-1155294Y1302403D01*
G01X-1160840Y1299787D01*
G01X-1162849Y1292341D01*
G01Y1289628D01*
G01X-1160946Y1282374D01*
G01X-1155621Y1279681D01*
G01X-1150901Y1281075D01*
G01X-1148719Y1285929D01*
G01X-1145009D01*
G37*
G36*
G01X-1113844Y1292695D02*
G01X-1129876D01*
G01Y1295790D01*
G01X-1113844D01*
G01Y1292695D01*
G37*
G36*
G01X-1113844Y1284717D02*
G01X-1129876D01*
G01Y1287793D01*
G01X-1113844D01*
G01Y1284717D01*
G37*
G36*
G01X-1086747Y1277047D02*
G01X-1090322D01*
G01Y1300750D01*
G01X-1097493Y1298116D01*
G01Y1301346D01*
G01X-1087304Y1305171D01*
G01X-1086747D01*
G01Y1277047D01*
G37*
G36*
G01X-1075076Y1288505D02*
G01X-1072846Y1279633D01*
G01X-1066214Y1276663D01*
G01X-1059543Y1279700D01*
G01X-1057409Y1288985D01*
G01Y1293599D01*
G01X-1059601Y1302528D01*
G01X-1066252Y1305421D01*
G01Y1302499D01*
G01X-1062234Y1300433D01*
G01X-1060966Y1293849D01*
G01Y1288024D01*
G01X-1062302Y1281603D01*
G01X-1066214Y1279566D01*
G01X-1070202Y1281728D01*
G01X-1071519Y1288428D01*
G01Y1294118D01*
G01X-1070231Y1300442D01*
G01X-1066252Y1302499D01*
G01Y1305421D01*
G01X-1072942Y1302422D01*
G01X-1075076Y1293253D01*
G01Y1288505D01*
G37*
G36*
G01X-1051601Y1288505D02*
G01X-1049371Y1279633D01*
G01X-1042739Y1276663D01*
G01X-1036069Y1279700D01*
G01X-1033935Y1288985D01*
G01Y1293599D01*
G01X-1036126Y1302528D01*
G01X-1042778Y1305421D01*
G01Y1302499D01*
G01X-1038760Y1300433D01*
G01X-1037491Y1293849D01*
G01Y1288024D01*
G01X-1038827Y1281603D01*
G01X-1042739Y1279566D01*
G01X-1046728Y1281728D01*
G01X-1048045Y1288428D01*
G01Y1294118D01*
G01X-1046757Y1300442D01*
G01X-1042778Y1302499D01*
G01Y1305421D01*
G01X-1049467Y1302422D01*
G01X-1051601Y1293253D01*
G01Y1288505D01*
G37*
G36*
G01X-1015227Y1297847D02*
G01X-1015112Y1295233D01*
G01X-1008883Y1298232D01*
G01X-1002232Y1290792D01*
G01Y1277047D01*
G01X-1005788D01*
G01Y1290811D01*
G01X-1006817Y1294137D01*
G01X-1009960Y1295214D01*
G01X-1012997Y1294291D01*
G01X-1015035Y1291869D01*
G01Y1277047D01*
G01X-1018591D01*
G01Y1297847D01*
G01X-1015227D01*
G37*
G36*
G01X-980181Y1289408D02*
G01X-991926D01*
G01Y1277047D01*
G01X-995617D01*
G01Y1305037D01*
G01X-978278D01*
G01Y1302019D01*
G01X-991926D01*
G01Y1292426D01*
G01X-980181D01*
G01Y1289408D01*
G37*
G36*
G01X-1748230Y1440531D02*
G01X-1751507Y1433678D01*
G01X-1758841Y1431265D01*
G01X-1766790Y1434822D01*
G01X-1769779Y1444337D01*
G01Y1447029D01*
G01X-1768386Y1453891D01*
G01X-1764435Y1458438D01*
G01X-1758514Y1460024D01*
G01X-1751363Y1457534D01*
G01X-1748230Y1450643D01*
G01X-1751940D01*
G01X-1754026Y1455502D01*
G01X-1758514Y1457006D01*
G01X-1764060Y1454389D01*
G01X-1766069Y1446943D01*
G01Y1444230D01*
G01X-1764166Y1436977D01*
G01X-1758841Y1434283D01*
G01X-1754122Y1435677D01*
G01X-1751940Y1440531D01*
G01X-1748230D01*
G37*
G36*
G01X-1717064Y1447298D02*
G01X-1733097D01*
G01Y1450393D01*
G01X-1717064D01*
G01Y1447298D01*
G37*
G36*
G01X-1717064Y1439320D02*
G01X-1733097D01*
G01Y1442396D01*
G01X-1717064D01*
G01Y1439320D01*
G37*
G36*
G01X-1689967Y1431650D02*
G01X-1693543D01*
G01Y1455352D01*
G01X-1700713Y1452719D01*
G01Y1455948D01*
G01X-1690525Y1459774D01*
G01X-1689967D01*
G01Y1431650D01*
G37*
G36*
G01X-1678296Y1443107D02*
G01X-1676066Y1434235D01*
G01X-1669434Y1431265D01*
G01X-1662763Y1434302D01*
G01X-1660630Y1443588D01*
G01Y1448201D01*
G01X-1662821Y1457131D01*
G01X-1669473Y1460024D01*
G01Y1457102D01*
G01X-1665455Y1455035D01*
G01X-1664186Y1448451D01*
G01Y1442626D01*
G01X-1665522Y1436206D01*
G01X-1669434Y1434168D01*
G01X-1673423Y1436331D01*
G01X-1674740Y1443030D01*
G01Y1448720D01*
G01X-1673452Y1455045D01*
G01X-1669473Y1457102D01*
G01Y1460024D01*
G01X-1676162Y1457025D01*
G01X-1678296Y1447855D01*
G01Y1443107D01*
G37*
G36*
G01X-1641461Y1452450D02*
G01Y1440281D01*
G01X-1640451Y1435648D01*
G01X-1637231Y1434149D01*
G01X-1632214Y1437071D01*
G01Y1452450D01*
G01X-1628638D01*
G01Y1431650D01*
G01X-1631849D01*
G01X-1632022Y1433860D01*
G01X-1637078Y1431265D01*
G01X-1641461Y1432668D01*
G01Y1423653D01*
G01X-1645017D01*
G01Y1452450D01*
G01X-1641461D01*
G37*
G36*
G01X-1606310Y1444010D02*
G01X-1618055D01*
G01Y1431650D01*
G01X-1621746D01*
G01Y1459639D01*
G01X-1604407D01*
G01Y1456621D01*
G01X-1618055D01*
G01Y1447029D01*
G01X-1606310D01*
G01Y1444010D01*
G37*
G36*
G01X-1733907Y509457D02*
G01X-1729976Y512360D01*
G01X-1728563Y516916D01*
G01X-1731110Y523183D01*
G01X-1738387Y525336D01*
G01X-1743942D01*
G01Y522318D01*
G01X-1738290D01*
G01X-1733821Y520912D01*
G01X-1732273Y516926D01*
G01X-1733898Y513112D01*
G01X-1738271Y511687D01*
G01X-1743942D01*
G01Y522318D01*
G01Y525336D01*
G01X-1747652D01*
G01Y497346D01*
G01X-1743942D01*
G01Y508669D01*
G01X-1737368D01*
G01X-1731293Y497346D01*
G01X-1727333D01*
G01Y497577D01*
G01X-1733907Y509457D01*
G37*
G36*
G01X-1723264Y489349D02*
G01X-1719708D01*
G01Y499365D01*
G01X-1713749Y496962D01*
G01X-1707866Y499865D01*
G01X-1705694Y507516D01*
G01Y507843D01*
G01X-1707876Y515705D01*
G01X-1713806Y518531D01*
G01X-1714864Y518060D01*
G01Y515513D01*
G01X-1710750Y513475D01*
G01X-1709250Y507919D01*
G01X-1710759Y501893D01*
G01X-1714825Y499865D01*
G01X-1719708Y502710D01*
G01Y512648D01*
G01X-1714864Y515513D01*
G01Y518060D01*
G01X-1719843Y515840D01*
G01X-1720016Y518146D01*
G01X-1723264D01*
G01Y489349D01*
G37*
G36*
G01X-1675161Y512995D02*
G01X-1691193D01*
G01Y516090D01*
G01X-1675161D01*
G01Y512995D01*
G37*
G36*
G01X-1675161Y505017D02*
G01X-1691193D01*
G01Y508092D01*
G01X-1675161D01*
G01Y505017D01*
G37*
G36*
G01X-1727124Y450102D02*
G01X-1730699D01*
G01Y473805D01*
G01X-1737870Y471172D01*
G01Y474401D01*
G01X-1727681Y478227D01*
G01X-1727124D01*
G01Y450102D01*
G37*
G36*
G01X-1715584Y451967D02*
G01X-1715036Y453505D01*
G01X-1713393Y454120D01*
G01X-1711730Y453505D01*
G01X-1711163Y451967D01*
G01X-1711730Y450487D01*
G01X-1713393Y449891D01*
G01X-1715036Y450487D01*
G01X-1715584Y451967D01*
G37*
G36*
G01X-1704497Y470787D02*
G01X-1703421Y467077D01*
G01X-1700480Y464520D01*
G01X-1703911Y461752D01*
G01X-1705151Y457657D01*
G01X-1702719Y451881D01*
G01X-1696251Y449718D01*
G01X-1689801Y451871D01*
G01X-1687350Y457657D01*
G01X-1688628Y461752D01*
G01X-1692098Y464501D01*
G01X-1689109Y467058D01*
G01X-1688004Y470787D01*
G01X-1690282Y476400D01*
G01X-1696251Y478477D01*
G01Y475555D01*
G01X-1692886Y474209D01*
G01X-1691560Y470729D01*
G01X-1692838Y467279D01*
G01X-1696251Y465962D01*
G01X-1696289Y465977D01*
G01Y463040D01*
G01X-1692396Y461560D01*
G01X-1690906Y457734D01*
G01X-1692329Y453995D01*
G01X-1696251Y452621D01*
G01X-1700182Y453986D01*
G01X-1701595Y457734D01*
G01X-1700143Y461579D01*
G01X-1696289Y463040D01*
G01Y465977D01*
G01X-1699663Y467279D01*
G01X-1700941Y470729D01*
G01X-1699644Y474257D01*
G01X-1696251Y475555D01*
G01Y478477D01*
G01X-1702229Y476400D01*
G01X-1704497Y470787D01*
G37*
G36*
G01X-1666278Y459733D02*
G01X-1668508Y457407D01*
G01Y450102D01*
G01X-1672064D01*
G01Y479630D01*
G01X-1668508D01*
G01Y461771D01*
G01X-1666605Y464059D01*
G01X-1660126Y470902D01*
G01X-1655801D01*
G01X-1663894Y462213D01*
G01X-1654859Y450102D01*
G01X-1659030D01*
G01X-1666278Y459733D01*
G37*
G36*
G01X-1639962Y453217D02*
G01X-1635829Y456468D01*
G01X-1634291Y463703D01*
G01Y466281D01*
G01X-1636156Y473092D01*
G01X-1641269Y475458D01*
G01X-1646364Y473053D01*
G01X-1648209Y466242D01*
G01Y464068D01*
G01X-1646700Y456603D01*
G01X-1642403Y453217D01*
G01Y450102D01*
G01X-1651862D01*
G01Y453120D01*
G01X-1647613D01*
G01X-1650804Y458032D01*
G01X-1651958Y464097D01*
G01Y466231D01*
G01X-1650602Y472613D01*
G01X-1646806Y476948D01*
G01X-1641269Y478477D01*
G01X-1635762Y476977D01*
G01X-1631965Y472748D01*
G01X-1630542Y466558D01*
G01Y464059D01*
G01X-1631696Y458032D01*
G01X-1634887Y453120D01*
G01X-1630658D01*
G01Y450102D01*
G01X-1639962D01*
G01Y453217D01*
G37*
G36*
G01X-2801355Y2101925D02*
G01X-2781458D01*
G01Y2097398D01*
G01X-2806920D01*
G01Y2139382D01*
G01X-2801355D01*
G01Y2101925D01*
G37*
G36*
G01X-2776357Y2112911D02*
G01X-2772421Y2101233D01*
G01X-2762141Y2096821D01*
G01X-2754687Y2098839D01*
G01X-2749698Y2104477D01*
G01X-2747954Y2112652D01*
G01Y2113026D01*
G01X-2751890Y2124763D01*
G01X-2762199Y2129174D01*
G01Y2124791D01*
G01X-2755725Y2121605D01*
G01X-2753288Y2113286D01*
G01X-2755682Y2104361D01*
G01X-2762141Y2101175D01*
G01X-2768586Y2104318D01*
G01X-2770993Y2112652D01*
G01X-2768571Y2121648D01*
G01X-2762199Y2124791D01*
G01Y2129174D01*
G01X-2769537Y2127185D01*
G01X-2774555Y2121533D01*
G01X-2776357Y2113286D01*
G01Y2112911D01*
G37*
G36*
G01X-2726201Y2123811D02*
G01X-2728825Y2124013D01*
G01X-2735948Y2119543D01*
G01Y2097398D01*
G01X-2741282D01*
G01Y2128598D01*
G01X-2736092D01*
G01X-2736006Y2124993D01*
G01X-2728566Y2129174D01*
G01X-2726201Y2128771D01*
G01Y2123811D01*
G37*
G36*
G01X-2723186Y2112133D02*
G01X-2719207Y2100988D01*
G01X-2708884Y2096821D01*
G01X-2697119Y2102848D01*
G01X-2700378Y2105385D01*
G01X-2703809Y2102329D01*
G01X-2708596Y2101175D01*
G01X-2715156Y2104015D01*
G01X-2717852Y2111469D01*
G01X-2696715D01*
G01Y2113690D01*
G01X-2700089Y2125166D01*
G01X-2709547Y2129174D01*
G01Y2124791D01*
G01X-2704241Y2122557D01*
G01X-2702050Y2116256D01*
G01Y2115852D01*
G01X-2717679D01*
G01X-2714968Y2122441D01*
G01X-2709547Y2124791D01*
G01Y2129174D01*
G01X-2716453Y2127113D01*
G01X-2721413Y2121403D01*
G01X-2723186Y2113113D01*
G01Y2112133D01*
G37*
G36*
G01X-2685486Y2128598D02*
G01X-2685313Y2124676D01*
G01X-2675970Y2129174D01*
G01X-2665993Y2118015D01*
G01Y2097398D01*
G01X-2671327D01*
G01Y2118044D01*
G01X-2672870Y2123032D01*
G01X-2677585Y2124647D01*
G01X-2682141Y2123263D01*
G01X-2685197Y2119630D01*
G01Y2097398D01*
G01X-2690532D01*
G01Y2128598D01*
G01X-2685486D01*
G37*
G36*
G01X-2652924Y2101752D02*
G01X-2634671D01*
G01Y2097398D01*
G01X-2659440D01*
G01Y2101319D01*
G01X-2642226Y2124186D01*
G01X-2659181D01*
G01Y2128598D01*
G01X-2635536D01*
G01Y2124820D01*
G01X-2652924Y2101752D01*
G37*
G36*
G01X-2630528Y2112911D02*
G01X-2626591Y2101233D01*
G01X-2616312Y2096821D01*
G01X-2608858Y2098839D01*
G01X-2603869Y2104477D01*
G01X-2602125Y2112652D01*
G01Y2113026D01*
G01X-2606061Y2124763D01*
G01X-2616369Y2129174D01*
G01Y2124791D01*
G01X-2609896Y2121605D01*
G01X-2607459Y2113286D01*
G01X-2609852Y2104361D01*
G01X-2616312Y2101175D01*
G01X-2622756Y2104318D01*
G01X-2625164Y2112652D01*
G01X-2622742Y2121648D01*
G01X-2616369Y2124791D01*
G01Y2129174D01*
G01X-2623708Y2127185D01*
G01X-2628725Y2121533D01*
G01X-2630528Y2113286D01*
G01Y2112911D01*
G37*
G36*
G01X-2571816Y2139382D02*
G01X-2558090Y2105126D01*
G01X-2544365Y2139382D01*
G01X-2537185D01*
G01Y2097398D01*
G01X-2542721D01*
G01Y2113747D01*
G01X-2542202Y2131395D01*
G01X-2555985Y2097398D01*
G01X-2560224D01*
G01X-2573979Y2131308D01*
G01X-2573431Y2113747D01*
G01Y2097398D01*
G01X-2578967D01*
G01Y2139382D01*
G01X-2571816D01*
G37*
G36*
G01X-2527467Y2119947D02*
G01X-2522104D01*
G01X-2520172Y2123436D01*
G01X-2515385Y2124878D01*
G01X-2510454Y2123220D01*
G01X-2508782Y2118765D01*
G01Y2116314D01*
G01X-2512963D01*
G01Y2112536D01*
G01X-2508782D01*
G01Y2106135D01*
G01X-2512040Y2102761D01*
G01X-2516798Y2101463D01*
G01X-2521094Y2102876D01*
G01X-2522767Y2106798D01*
G01X-2512963Y2112536D01*
G01Y2116314D01*
G01X-2513972D01*
G01X-2524396Y2113618D01*
G01X-2528102Y2106048D01*
G01X-2525146Y2099431D01*
G01X-2517577Y2096821D01*
G01X-2508695Y2100685D01*
G01X-2507945Y2097398D01*
G01X-2502351D01*
G01Y2097859D01*
G01X-2503447Y2104693D01*
G01Y2119053D01*
G01X-2506619Y2126478D01*
G01X-2515068Y2129174D01*
G01X-2521311Y2127906D01*
G01X-2525809Y2124460D01*
G01X-2527467Y2119947D01*
G37*
G36*
G01X-2490079Y2101752D02*
G01X-2471826D01*
G01Y2097398D01*
G01X-2496596D01*
G01Y2101319D01*
G01X-2479381Y2124186D01*
G01X-2496336D01*
G01Y2128598D01*
G01X-2472691D01*
G01Y2124820D01*
G01X-2490079Y2101752D01*
G37*
G36*
G01X-2460810Y2101752D02*
G01X-2442557D01*
G01Y2097398D01*
G01X-2467327D01*
G01Y2101319D01*
G01X-2450112Y2124186D01*
G01X-2467067D01*
G01Y2128598D01*
G01X-2443422D01*
G01Y2124820D01*
G01X-2460810Y2101752D01*
G37*
G36*
G01X-2438414Y2112911D02*
G01X-2434478Y2101233D01*
G01X-2424198Y2096821D01*
G01X-2416744Y2098839D01*
G01X-2411755Y2104477D01*
G01X-2410011Y2112652D01*
G01Y2113026D01*
G01X-2413947Y2124763D01*
G01X-2424256Y2129174D01*
G01Y2124791D01*
G01X-2417782Y2121605D01*
G01X-2415345Y2113286D01*
G01X-2417739Y2104361D01*
G01X-2424198Y2101175D01*
G01X-2430643Y2104318D01*
G01X-2433050Y2112652D01*
G01X-2430628Y2121648D01*
G01X-2424256Y2124791D01*
G01Y2129174D01*
G01X-2431594Y2127185D01*
G01X-2436612Y2121533D01*
G01X-2438414Y2113286D01*
G01Y2112911D01*
G37*
G36*
G01X-2398293Y2128598D02*
G01X-2398120Y2124676D01*
G01X-2388778Y2129174D01*
G01X-2378800Y2118015D01*
G01Y2097398D01*
G01X-2384135D01*
G01Y2118044D01*
G01X-2385678Y2123032D01*
G01X-2390392Y2124647D01*
G01X-2394948Y2123263D01*
G01X-2398005Y2119630D01*
G01Y2097398D01*
G01X-2403340D01*
G01Y2128598D01*
G01X-2398293D01*
G37*
G36*
G01X-2810986Y2026531D02*
G01X-2805276D01*
G01X-2801326Y2037518D01*
G01X-2783736D01*
G01X-2779728Y2026531D01*
G01X-2774048D01*
G01X-2790109Y2068516D01*
G01X-2792531D01*
G01Y2061682D01*
G01X-2785380Y2042045D01*
G01X-2799654D01*
G01X-2792531Y2061682D01*
G01Y2068516D01*
G01X-2794953D01*
G01X-2810986Y2026531D01*
G37*
G36*
G01X-2769487Y2041987D02*
G01X-2766070Y2030395D01*
G01X-2757232Y2025955D01*
G01X-2748322Y2029876D01*
G01X-2748062Y2026531D01*
G01X-2743160D01*
G01Y2070823D01*
G01X-2748495D01*
G01Y2054560D01*
G01X-2755848Y2057735D01*
G01Y2053781D01*
G01X-2748495Y2049369D01*
G01Y2035038D01*
G01X-2755905Y2030482D01*
G01X-2761961Y2033481D01*
G01X-2764152Y2041785D01*
G01X-2761961Y2050753D01*
G01X-2755848Y2053781D01*
G01Y2057735D01*
G01X-2757174Y2058308D01*
G01X-2766084Y2053940D01*
G01X-2769487Y2042391D01*
G01Y2041987D01*
G37*
G36*
G01X-2719816Y2052945D02*
G01X-2722440Y2053147D01*
G01X-2729563Y2048677D01*
G01Y2026531D01*
G01X-2734897D01*
G01Y2057732D01*
G01X-2729707D01*
G01X-2729620Y2054127D01*
G01X-2722181Y2058308D01*
G01X-2719816Y2057905D01*
G01Y2052945D01*
G37*
G36*
G01X-2709133Y2026531D02*
G01X-2714468D01*
G01Y2057732D01*
G01X-2709133D01*
G01Y2026531D01*
G37*
G36*
G01X-2714900Y2066007D02*
G01X-2714107Y2068199D01*
G01X-2711757Y2069093D01*
G01X-2709393Y2068199D01*
G01X-2708585Y2066007D01*
G01X-2709393Y2063845D01*
G01X-2711757Y2062980D01*
G01X-2714107Y2063845D01*
G01X-2714900Y2066007D01*
G37*
G36*
G01X-2700868Y2049081D02*
G01X-2695504D01*
G01X-2693572Y2052570D01*
G01X-2688786Y2054012D01*
G01X-2683855Y2052354D01*
G01X-2682182Y2047899D01*
G01Y2045448D01*
G01X-2686363D01*
G01Y2041670D01*
G01X-2682182D01*
G01Y2035269D01*
G01X-2685441Y2031895D01*
G01X-2690199Y2030597D01*
G01X-2694495Y2032010D01*
G01X-2696168Y2035932D01*
G01X-2686363Y2041670D01*
G01Y2045448D01*
G01X-2687373D01*
G01X-2697797Y2042751D01*
G01X-2701502Y2035182D01*
G01X-2698546Y2028564D01*
G01X-2690977Y2025955D01*
G01X-2682096Y2029819D01*
G01X-2681346Y2026531D01*
G01X-2675752D01*
G01Y2026993D01*
G01X-2676848Y2033827D01*
G01Y2048187D01*
G01X-2680020Y2055612D01*
G01X-2688468Y2058308D01*
G01X-2694711Y2057039D01*
G01X-2699210Y2053594D01*
G01X-2700868Y2049081D01*
G37*
G36*
G01X-2663451Y2057732D02*
G01X-2663278Y2053810D01*
G01X-2653935Y2058308D01*
G01X-2643958Y2047149D01*
G01Y2026531D01*
G01X-2649293D01*
G01Y2047178D01*
G01X-2650835Y2052166D01*
G01X-2655550Y2053781D01*
G01X-2660106Y2052397D01*
G01X-2663162Y2048764D01*
G01Y2026531D01*
G01X-2668497D01*
G01Y2057732D01*
G01X-2663451D01*
G37*
G36*
G01X-2587153Y2026531D02*
G01X-2592718D01*
G01X-2613855Y2058885D01*
G01Y2026531D01*
G01X-2619420D01*
G01Y2068516D01*
G01X-2613855D01*
G01X-2592661Y2036018D01*
G01Y2068516D01*
G01X-2587153D01*
G01Y2026531D01*
G37*
G36*
G01X-2571313Y2026531D02*
G01X-2576648D01*
G01Y2057732D01*
G01X-2571313D01*
G01Y2026531D01*
G37*
G36*
G01X-2577080Y2066007D02*
G01X-2576287Y2068199D01*
G01X-2573937Y2069093D01*
G01X-2571573Y2068199D01*
G01X-2570765Y2066007D01*
G01X-2571573Y2063845D01*
G01X-2573937Y2062980D01*
G01X-2576287Y2063845D01*
G01X-2577080Y2066007D01*
G37*
G36*
G01X-2563048Y2049081D02*
G01X-2557684D01*
G01X-2555752Y2052570D01*
G01X-2550966Y2054012D01*
G01X-2546035Y2052354D01*
G01X-2544362Y2047899D01*
G01Y2045448D01*
G01X-2548544D01*
G01Y2041670D01*
G01X-2544362D01*
G01Y2035269D01*
G01X-2547621Y2031895D01*
G01X-2552379Y2030597D01*
G01X-2556675Y2032010D01*
G01X-2558348Y2035932D01*
G01X-2548544Y2041670D01*
G01Y2045448D01*
G01X-2549553D01*
G01X-2559977Y2042751D01*
G01X-2563682Y2035182D01*
G01X-2560727Y2028564D01*
G01X-2553157Y2025955D01*
G01X-2544276Y2029819D01*
G01X-2543526Y2026531D01*
G01X-2537932D01*
G01Y2026993D01*
G01X-2539028Y2033827D01*
G01Y2048187D01*
G01X-2542200Y2055612D01*
G01X-2550649Y2058308D01*
G01X-2556891Y2057039D01*
G01X-2561390Y2053594D01*
G01X-2563048Y2049081D01*
G37*
G36*
G01X-2525660Y2030886D02*
G01X-2507407D01*
G01Y2026531D01*
G01X-2532177D01*
G01Y2030453D01*
G01X-2514962Y2053320D01*
G01X-2531917D01*
G01Y2057732D01*
G01X-2508272D01*
G01Y2053954D01*
G01X-2525660Y2030886D01*
G37*
G36*
G01X-2495612Y2026531D02*
G01X-2500947D01*
G01Y2057732D01*
G01X-2495612D01*
G01Y2026531D01*
G37*
G36*
G01X-2501379Y2066007D02*
G01X-2500586Y2068199D01*
G01X-2498236Y2069093D01*
G01X-2495871Y2068199D01*
G01X-2495064Y2066007D01*
G01X-2495871Y2063845D01*
G01X-2498236Y2062980D01*
G01X-2500586Y2063845D01*
G01X-2501379Y2066007D01*
G37*
G36*
G01X-1479583Y2124575D02*
G01X-1485538Y2120004D01*
G01X-1494434Y2118490D01*
G01X-1503546Y2120898D01*
G01X-1509702Y2127746D01*
G01X-1511937Y2138041D01*
G01Y2141703D01*
G01X-1507511Y2156409D01*
G01X-1495068Y2161628D01*
G01X-1484485Y2158269D01*
G01X-1479583Y2148739D01*
G01X-1485120D01*
G01X-1495039Y2157101D01*
G01X-1503474Y2153190D01*
G01X-1506372Y2141863D01*
G01Y2138429D01*
G01X-1503142Y2127188D01*
G01X-1494405Y2123017D01*
G01X-1488955Y2123708D01*
G01X-1485091Y2126038D01*
G01Y2135445D01*
G01X-1494809D01*
G01Y2139973D01*
G01X-1479583D01*
G01Y2124575D01*
G37*
G36*
G01X-1436016Y2119067D02*
G01X-1441582D01*
G01X-1462718Y2151420D01*
G01Y2119067D01*
G01X-1468283D01*
G01Y2161051D01*
G01X-1462718D01*
G01X-1441524Y2128554D01*
G01Y2161051D01*
G01X-1436016D01*
G01Y2119067D01*
G37*
G36*
G01X-1424103Y2119067D02*
G01X-1412482D01*
G01X-1402577Y2121518D01*
G01X-1396031Y2128381D01*
G01X-1393739Y2138790D01*
G01Y2141472D01*
G01X-1396060Y2151738D01*
G01X-1402563Y2158629D01*
G01X-1412251Y2161051D01*
G01X-1418566D01*
G01Y2156524D01*
G01X-1412107D01*
G01X-1402577Y2152498D01*
G01X-1399218Y2141373D01*
G01Y2138919D01*
G01X-1402779Y2127577D01*
G01X-1412741Y2123594D01*
G01X-1418566D01*
G01Y2156524D01*
G01Y2161051D01*
G01X-1424103D01*
G01Y2119067D01*
G37*
G36*
G01X-1689596Y1846892D02*
G01X-1677601Y1881524D01*
G01X-1671545D01*
G01X-1687116Y1839539D01*
G01X-1692018D01*
G01X-1707561Y1881524D01*
G01X-1701534D01*
G01X-1689596Y1846892D01*
G37*
G36*
G01X-1668248Y1855399D02*
G01X-1664859Y1843374D01*
G01X-1655992Y1838963D01*
G01X-1647255Y1842654D01*
G01Y1839972D01*
G01X-1649432Y1833801D01*
G01X-1655502Y1831610D01*
G01X-1663893Y1835848D01*
G01X-1666662Y1832648D01*
G01X-1661731Y1828697D01*
G01X-1655127Y1827255D01*
G01X-1645482Y1830745D01*
G01X-1641892Y1840289D01*
G01Y1870739D01*
G01X-1646765D01*
G01X-1647025Y1867279D01*
G01X-1654608Y1870715D01*
G01Y1866789D01*
G01X-1647255Y1862319D01*
G01Y1848075D01*
G01X-1654666Y1843490D01*
G01X-1660721Y1846503D01*
G01X-1662884Y1854793D01*
G01X-1660693Y1863761D01*
G01X-1654608Y1866789D01*
G01Y1870715D01*
G01X-1655935Y1871316D01*
G01X-1664874Y1867005D01*
G01X-1668248Y1855399D01*
G37*
G36*
G01X-1634094Y1862089D02*
G01X-1628730D01*
G01X-1626798Y1865578D01*
G01X-1622012Y1867020D01*
G01X-1617081Y1865362D01*
G01X-1615408Y1860906D01*
G01Y1858455D01*
G01X-1619589D01*
G01Y1854678D01*
G01X-1615408D01*
G01Y1848277D01*
G01X-1618667Y1844903D01*
G01X-1623424Y1843605D01*
G01X-1627721Y1845018D01*
G01X-1629393Y1848940D01*
G01X-1619589Y1854678D01*
G01Y1858455D01*
G01X-1620599D01*
G01X-1631023Y1855759D01*
G01X-1634728Y1848190D01*
G01X-1631772Y1841572D01*
G01X-1624203Y1838963D01*
G01X-1615322Y1842827D01*
G01X-1614572Y1839539D01*
G01X-1608978D01*
G01Y1840001D01*
G01X-1610074Y1846835D01*
G01Y1861195D01*
G01X-1613246Y1868620D01*
G01X-1621694Y1871316D01*
G01X-1627937Y1870047D01*
G01X-1632436Y1866601D01*
G01X-1634094Y1862089D01*
G37*
G36*
G01X-1594485Y1878294D02*
G01Y1870739D01*
G01X-1588660D01*
G01Y1866616D01*
G01X-1594485D01*
G01Y1847243D01*
G01X-1593707Y1844428D01*
G01X-1591054Y1843490D01*
G01X-1588516Y1843836D01*
G01Y1839536D01*
G01X-1592611Y1838963D01*
G01X-1598003Y1841125D01*
G01X-1599820Y1847267D01*
G01Y1866616D01*
G01X-1605500D01*
G01Y1870739D01*
G01X-1599820D01*
G01Y1878294D01*
G01X-1594485D01*
G37*
G36*
G01X-1583774Y1854274D02*
G01X-1579795Y1843129D01*
G01X-1569472Y1838963D01*
G01X-1557707Y1844989D01*
G01X-1560966Y1847527D01*
G01X-1564397Y1844470D01*
G01X-1569184Y1843317D01*
G01X-1575744Y1846157D01*
G01X-1578440Y1853611D01*
G01X-1557304D01*
G01Y1855831D01*
G01X-1560677Y1867308D01*
G01X-1570135Y1871316D01*
G01Y1866933D01*
G01X-1564830Y1864698D01*
G01X-1562638Y1858398D01*
G01Y1857994D01*
G01X-1578267D01*
G01X-1575556Y1864583D01*
G01X-1570135Y1866933D01*
G01Y1871316D01*
G01X-1577041Y1869254D01*
G01X-1582001Y1863545D01*
G01X-1583774Y1855255D01*
G01Y1854274D01*
G37*
G36*
G01X-1492746Y1846892D02*
G01X-1480750Y1881524D01*
G01X-1474695D01*
G01X-1490266Y1839539D01*
G01X-1495168D01*
G01X-1510710Y1881524D01*
G01X-1504684D01*
G01X-1492746Y1846892D01*
G37*
G36*
G01X-1471426Y1854995D02*
G01X-1468009Y1843403D01*
G01X-1459171Y1838963D01*
G01X-1450261Y1842884D01*
G01X-1450001Y1839539D01*
G01X-1445099D01*
G01Y1883831D01*
G01X-1450434D01*
G01Y1867567D01*
G01X-1457787Y1870743D01*
G01Y1866789D01*
G01X-1450434Y1862377D01*
G01Y1848046D01*
G01X-1457844Y1843490D01*
G01X-1463900Y1846489D01*
G01X-1466091Y1854793D01*
G01X-1463900Y1863761D01*
G01X-1457787Y1866789D01*
G01Y1870743D01*
G01X-1459113Y1871316D01*
G01X-1468023Y1866948D01*
G01X-1471426Y1855399D01*
G01Y1854995D01*
G37*
G36*
G01X-1421755Y1865953D02*
G01X-1424379Y1866155D01*
G01X-1431501Y1861685D01*
G01Y1839539D01*
G01X-1436836D01*
G01Y1870739D01*
G01X-1431646D01*
G01X-1431559Y1867135D01*
G01X-1424120Y1871316D01*
G01X-1421755Y1870912D01*
G01Y1865953D01*
G37*
G36*
G01X-1418272Y1862089D02*
G01X-1412908D01*
G01X-1410976Y1865578D01*
G01X-1406190Y1867020D01*
G01X-1401259Y1865362D01*
G01X-1399586Y1860906D01*
G01Y1858455D01*
G01X-1403768D01*
G01Y1854678D01*
G01X-1399586D01*
G01Y1848277D01*
G01X-1402845Y1844903D01*
G01X-1407603Y1843605D01*
G01X-1411899Y1845018D01*
G01X-1413572Y1848940D01*
G01X-1403768Y1854678D01*
G01Y1858455D01*
G01X-1404777D01*
G01X-1415201Y1855759D01*
G01X-1418906Y1848190D01*
G01X-1415951Y1841572D01*
G01X-1408381Y1838963D01*
G01X-1399500Y1842827D01*
G01X-1398750Y1839539D01*
G01X-1393156D01*
G01Y1840001D01*
G01X-1394252Y1846835D01*
G01Y1861195D01*
G01X-1397424Y1868620D01*
G01X-1405872Y1871316D01*
G01X-1412115Y1870047D01*
G01X-1416614Y1866601D01*
G01X-1418272Y1862089D01*
G37*
G36*
G01X-1380105Y1839539D02*
G01X-1385440D01*
G01Y1870739D01*
G01X-1380105D01*
G01Y1839539D01*
G37*
G36*
G01X-1385872Y1879015D02*
G01X-1385079Y1881207D01*
G01X-1382729Y1882101D01*
G01X-1380365Y1881207D01*
G01X-1379557Y1879015D01*
G01X-1380365Y1876853D01*
G01X-1382729Y1875987D01*
G01X-1385079Y1876853D01*
G01X-1385872Y1879015D01*
G37*
G36*
G01X-1366534Y1870739D02*
G01X-1366361Y1866818D01*
G01X-1357018Y1871316D01*
G01X-1347041Y1860157D01*
G01Y1839539D01*
G01X-1352376D01*
G01Y1860186D01*
G01X-1353918Y1865174D01*
G01X-1358633Y1866789D01*
G01X-1363189Y1865405D01*
G01X-1366246Y1861772D01*
G01Y1839539D01*
G01X-1371580D01*
G01Y1870739D01*
G01X-1366534D01*
G37*
G36*
G01X-1648875Y2124575D02*
G01X-1654829Y2120004D01*
G01X-1663725Y2118490D01*
G01X-1672837Y2120898D01*
G01X-1678993Y2127746D01*
G01X-1681228Y2138041D01*
G01Y2141703D01*
G01X-1676802Y2156409D01*
G01X-1664359Y2161628D01*
G01X-1653777Y2158269D01*
G01X-1648875Y2148739D01*
G01X-1654411D01*
G01X-1664331Y2157101D01*
G01X-1672765Y2153190D01*
G01X-1675663Y2141863D01*
G01Y2138429D01*
G01X-1672433Y2127188D01*
G01X-1663696Y2123017D01*
G01X-1658246Y2123708D01*
G01X-1654382Y2126038D01*
G01Y2135445D01*
G01X-1664100D01*
G01Y2139973D01*
G01X-1648875D01*
G01Y2124575D01*
G37*
G36*
G01X-1605308Y2119067D02*
G01X-1610873D01*
G01X-1632009Y2151420D01*
G01Y2119067D01*
G01X-1637575D01*
G01Y2161051D01*
G01X-1632009D01*
G01X-1610815Y2128554D01*
G01Y2161051D01*
G01X-1605308D01*
G01Y2119067D01*
G37*
G36*
G01X-1593394Y2119067D02*
G01X-1581773D01*
G01X-1571868Y2121518D01*
G01X-1565323Y2128381D01*
G01X-1563030Y2138790D01*
G01Y2141472D01*
G01X-1565351Y2151738D01*
G01X-1571854Y2158629D01*
G01X-1581543Y2161051D01*
G01X-1587858D01*
G01Y2156524D01*
G01X-1581398D01*
G01X-1571868Y2152498D01*
G01X-1568509Y2141373D01*
G01Y2138919D01*
G01X-1572070Y2127577D01*
G01X-1582033Y2123594D01*
G01X-1587858D01*
G01Y2156524D01*
G01Y2161051D01*
G01X-1593394D01*
G01Y2119067D01*
G37*
G36*
G01X-1703496Y1902531D02*
G01X-1703495Y1902428D01*
G01X-1703492Y1902325D01*
G01X-1703488Y1902222D01*
G01X-1703482Y1902120D01*
G01X-1703474Y1902017D01*
G01X-1703464Y1901914D01*
G01X-1703452Y1901812D01*
G01X-1703439Y1901710D01*
G01X-1703423Y1901608D01*
G01X-1703406Y1901506D01*
G01X-1703388Y1901405D01*
G01X-1703367Y1901304D01*
G01X-1703345Y1901203D01*
G01X-1703321Y1901103D01*
G01X-1703295Y1901003D01*
G01X-1703267Y1900904D01*
G01X-1703238Y1900805D01*
G01X-1703207Y1900707D01*
G01X-1703174Y1900609D01*
G01X-1703140Y1900512D01*
G01X-1703104Y1900415D01*
G01X-1703066Y1900319D01*
G01X-1703027Y1900224D01*
G01X-1702986Y1900130D01*
G01X-1702943Y1900036D01*
G01X-1702898Y1899943D01*
G01X-1702852Y1899850D01*
G01X-1702805Y1899759D01*
G01X-1702756Y1899668D01*
G01X-1702705Y1899579D01*
G01X-1702653Y1899490D01*
G01X-1702599Y1899402D01*
G01X-1702543Y1899315D01*
G01X-1702486Y1899229D01*
G01X-1702428Y1899144D01*
G01X-1702368Y1899060D01*
G01X-1702307Y1898977D01*
G01X-1702244Y1898896D01*
G01X-1702180Y1898815D01*
G01X-1702114Y1898736D01*
G01X-1702047Y1898657D01*
G01X-1701979Y1898580D01*
G01X-1701910Y1898504D01*
G01X-1701839Y1898429D01*
G01X-1701766Y1898356D01*
G01X-1701693Y1898283D01*
G01X-1701618Y1898212D01*
G01X-1701542Y1898143D01*
G01X-1701465Y1898075D01*
G01X-1701387Y1898008D01*
G01X-1701307Y1897942D01*
G01X-1701226Y1897878D01*
G01X-1701145Y1897815D01*
G01X-1701062Y1897754D01*
G01X-1700978Y1897694D01*
G01X-1700893Y1897636D01*
G01X-1700807Y1897579D01*
G01X-1700720Y1897523D01*
G01X-1700632Y1897469D01*
G01X-1700543Y1897417D01*
G01X-1700454Y1897366D01*
G01X-1700363Y1897317D01*
G01X-1700272Y1897270D01*
G01X-1700179Y1897224D01*
G01X-1700086Y1897179D01*
G01X-1699993Y1897137D01*
G01X-1699898Y1897095D01*
G01X-1699803Y1897056D01*
G01X-1699707Y1897018D01*
G01X-1699610Y1896982D01*
G01X-1699513Y1896948D01*
G01X-1699415Y1896915D01*
G01X-1699317Y1896884D01*
G01X-1699218Y1896855D01*
G01X-1699119Y1896827D01*
G01X-1699019Y1896801D01*
G01X-1698919Y1896777D01*
G01X-1698818Y1896755D01*
G01X-1698717Y1896734D01*
G01X-1698616Y1896716D01*
G01X-1698514Y1896699D01*
G01X-1698412Y1896683D01*
G01X-1698310Y1896670D01*
G01X-1698208Y1896658D01*
G01X-1698105Y1896648D01*
G01X-1698002Y1896640D01*
G01X-1697900Y1896634D01*
G01X-1697797Y1896630D01*
G01X-1697694Y1896627D01*
G01X-1697591Y1896626D01*
G01X-1355071D01*
G01X-1354968Y1896627D01*
G01X-1354865Y1896630D01*
G01X-1354762Y1896634D01*
G01X-1354659Y1896640D01*
G01X-1354556Y1896648D01*
G01X-1354454Y1896658D01*
G01X-1354351Y1896670D01*
G01X-1354249Y1896683D01*
G01X-1354147Y1896699D01*
G01X-1354045Y1896716D01*
G01X-1353944Y1896734D01*
G01X-1353843Y1896755D01*
G01X-1353742Y1896777D01*
G01X-1353642Y1896801D01*
G01X-1353542Y1896827D01*
G01X-1353443Y1896855D01*
G01X-1353344Y1896884D01*
G01X-1353246Y1896915D01*
G01X-1353148Y1896948D01*
G01X-1353051Y1896982D01*
G01X-1352955Y1897018D01*
G01X-1352859Y1897056D01*
G01X-1352763Y1897095D01*
G01X-1352669Y1897137D01*
G01X-1352575Y1897179D01*
G01X-1352482Y1897224D01*
G01X-1352390Y1897270D01*
G01X-1352298Y1897317D01*
G01X-1352208Y1897366D01*
G01X-1352118Y1897417D01*
G01X-1352029Y1897469D01*
G01X-1351941Y1897523D01*
G01X-1351854Y1897579D01*
G01X-1351769Y1897636D01*
G01X-1351684Y1897694D01*
G01X-1351600Y1897754D01*
G01X-1351517Y1897815D01*
G01X-1351435Y1897878D01*
G01X-1351354Y1897942D01*
G01X-1351275Y1898008D01*
G01X-1351197Y1898075D01*
G01X-1351119Y1898143D01*
G01X-1351043Y1898212D01*
G01X-1350969Y1898283D01*
G01X-1350895Y1898356D01*
G01X-1350823Y1898429D01*
G01X-1350752Y1898504D01*
G01X-1350682Y1898580D01*
G01X-1350614Y1898657D01*
G01X-1350547Y1898736D01*
G01X-1350481Y1898815D01*
G01X-1350417Y1898896D01*
G01X-1350355Y1898977D01*
G01X-1350293Y1899060D01*
G01X-1350233Y1899144D01*
G01X-1350175Y1899229D01*
G01X-1350118Y1899315D01*
G01X-1350063Y1899402D01*
G01X-1350009Y1899490D01*
G01X-1349957Y1899579D01*
G01X-1349906Y1899668D01*
G01X-1349857Y1899759D01*
G01X-1349809Y1899850D01*
G01X-1349763Y1899943D01*
G01X-1349719Y1900036D01*
G01X-1349676Y1900130D01*
G01X-1349635Y1900224D01*
G01X-1349595Y1900319D01*
G01X-1349558Y1900415D01*
G01X-1349522Y1900512D01*
G01X-1349487Y1900609D01*
G01X-1349454Y1900707D01*
G01X-1349423Y1900805D01*
G01X-1349394Y1900904D01*
G01X-1349367Y1901003D01*
G01X-1349341Y1901103D01*
G01X-1349317Y1901203D01*
G01X-1349294Y1901304D01*
G01X-1349274Y1901405D01*
G01X-1349255Y1901506D01*
G01X-1349238Y1901608D01*
G01X-1349223Y1901710D01*
G01X-1349209Y1901812D01*
G01X-1349198Y1901914D01*
G01X-1349188Y1902017D01*
G01X-1349180Y1902120D01*
G01X-1349173Y1902222D01*
G01X-1349169Y1902325D01*
G01X-1349166Y1902428D01*
G01X-1349165Y1902531D01*
G01Y2126941D01*
G01X-1349166Y2127044D01*
G01X-1349169Y2127147D01*
G01X-1349173Y2127250D01*
G01X-1349180Y2127353D01*
G01X-1349188Y2127456D01*
G01X-1349198Y2127558D01*
G01X-1349209Y2127661D01*
G01X-1349223Y2127763D01*
G01X-1349238Y2127865D01*
G01X-1349255Y2127966D01*
G01X-1349274Y2128068D01*
G01X-1349294Y2128169D01*
G01X-1349317Y2128269D01*
G01X-1349341Y2128370D01*
G01X-1349367Y2128469D01*
G01X-1349394Y2128569D01*
G01X-1349423Y2128668D01*
G01X-1349454Y2128766D01*
G01X-1349487Y2128864D01*
G01X-1349522Y2128961D01*
G01X-1349558Y2129057D01*
G01X-1349595Y2129153D01*
G01X-1349635Y2129248D01*
G01X-1349676Y2129343D01*
G01X-1349719Y2129437D01*
G01X-1349763Y2129530D01*
G01X-1349809Y2129622D01*
G01X-1349857Y2129713D01*
G01X-1349906Y2129804D01*
G01X-1349957Y2129894D01*
G01X-1350009Y2129983D01*
G01X-1350063Y2130070D01*
G01X-1350118Y2130157D01*
G01X-1350175Y2130243D01*
G01X-1350233Y2130328D01*
G01X-1350293Y2130412D01*
G01X-1350355Y2130495D01*
G01X-1350417Y2130577D01*
G01X-1350481Y2130657D01*
G01X-1350547Y2130737D01*
G01X-1350614Y2130815D01*
G01X-1350682Y2130893D01*
G01X-1350752Y2130968D01*
G01X-1350823Y2131043D01*
G01X-1350895Y2131117D01*
G01X-1350969Y2131189D01*
G01X-1351043Y2131260D01*
G01X-1351119Y2131330D01*
G01X-1351197Y2131398D01*
G01X-1351275Y2131465D01*
G01X-1351354Y2131530D01*
G01X-1351435Y2131595D01*
G01X-1351517Y2131657D01*
G01X-1351600Y2131719D01*
G01X-1351684Y2131778D01*
G01X-1351769Y2131837D01*
G01X-1351854Y2131894D01*
G01X-1351941Y2131949D01*
G01X-1352029Y2132003D01*
G01X-1352118Y2132055D01*
G01X-1352208Y2132106D01*
G01X-1352298Y2132155D01*
G01X-1352390Y2132203D01*
G01X-1352482Y2132249D01*
G01X-1352575Y2132293D01*
G01X-1352669Y2132336D01*
G01X-1352763Y2132377D01*
G01X-1352859Y2132416D01*
G01X-1352955Y2132454D01*
G01X-1353051Y2132490D01*
G01X-1353148Y2132525D01*
G01X-1353246Y2132557D01*
G01X-1353344Y2132588D01*
G01X-1353443Y2132618D01*
G01X-1353542Y2132645D01*
G01X-1353642Y2132671D01*
G01X-1353742Y2132695D01*
G01X-1353843Y2132717D01*
G01X-1353944Y2132738D01*
G01X-1354045Y2132757D01*
G01X-1354147Y2132774D01*
G01X-1354249Y2132789D01*
G01X-1354351Y2132802D01*
G01X-1354454Y2132814D01*
G01X-1354556Y2132824D01*
G01X-1354659Y2132832D01*
G01X-1354762Y2132838D01*
G01X-1354865Y2132843D01*
G01X-1354968Y2132846D01*
G01X-1355071D01*
G01X-1691685D01*
G01Y2121035D01*
G01X-1360976D01*
G01Y1908437D01*
G01X-1691685D01*
G01Y2121035D01*
G01Y2132846D01*
G01X-1697591D01*
G01X-1697694D01*
G01X-1697797Y2132843D01*
G01X-1697900Y2132838D01*
G01X-1698002Y2132832D01*
G01X-1698105Y2132824D01*
G01X-1698208Y2132814D01*
G01X-1698310Y2132802D01*
G01X-1698412Y2132789D01*
G01X-1698514Y2132774D01*
G01X-1698616Y2132757D01*
G01X-1698717Y2132738D01*
G01X-1698818Y2132717D01*
G01X-1698919Y2132695D01*
G01X-1699019Y2132671D01*
G01X-1699119Y2132645D01*
G01X-1699218Y2132618D01*
G01X-1699317Y2132588D01*
G01X-1699415Y2132557D01*
G01X-1699513Y2132525D01*
G01X-1699610Y2132490D01*
G01X-1699707Y2132454D01*
G01X-1699803Y2132416D01*
G01X-1699898Y2132377D01*
G01X-1699993Y2132336D01*
G01X-1700086Y2132293D01*
G01X-1700179Y2132249D01*
G01X-1700272Y2132203D01*
G01X-1700363Y2132155D01*
G01X-1700454Y2132106D01*
G01X-1700543Y2132055D01*
G01X-1700632Y2132003D01*
G01X-1700720Y2131949D01*
G01X-1700807Y2131894D01*
G01X-1700893Y2131837D01*
G01X-1700978Y2131778D01*
G01X-1701062Y2131719D01*
G01X-1701145Y2131657D01*
G01X-1701226Y2131595D01*
G01X-1701307Y2131530D01*
G01X-1701387Y2131465D01*
G01X-1701465Y2131398D01*
G01X-1701542Y2131330D01*
G01X-1701618Y2131260D01*
G01X-1701693Y2131189D01*
G01X-1701766Y2131117D01*
G01X-1701839Y2131043D01*
G01X-1701910Y2130968D01*
G01X-1701979Y2130893D01*
G01X-1702047Y2130815D01*
G01X-1702114Y2130737D01*
G01X-1702180Y2130657D01*
G01X-1702244Y2130577D01*
G01X-1702307Y2130495D01*
G01X-1702368Y2130412D01*
G01X-1702428Y2130328D01*
G01X-1702486Y2130243D01*
G01X-1702543Y2130157D01*
G01X-1702599Y2130070D01*
G01X-1702653Y2129983D01*
G01X-1702705Y2129894D01*
G01X-1702756Y2129804D01*
G01X-1702805Y2129713D01*
G01X-1702852Y2129622D01*
G01X-1702898Y2129530D01*
G01X-1702943Y2129437D01*
G01X-1702986Y2129343D01*
G01X-1703027Y2129248D01*
G01X-1703066Y2129153D01*
G01X-1703104Y2129057D01*
G01X-1703140Y2128961D01*
G01X-1703174Y2128864D01*
G01X-1703207Y2128766D01*
G01X-1703238Y2128668D01*
G01X-1703267Y2128569D01*
G01X-1703295Y2128469D01*
G01X-1703321Y2128370D01*
G01X-1703345Y2128269D01*
G01X-1703367Y2128169D01*
G01X-1703388Y2128068D01*
G01X-1703406Y2127966D01*
G01X-1703423Y2127865D01*
G01X-1703439Y2127763D01*
G01X-1703452Y2127661D01*
G01X-1703464Y2127558D01*
G01X-1703474Y2127456D01*
G01X-1703482Y2127353D01*
G01X-1703488Y2127250D01*
G01X-1703492Y2127147D01*
G01X-1703495Y2127044D01*
G01X-1703496Y2126941D01*
G01Y1902531D01*
G37*
M02*

