G04 ===== Begin FILE IDENTIFICATION =====*
G04 File Format:  Gerber RS274X*
G04 ===== End FILE IDENTIFICATION =====*
%FSLAX66Y66*%
%MOIN*%
%SFA1.0000B1.0000*%
%OFA0.0B0.0*%
%ADD14R,0.064685X0.112906*%
%ADD15R,0.050799X0.049409*%
%ADD16R,0.039516X0.039516*%
%ADD17R,0.039480X0.039480*%
%ADD18R,0.045701X0.078740*%
%ADD19R,0.118039X0.078740*%
%ADD20R,0.118110X0.078740*%
%ADD21R,0.057331X0.112906*%
%ADD22R,0.025591X0.027559*%
%ADD23C,0.019685*%
%ADD24C,0.039370*%
%ADD25C,0.125984*%
%ADD26R,0.041339X0.062992*%
%ADD27C,0.070866*%
%ADD28C,0.102362*%
%ADD29C,0.188976*%
%LNsolder_mask*%
%IPPOS*%
%LPD*%
G75*
D14*
X-104504Y399764D03*
D15*
X-1275352Y1160177D03*
X-1802530Y1181110D03*
D16*
X-1833510Y436459D03*
D17*
X-1833638Y495642D03*
D18*
X-1740925Y399764D03*
D19*
X-1359772D03*
D20*
X-1639335D03*
G36*
G01X-917461Y380079D02*
G01X-957004D01*
G01Y419535D01*
G01X-917461Y419449D01*
G01Y380079D01*
G37*
G36*
G01X-858142Y419449D02*
G01Y380079D01*
G01X-897776D01*
G01Y419500D01*
G01X-858142Y419449D01*
G37*
G36*
G01X-2110331Y419449D02*
G01Y380079D01*
G01X-2149965D01*
G01Y419500D01*
G01X-2110331Y419449D01*
G37*
G36*
G01X-2169650Y419449D02*
G01Y380079D01*
G01X-2209283D01*
G01Y419500D01*
G01X-2169650Y419449D01*
G37*
D21*
X-2898224Y399764D03*
D22*
X-1201976Y1359382D03*
D23*
X-1933976Y1380378D03*
D24*
X-1143906Y1359382D03*
D23*
D03*
D24*
X-1933976Y1380378D03*
D25*
X-751472Y960787D03*
D26*
X-1286622Y1359382D03*
D22*
X-1929055Y1380378D03*
D23*
X-1407685Y1359382D03*
D22*
X-1875906Y1380378D03*
D24*
X-1340122Y1155291D03*
D23*
D03*
D26*
X-1791260Y1380378D03*
X-1675118D03*
D24*
X-1670197D03*
D23*
D03*
D26*
X-1402764Y1359382D03*
D22*
X-1148827D03*
D24*
X-1737760Y1176287D03*
D23*
D03*
D24*
X-1407685Y1359382D03*
X-1626724Y1973398D03*
X-1526724D03*
X-1426724D03*
Y2073398D03*
X-1526724D03*
X-1626724D03*
D27*
D03*
X-1526724D03*
X-1426724D03*
Y1973398D03*
X-1526724D03*
X-1626724D03*
D28*
X-2247535Y1708819D03*
D29*
X-2483756Y1571024D03*
X-515252D03*
D28*
X-1873520Y1708819D03*
X-1125488D03*
X-751472D03*
X-2621551Y-161260D03*
Y212756D03*
Y586772D03*
Y960787D03*
Y1334803D03*
X-377457Y212756D03*
Y-161260D03*
Y1334803D03*
Y960787D03*
Y586772D03*
D25*
X-2247535Y960787D03*
Y-161260D03*
X-1499504D03*
X-1125488D03*
X-751472D03*
M02*

