G04 ===== Begin FILE IDENTIFICATION =====*
G04 File Format:  Gerber RS274X*
G04 ===== End FILE IDENTIFICATION =====*
%FSLAX66Y66*%
%MOIN*%
%SFA1.0000B1.0000*%
%OFA0.0B0.0*%
%ADD14C,0.039370*%
%ADD15C,0.019685*%
%ADD16C,0.070866*%
%LNcond2*%
%IPPOS*%
%LPD*%
G75*
D14*
X164492Y623193D03*
D15*
D03*
D14*
X428272D03*
D15*
D03*
D14*
X232055Y419102D03*
D15*
D03*
D14*
X-361799Y644189D03*
D15*
D03*
D14*
X-98020D03*
D15*
D03*
D14*
X-165583Y440098D03*
D15*
D03*
D14*
X-101827Y1321768D03*
D16*
D03*
D14*
X-1827D03*
D16*
D03*
D14*
X98173D03*
D16*
D03*
D14*
Y1421768D03*
D16*
D03*
D14*
X-1827D03*
D16*
D03*
D14*
X-101827D03*
D16*
D03*
G36*
G01X-212063Y1187909D02*
G01X217071D01*
G01Y1526492D01*
G01X98961D01*
G01Y1380823D01*
G01X99991Y1380814D01*
G01X101022Y1380787D01*
G01X102051Y1380742D01*
G01X103080Y1380679D01*
G01X104108Y1380598D01*
G01X105134Y1380499D01*
G01X106158Y1380383D01*
G01X107180Y1380248D01*
G01X108199Y1380096D01*
G01X109215Y1379926D01*
G01X110229Y1379738D01*
G01X111239Y1379532D01*
G01X112245Y1379309D01*
G01X113247Y1379069D01*
G01X114245Y1378811D01*
G01X115238Y1378535D01*
G01X116227Y1378242D01*
G01X117210Y1377932D01*
G01X118187Y1377605D01*
G01X119159Y1377261D01*
G01X120124Y1376900D01*
G01X121083Y1376523D01*
G01X122035Y1376128D01*
G01X122981Y1375717D01*
G01X123918Y1375290D01*
G01X124849Y1374846D01*
G01X125771Y1374386D01*
G01X126685Y1373910D01*
G01X127591Y1373418D01*
G01X128488Y1372911D01*
G01X129376Y1372388D01*
G01X130255Y1371849D01*
G01X131124Y1371296D01*
G01X131984Y1370727D01*
G01X132833Y1370143D01*
G01X133672Y1369544D01*
G01X134501Y1368931D01*
G01X135319Y1368304D01*
G01X136125Y1367662D01*
G01X136921Y1367007D01*
G01X137704Y1366337D01*
G01X138476Y1365654D01*
G01X139236Y1364958D01*
G01X139984Y1364248D01*
G01X140719Y1363526D01*
G01X141441Y1362791D01*
G01X142151Y1362043D01*
G01X142847Y1361283D01*
G01X143530Y1360511D01*
G01X144199Y1359728D01*
G01X144855Y1358932D01*
G01X145497Y1358126D01*
G01X146124Y1357308D01*
G01X146737Y1356479D01*
G01X147336Y1355640D01*
G01X147920Y1354791D01*
G01X148488Y1353931D01*
G01X149042Y1353062D01*
G01X149581Y1352183D01*
G01X150104Y1351295D01*
G01X150611Y1350398D01*
G01X151103Y1349492D01*
G01X151579Y1348578D01*
G01X152039Y1347656D01*
G01X152483Y1346725D01*
G01X152910Y1345788D01*
G01X153321Y1344842D01*
G01X153716Y1343890D01*
G01X154093Y1342931D01*
G01X154454Y1341966D01*
G01X154798Y1340994D01*
G01X155125Y1340017D01*
G01X155435Y1339034D01*
G01X155728Y1338046D01*
G01X156003Y1337052D01*
G01X156262Y1336054D01*
G01X156502Y1335052D01*
G01X156725Y1334046D01*
G01X156931Y1333036D01*
G01X157119Y1332023D01*
G01X157289Y1331006D01*
G01X157441Y1329987D01*
G01X157576Y1328965D01*
G01X157692Y1327941D01*
G01X157791Y1326915D01*
G01X157872Y1325887D01*
G01X157935Y1324858D01*
G01X157980Y1323829D01*
G01X158007Y1322798D01*
G01X158016Y1321768D01*
G01X158007Y1320737D01*
G01X157980Y1319707D01*
G01X157935Y1318677D01*
G01X157872Y1317648D01*
G01X157791Y1316621D01*
G01X157692Y1315595D01*
G01X157576Y1314571D01*
G01X157441Y1313549D01*
G01X157289Y1312529D01*
G01X157119Y1311513D01*
G01X156931Y1310499D01*
G01X156725Y1309489D01*
G01X156502Y1308483D01*
G01X156262Y1307481D01*
G01X156003Y1306483D01*
G01X155728Y1305490D01*
G01X155435Y1304502D01*
G01X155125Y1303519D01*
G01X154798Y1302541D01*
G01X154454Y1301570D01*
G01X154093Y1300604D01*
G01X153716Y1299645D01*
G01X153321Y1298693D01*
G01X152910Y1297748D01*
G01X152483Y1296810D01*
G01X152039Y1295880D01*
G01X151579Y1294957D01*
G01X151103Y1294043D01*
G01X150611Y1293137D01*
G01X150104Y1292240D01*
G01X149581Y1291352D01*
G01X149042Y1290473D01*
G01X148488Y1289604D01*
G01X147920Y1288745D01*
G01X147336Y1287895D01*
G01X146737Y1287056D01*
G01X146124Y1286227D01*
G01X145497Y1285410D01*
G01X144855Y1284603D01*
G01X144199Y1283808D01*
G01X143530Y1283024D01*
G01X142847Y1282252D01*
G01X142151Y1281492D01*
G01X141441Y1280745D01*
G01X140719Y1280009D01*
G01X139984Y1279287D01*
G01X139236Y1278578D01*
G01X138476Y1277881D01*
G01X137704Y1277198D01*
G01X136921Y1276529D01*
G01X136125Y1275873D01*
G01X135319Y1275232D01*
G01X134501Y1274604D01*
G01X133672Y1273991D01*
G01X132833Y1273393D01*
G01X131984Y1272809D01*
G01X131124Y1272240D01*
G01X130255Y1271686D01*
G01X129376Y1271148D01*
G01X128488Y1270624D01*
G01X127591Y1270117D01*
G01X126685Y1269625D01*
G01X125771Y1269149D01*
G01X124849Y1268689D01*
G01X123918Y1268246D01*
G01X122981Y1267818D01*
G01X122035Y1267407D01*
G01X121083Y1267013D01*
G01X120124Y1266635D01*
G01X119159Y1266274D01*
G01X118187Y1265930D01*
G01X117210Y1265603D01*
G01X116227Y1265293D01*
G01X115238Y1265000D01*
G01X114245Y1264725D01*
G01X113247Y1264467D01*
G01X112245Y1264226D01*
G01X111239Y1264003D01*
G01X110229Y1263798D01*
G01X109215Y1263610D01*
G01X108199Y1263440D01*
G01X107180Y1263287D01*
G01X106158Y1263153D01*
G01X105134Y1263036D01*
G01X104108Y1262937D01*
G01X103080Y1262856D01*
G01X102051Y1262794D01*
G01X101022Y1262749D01*
G01X99991Y1262722D01*
G01X98961Y1262713D01*
G01X97930Y1262722D01*
G01X96900Y1262749D01*
G01X95870Y1262794D01*
G01X94841Y1262856D01*
G01X93814Y1262937D01*
G01X92788Y1263036D01*
G01X91764Y1263153D01*
G01X90742Y1263287D01*
G01X89722Y1263440D01*
G01X88706Y1263610D01*
G01X87692Y1263798D01*
G01X86682Y1264003D01*
G01X85676Y1264226D01*
G01X84674Y1264467D01*
G01X83676Y1264725D01*
G01X82683Y1265000D01*
G01X81695Y1265293D01*
G01X80712Y1265603D01*
G01X79734Y1265930D01*
G01X78763Y1266274D01*
G01X77797Y1266635D01*
G01X76838Y1267013D01*
G01X75886Y1267407D01*
G01X74941Y1267818D01*
G01X74003Y1268246D01*
G01X73073Y1268689D01*
G01X72150Y1269149D01*
G01X71236Y1269625D01*
G01X70330Y1270117D01*
G01X69433Y1270624D01*
G01X68545Y1271148D01*
G01X67666Y1271686D01*
G01X66797Y1272240D01*
G01X65937Y1272809D01*
G01X65088Y1273393D01*
G01X64249Y1273991D01*
G01X63420Y1274604D01*
G01X62603Y1275232D01*
G01X61796Y1275873D01*
G01X61001Y1276529D01*
G01X60217Y1277198D01*
G01X59445Y1277881D01*
G01X58685Y1278578D01*
G01X57937Y1279287D01*
G01X57202Y1280009D01*
G01X56480Y1280745D01*
G01X55770Y1281492D01*
G01X55074Y1282252D01*
G01X54391Y1283024D01*
G01X53722Y1283808D01*
G01X53066Y1284603D01*
G01X52425Y1285410D01*
G01X51797Y1286227D01*
G01X51184Y1287056D01*
G01X50586Y1287895D01*
G01X50002Y1288745D01*
G01X49433Y1289604D01*
G01X48879Y1290473D01*
G01X48341Y1291352D01*
G01X47817Y1292240D01*
G01X47310Y1293137D01*
G01X46818Y1294043D01*
G01X46342Y1294957D01*
G01X45882Y1295880D01*
G01X45439Y1296810D01*
G01X45011Y1297748D01*
G01X44600Y1298693D01*
G01X44206Y1299645D01*
G01X43828Y1300604D01*
G01X43467Y1301570D01*
G01X43123Y1302541D01*
G01X42796Y1303519D01*
G01X42486Y1304502D01*
G01X42193Y1305490D01*
G01X41918Y1306483D01*
G01X41660Y1307481D01*
G01X41419Y1308483D01*
G01X41196Y1309489D01*
G01X40991Y1310499D01*
G01X40803Y1311513D01*
G01X40633Y1312529D01*
G01X40480Y1313549D01*
G01X40346Y1314571D01*
G01X40229Y1315595D01*
G01X40130Y1316621D01*
G01X40049Y1317648D01*
G01X39986Y1318677D01*
G01X39941Y1319707D01*
G01X39915Y1320737D01*
G01X39906Y1321768D01*
G01X39915Y1322798D01*
G01X39941Y1323829D01*
G01X39986Y1324858D01*
G01X40049Y1325887D01*
G01X40130Y1326915D01*
G01X40229Y1327941D01*
G01X40346Y1328965D01*
G01X40480Y1329987D01*
G01X40633Y1331006D01*
G01X40803Y1332023D01*
G01X40991Y1333036D01*
G01X41196Y1334046D01*
G01X41419Y1335052D01*
G01X41660Y1336054D01*
G01X41918Y1337052D01*
G01X42193Y1338046D01*
G01X42486Y1339034D01*
G01X42796Y1340017D01*
G01X43123Y1340994D01*
G01X43467Y1341966D01*
G01X43828Y1342931D01*
G01X44206Y1343890D01*
G01X44600Y1344842D01*
G01X45011Y1345788D01*
G01X45439Y1346725D01*
G01X45882Y1347656D01*
G01X46342Y1348578D01*
G01X46818Y1349492D01*
G01X47310Y1350398D01*
G01X47817Y1351295D01*
G01X48341Y1352183D01*
G01X48879Y1353062D01*
G01X49433Y1353931D01*
G01X50002Y1354791D01*
G01X50586Y1355640D01*
G01X51184Y1356479D01*
G01X51797Y1357308D01*
G01X52425Y1358126D01*
G01X53066Y1358932D01*
G01X53722Y1359728D01*
G01X54391Y1360511D01*
G01X55074Y1361283D01*
G01X55770Y1362043D01*
G01X56480Y1362791D01*
G01X57202Y1363526D01*
G01X57937Y1364248D01*
G01X58685Y1364958D01*
G01X59445Y1365654D01*
G01X60217Y1366337D01*
G01X61001Y1367007D01*
G01X61796Y1367662D01*
G01X62603Y1368304D01*
G01X63420Y1368931D01*
G01X64249Y1369544D01*
G01X65088Y1370143D01*
G01X65937Y1370727D01*
G01X66797Y1371296D01*
G01X67666Y1371849D01*
G01X68545Y1372388D01*
G01X69433Y1372911D01*
G01X70330Y1373418D01*
G01X71236Y1373910D01*
G01X72150Y1374386D01*
G01X73073Y1374846D01*
G01X74003Y1375290D01*
G01X74941Y1375717D01*
G01X75886Y1376128D01*
G01X76838Y1376523D01*
G01X77797Y1376900D01*
G01X78763Y1377261D01*
G01X79734Y1377605D01*
G01X80712Y1377932D01*
G01X81695Y1378242D01*
G01X82683Y1378535D01*
G01X83676Y1378811D01*
G01X84674Y1379069D01*
G01X85676Y1379309D01*
G01X86682Y1379532D01*
G01X87692Y1379738D01*
G01X88706Y1379926D01*
G01X89722Y1380096D01*
G01X90742Y1380248D01*
G01X91764Y1380383D01*
G01X92788Y1380499D01*
G01X93814Y1380598D01*
G01X94841Y1380679D01*
G01X95870Y1380742D01*
G01X96900Y1380787D01*
G01X97930Y1380814D01*
G01X98961Y1380823D01*
G01Y1526492D01*
G01X-101827D01*
G01Y1380823D01*
G01X-100796Y1380814D01*
G01X-99766Y1380787D01*
G01X-98736Y1380742D01*
G01X-97707Y1380679D01*
G01X-96680Y1380598D01*
G01X-95654Y1380499D01*
G01X-94630Y1380383D01*
G01X-93608Y1380248D01*
G01X-92589Y1380096D01*
G01X-91572Y1379926D01*
G01X-90559Y1379738D01*
G01X-89549Y1379532D01*
G01X-88542Y1379309D01*
G01X-87540Y1379069D01*
G01X-86542Y1378811D01*
G01X-85549Y1378535D01*
G01X-84561Y1378242D01*
G01X-83578Y1377932D01*
G01X-82600Y1377605D01*
G01X-81629Y1377261D01*
G01X-80663Y1376900D01*
G01X-79704Y1376523D01*
G01X-78752Y1376128D01*
G01X-77807Y1375717D01*
G01X-76869Y1375290D01*
G01X-75939Y1374846D01*
G01X-75016Y1374386D01*
G01X-74102Y1373910D01*
G01X-73196Y1373418D01*
G01X-72299Y1372911D01*
G01X-71411Y1372388D01*
G01X-70532Y1371849D01*
G01X-69663Y1371296D01*
G01X-68804Y1370727D01*
G01X-67954Y1370143D01*
G01X-67115Y1369544D01*
G01X-66287Y1368931D01*
G01X-65469Y1368304D01*
G01X-64662Y1367662D01*
G01X-63867Y1367007D01*
G01X-63083Y1366337D01*
G01X-62311Y1365654D01*
G01X-61551Y1364958D01*
G01X-60804Y1364248D01*
G01X-60068Y1363526D01*
G01X-59346Y1362791D01*
G01X-58637Y1362043D01*
G01X-57940Y1361283D01*
G01X-57257Y1360511D01*
G01X-56588Y1359728D01*
G01X-55932Y1358932D01*
G01X-55291Y1358126D01*
G01X-54663Y1357308D01*
G01X-54050Y1356479D01*
G01X-53452Y1355640D01*
G01X-52868Y1354791D01*
G01X-52299Y1353931D01*
G01X-51745Y1353062D01*
G01X-51207Y1352183D01*
G01X-50684Y1351295D01*
G01X-50176Y1350398D01*
G01X-49684Y1349492D01*
G01X-49208Y1348578D01*
G01X-48748Y1347656D01*
G01X-48305Y1346725D01*
G01X-47877Y1345788D01*
G01X-47466Y1344842D01*
G01X-47072Y1343890D01*
G01X-46694Y1342931D01*
G01X-46333Y1341966D01*
G01X-45989Y1340994D01*
G01X-45662Y1340017D01*
G01X-45352Y1339034D01*
G01X-45059Y1338046D01*
G01X-44784Y1337052D01*
G01X-44526Y1336054D01*
G01X-44285Y1335052D01*
G01X-44062Y1334046D01*
G01X-43857Y1333036D01*
G01X-43669Y1332023D01*
G01X-43499Y1331006D01*
G01X-43346Y1329987D01*
G01X-43212Y1328965D01*
G01X-43095Y1327941D01*
G01X-42996Y1326915D01*
G01X-42916Y1325887D01*
G01X-42853Y1324858D01*
G01X-42808Y1323829D01*
G01X-42781Y1322798D01*
G01X-42772Y1321768D01*
G01X-42781Y1320737D01*
G01X-42808Y1319707D01*
G01X-42853Y1318677D01*
G01X-42916Y1317648D01*
G01X-42996Y1316621D01*
G01X-43095Y1315595D01*
G01X-43212Y1314571D01*
G01X-43346Y1313549D01*
G01X-43499Y1312529D01*
G01X-43669Y1311513D01*
G01X-43857Y1310499D01*
G01X-44062Y1309489D01*
G01X-44285Y1308483D01*
G01X-44526Y1307481D01*
G01X-44784Y1306483D01*
G01X-45059Y1305490D01*
G01X-45352Y1304502D01*
G01X-45662Y1303519D01*
G01X-45989Y1302541D01*
G01X-46333Y1301570D01*
G01X-46694Y1300604D01*
G01X-47072Y1299645D01*
G01X-47466Y1298693D01*
G01X-47877Y1297748D01*
G01X-48305Y1296810D01*
G01X-48748Y1295880D01*
G01X-49208Y1294957D01*
G01X-49684Y1294043D01*
G01X-50176Y1293137D01*
G01X-50684Y1292240D01*
G01X-51207Y1291352D01*
G01X-51745Y1290473D01*
G01X-52299Y1289604D01*
G01X-52868Y1288745D01*
G01X-53452Y1287895D01*
G01X-54050Y1287056D01*
G01X-54663Y1286227D01*
G01X-55291Y1285410D01*
G01X-55932Y1284603D01*
G01X-56588Y1283808D01*
G01X-57257Y1283024D01*
G01X-57940Y1282252D01*
G01X-58637Y1281492D01*
G01X-59346Y1280745D01*
G01X-60068Y1280009D01*
G01X-60804Y1279287D01*
G01X-61551Y1278578D01*
G01X-62311Y1277881D01*
G01X-63083Y1277198D01*
G01X-63867Y1276529D01*
G01X-64662Y1275873D01*
G01X-65469Y1275232D01*
G01X-66287Y1274604D01*
G01X-67115Y1273991D01*
G01X-67954Y1273393D01*
G01X-68804Y1272809D01*
G01X-69663Y1272240D01*
G01X-70532Y1271686D01*
G01X-71411Y1271148D01*
G01X-72299Y1270624D01*
G01X-73196Y1270117D01*
G01X-74102Y1269625D01*
G01X-75016Y1269149D01*
G01X-75939Y1268689D01*
G01X-76869Y1268246D01*
G01X-77807Y1267818D01*
G01X-78752Y1267407D01*
G01X-79704Y1267013D01*
G01X-80663Y1266635D01*
G01X-81629Y1266274D01*
G01X-82600Y1265930D01*
G01X-83578Y1265603D01*
G01X-84561Y1265293D01*
G01X-85549Y1265000D01*
G01X-86542Y1264725D01*
G01X-87540Y1264467D01*
G01X-88542Y1264226D01*
G01X-89549Y1264003D01*
G01X-90559Y1263798D01*
G01X-91572Y1263610D01*
G01X-92589Y1263440D01*
G01X-93608Y1263287D01*
G01X-94630Y1263153D01*
G01X-95654Y1263036D01*
G01X-96680Y1262937D01*
G01X-97707Y1262856D01*
G01X-98736Y1262794D01*
G01X-99766Y1262749D01*
G01X-100796Y1262722D01*
G01X-101827Y1262713D01*
G01X-102857Y1262722D01*
G01X-103888Y1262749D01*
G01X-104917Y1262794D01*
G01X-105946Y1262856D01*
G01X-106974Y1262937D01*
G01X-108000Y1263036D01*
G01X-109024Y1263153D01*
G01X-110046Y1263287D01*
G01X-111065Y1263440D01*
G01X-112082Y1263610D01*
G01X-113095Y1263798D01*
G01X-114105Y1264003D01*
G01X-115111Y1264226D01*
G01X-116113Y1264467D01*
G01X-117111Y1264725D01*
G01X-118105Y1265000D01*
G01X-119093Y1265293D01*
G01X-120076Y1265603D01*
G01X-121053Y1265930D01*
G01X-122025Y1266274D01*
G01X-122990Y1266635D01*
G01X-123949Y1267013D01*
G01X-124901Y1267407D01*
G01X-125847Y1267818D01*
G01X-126785Y1268246D01*
G01X-127715Y1268689D01*
G01X-128637Y1269149D01*
G01X-129551Y1269625D01*
G01X-130457Y1270117D01*
G01X-131354Y1270624D01*
G01X-132242Y1271148D01*
G01X-133121Y1271686D01*
G01X-133990Y1272240D01*
G01X-134850Y1272809D01*
G01X-135699Y1273393D01*
G01X-136538Y1273991D01*
G01X-137367Y1274604D01*
G01X-138185Y1275232D01*
G01X-138991Y1275873D01*
G01X-139787Y1276529D01*
G01X-140570Y1277198D01*
G01X-141342Y1277881D01*
G01X-142102Y1278578D01*
G01X-142850Y1279287D01*
G01X-143585Y1280009D01*
G01X-144307Y1280745D01*
G01X-145017Y1281492D01*
G01X-145713Y1282252D01*
G01X-146396Y1283024D01*
G01X-147066Y1283808D01*
G01X-147721Y1284603D01*
G01X-148363Y1285410D01*
G01X-148990Y1286227D01*
G01X-149603Y1287056D01*
G01X-150202Y1287895D01*
G01X-150786Y1288745D01*
G01X-151355Y1289604D01*
G01X-151908Y1290473D01*
G01X-152447Y1291352D01*
G01X-152970Y1292240D01*
G01X-153478Y1293137D01*
G01X-153969Y1294043D01*
G01X-154445Y1294957D01*
G01X-154905Y1295880D01*
G01X-155349Y1296810D01*
G01X-155776Y1297748D01*
G01X-156187Y1298693D01*
G01X-156582Y1299645D01*
G01X-156959Y1300604D01*
G01X-157320Y1301570D01*
G01X-157664Y1302541D01*
G01X-157992Y1303519D01*
G01X-158301Y1304502D01*
G01X-158594Y1305490D01*
G01X-158870Y1306483D01*
G01X-159128Y1307481D01*
G01X-159368Y1308483D01*
G01X-159591Y1309489D01*
G01X-159797Y1310499D01*
G01X-159985Y1311513D01*
G01X-160155Y1312529D01*
G01X-160307Y1313549D01*
G01X-160442Y1314571D01*
G01X-160558Y1315595D01*
G01X-160657Y1316621D01*
G01X-160738Y1317648D01*
G01X-160801Y1318677D01*
G01X-160846Y1319707D01*
G01X-160873Y1320737D01*
G01X-160882Y1321768D01*
G01X-160873Y1322798D01*
G01X-160846Y1323829D01*
G01X-160801Y1324858D01*
G01X-160738Y1325887D01*
G01X-160657Y1326915D01*
G01X-160558Y1327941D01*
G01X-160442Y1328965D01*
G01X-160307Y1329987D01*
G01X-160155Y1331006D01*
G01X-159985Y1332023D01*
G01X-159797Y1333036D01*
G01X-159591Y1334046D01*
G01X-159368Y1335052D01*
G01X-159128Y1336054D01*
G01X-158870Y1337052D01*
G01X-158594Y1338046D01*
G01X-158301Y1339034D01*
G01X-157992Y1340017D01*
G01X-157664Y1340994D01*
G01X-157320Y1341966D01*
G01X-156959Y1342931D01*
G01X-156582Y1343890D01*
G01X-156187Y1344842D01*
G01X-155776Y1345788D01*
G01X-155349Y1346725D01*
G01X-154905Y1347656D01*
G01X-154445Y1348578D01*
G01X-153969Y1349492D01*
G01X-153478Y1350398D01*
G01X-152970Y1351295D01*
G01X-152447Y1352183D01*
G01X-151908Y1353062D01*
G01X-151355Y1353931D01*
G01X-150786Y1354791D01*
G01X-150202Y1355640D01*
G01X-149603Y1356479D01*
G01X-148990Y1357308D01*
G01X-148363Y1358126D01*
G01X-147721Y1358932D01*
G01X-147066Y1359728D01*
G01X-146396Y1360511D01*
G01X-145713Y1361283D01*
G01X-145017Y1362043D01*
G01X-144307Y1362791D01*
G01X-143585Y1363526D01*
G01X-142850Y1364248D01*
G01X-142102Y1364958D01*
G01X-141342Y1365654D01*
G01X-140570Y1366337D01*
G01X-139787Y1367007D01*
G01X-138991Y1367662D01*
G01X-138185Y1368304D01*
G01X-137367Y1368931D01*
G01X-136538Y1369544D01*
G01X-135699Y1370143D01*
G01X-134850Y1370727D01*
G01X-133990Y1371296D01*
G01X-133121Y1371849D01*
G01X-132242Y1372388D01*
G01X-131354Y1372911D01*
G01X-130457Y1373418D01*
G01X-129551Y1373910D01*
G01X-128637Y1374386D01*
G01X-127715Y1374846D01*
G01X-126785Y1375290D01*
G01X-125847Y1375717D01*
G01X-124901Y1376128D01*
G01X-123949Y1376523D01*
G01X-122990Y1376900D01*
G01X-122025Y1377261D01*
G01X-121053Y1377605D01*
G01X-120076Y1377932D01*
G01X-119093Y1378242D01*
G01X-118105Y1378535D01*
G01X-117111Y1378811D01*
G01X-116113Y1379069D01*
G01X-115111Y1379309D01*
G01X-114105Y1379532D01*
G01X-113095Y1379738D01*
G01X-112082Y1379926D01*
G01X-111065Y1380096D01*
G01X-110046Y1380248D01*
G01X-109024Y1380383D01*
G01X-108000Y1380499D01*
G01X-106974Y1380598D01*
G01X-105946Y1380679D01*
G01X-104917Y1380742D01*
G01X-103888Y1380787D01*
G01X-102857Y1380814D01*
G01X-101827Y1380823D01*
G01Y1526492D01*
G01X-212063D01*
G01Y1187909D01*
G37*
G36*
G01X-1354543Y-1013154D02*
G01X1422181D01*
G01Y1607378D01*
G01X-184236D01*
G01Y1491744D01*
G01X203051D01*
G01Y1218697D01*
G01X-8102D01*
G01Y-41256D01*
G01X153315D01*
G01Y-631807D01*
G01X-8102D01*
G01Y-41256D01*
G01Y1218697D01*
G01X-184236D01*
G01Y1491744D01*
G01Y1607378D01*
G01X-1354543D01*
G01Y-1013154D01*
G37*
M02*

