G04 ===== Begin FILE IDENTIFICATION =====*
G04 File Format:  Gerber RS274X*
G04 ===== End FILE IDENTIFICATION =====*
%FSLAX66Y66*%
%MOIN*%
%SFA1.0000B1.0000*%
%OFA0.0B0.0*%
%ADD14R,0.098425X0.112906*%
%ADD15R,0.041339X0.062992*%
%ADD16C,0.039370*%
%ADD17C,0.019685*%
%ADD18R,0.025591X0.027559*%
%ADD19R,0.059055X0.078740*%
%ADD20R,0.059055X0.118110*%
%ADD21R,0.112906X0.643933*%
%ADD22R,0.643933X0.112906*%
%ADD23R,0.118110X0.078740*%
%ADD24C,0.000984*%
%ADD25R,0.087969X0.112906*%
%ADD26R,0.698016X0.112906*%
%ADD27R,0.112906X0.470594*%
%ADD28R,0.112906X0.345551*%
%ADD29C,0.070866*%
%ADD30R,0.688189X0.112906*%
%ADD31C,0.102362*%
%ADD32C,0.188976*%
%ADD33C,0.125984*%
%LNcond*%
%IPPOS*%
%LPD*%
G75*
G36*
G01X733457Y-392878D02*
G01Y-279972D01*
G01X674402Y-316740D01*
G01Y-356110D01*
G01X733457Y-392878D01*
G37*
G36*
G01X595661Y-279972D02*
G01Y-392878D01*
G01X654717Y-356110D01*
G01Y-316740D01*
G01X595661Y-279972D01*
G37*
G36*
G01X482756Y-279972D02*
G01Y-392878D01*
G01X595661D01*
G01Y-279972D01*
G01X482756D01*
G37*
D14*
X433543Y-336425D03*
G36*
G01X384331Y-392878D02*
G01Y-279972D01*
G01X271425D01*
G01Y-375795D01*
G01X327878D01*
G01Y-392878D01*
G01X384331D01*
G37*
D15*
X285555Y623193D03*
X169413D03*
D16*
X164492D03*
D17*
D03*
G36*
G01X290476Y593665D02*
G01X365280D01*
G01Y652720D01*
G01X290476D01*
G01Y593665D01*
G37*
D18*
X370201Y623193D03*
X423350D03*
D16*
X428272D03*
D17*
D03*
D19*
X327878Y692091D03*
D20*
Y534610D03*
G36*
G01X271425Y448630D02*
G01Y362650D01*
G01X384331D01*
G01Y475555D01*
G01X298350D01*
G01Y448630D01*
G01X271425D01*
G37*
D21*
X327878Y40683D03*
D22*
X706297Y419102D03*
D16*
X232055D03*
D17*
D03*
D23*
X212370Y-336425D03*
X-67157D03*
D24*
G01X-145898Y-356110D02*
G01X-126213D01*
G01Y-316740D01*
G01X-145898D01*
G01Y-356110D01*

G01X-126213Y-316740D01*
G01X-145898D02*
G01X-126213Y-356110D01*
D19*
X-175425Y-336425D03*
G36*
G01X-204953Y-375795D02*
G01Y-279972D01*
G01X-317858D01*
G01Y-392878D01*
G01X-261406D01*
G01Y-375795D01*
G01X-204953D01*
G37*
D24*
G01X-281091Y-260287D02*
G01Y-279972D01*
G01X-241720D01*
G01Y-260287D01*
G01X-281091D01*

G01X-241720Y-279972D01*
G01Y-260287D02*
G01X-281091Y-279972D01*
D19*
X-261406Y713087D03*
G36*
G01X-224004Y614661D02*
G01X-298807D01*
G01Y673717D01*
G01X-224004D01*
G01Y614661D01*
G37*
D18*
X-303728Y644189D03*
X-356878D03*
D16*
X-361799D03*
D17*
D03*
D15*
X-219083D03*
X-102941D03*
D16*
X-98020D03*
D17*
D03*
D20*
X-261406Y555606D03*
G36*
G01X-204953Y469626D02*
G01Y383646D01*
G01X-317858D01*
G01Y496551D01*
G01X-231878D01*
G01Y469626D01*
G01X-204953D01*
G37*
D22*
X-639825Y440098D03*
D16*
X-165583D03*
D17*
D03*
D21*
X-261406Y61679D03*
D25*
X-361843Y-336425D03*
G36*
G01X-518732Y-279972D02*
G01Y-392878D01*
G01X-405827D01*
G01Y-279972D01*
G01X-518732D01*
G37*
G36*
G01X-518732Y-392878D02*
G01Y-279972D01*
G01X-577787Y-316740D01*
G01Y-356110D01*
G01X-518732Y-392878D01*
G37*
G36*
G01X-656528Y-279972D02*
G01Y-392878D01*
G01X-597472Y-356110D01*
G01Y-316740D01*
G01X-656528Y-279972D01*
G37*
D26*
X-1005535Y-336425D03*
D27*
X-462280Y-628175D03*
D28*
X539209Y-565654D03*
D16*
X-101827Y1321768D03*
X-1827D03*
X98173D03*
Y1421768D03*
X-1827D03*
X-101827D03*
D29*
D03*
X-1827D03*
X98173D03*
Y1321768D03*
X-1827D03*
X-101827D03*
D30*
X1077551Y-336425D03*
D31*
X1194654Y598508D03*
Y224492D03*
Y-149524D03*
Y-523539D03*
Y-897555D03*
D32*
X1056858Y834728D03*
D31*
X820638Y972524D03*
D33*
Y598508D03*
Y224492D03*
Y-149524D03*
Y-523539D03*
Y-897555D03*
D31*
X446622Y972524D03*
D33*
Y-897555D03*
D31*
X72606Y972524D03*
D33*
Y224492D03*
Y-897555D03*
D31*
X-675425Y972524D03*
D33*
Y598508D03*
Y224492D03*
Y-149524D03*
Y-523539D03*
Y-897555D03*
D32*
X-911646Y834728D03*
D31*
X-1049441Y598508D03*
Y-149524D03*
Y224492D03*
G36*
G01X343626Y731461D02*
G01Y1124327D01*
G03X327878Y1140075I-15748J0D01*
G01X114229D01*
G01X113921Y1321794D01*
G03X82425Y1321741I-15748J-27D01*
G01X82760Y1124300D01*
G03X98508Y1108579I15748J27D01*
G01X312130D01*
G01Y731461D01*
G03X343626I15748J0D01*
G01X343626D01*
G37*
G36*
G01X-245657Y752457D02*
G01Y1107122D01*
G01X-100965D01*
G03X-85217Y1122938I0J15748D01*
G01X-86079Y1321836D01*
G03X-117575Y1321699I-15748J-68D01*
G01X-116781Y1138618D01*
G01X-261406D01*
G03X-277154Y1122870I0J-15748D01*
G01Y752457D01*
G03X-245657I15748J0D01*
G01X-245657D01*
G37*
D31*
X-1049441Y-897555D03*
Y-523539D03*
M02*

