G04 ===== Begin FILE IDENTIFICATION =====*
G04 File Format:  Gerber RS274X*
G04 ===== End FILE IDENTIFICATION =====*
%FSLAX66Y66*%
%MOIN*%
%SFA1.0000B1.0000*%
%OFA0.0B0.0*%
%ADD10C,0.000984*%
%LNsilk_screen*%
%IPPOS*%
%LPD*%
G75*
G36*
G01X-178598Y1250902D02*
G01Y1250799D01*
G01X-178595Y1250695D01*
G01X-178590Y1250593D01*
G01X-178584Y1250490D01*
G01X-178576Y1250387D01*
G01X-178566Y1250284D01*
G01X-178554Y1250182D01*
G01X-178541Y1250080D01*
G01X-178526Y1249978D01*
G01X-178509Y1249876D01*
G01X-178490Y1249775D01*
G01X-178469Y1249674D01*
G01X-178447Y1249573D01*
G01X-178423Y1249473D01*
G01X-178397Y1249373D01*
G01X-178370Y1249274D01*
G01X-178340Y1249175D01*
G01X-178309Y1249077D01*
G01X-178277Y1248979D01*
G01X-178242Y1248882D01*
G01X-178206Y1248785D01*
G01X-178168Y1248689D01*
G01X-178129Y1248594D01*
G01X-178088Y1248500D01*
G01X-178045Y1248406D01*
G01X-178001Y1248313D01*
G01X-177955Y1248221D01*
G01X-177907Y1248129D01*
G01X-177858Y1248039D01*
G01X-177807Y1247949D01*
G01X-177755Y1247860D01*
G01X-177701Y1247772D01*
G01X-177646Y1247685D01*
G01X-177589Y1247599D01*
G01X-177530Y1247514D01*
G01X-177471Y1247430D01*
G01X-177409Y1247348D01*
G01X-177347Y1247266D01*
G01X-177282Y1247185D01*
G01X-177217Y1247106D01*
G01X-177150Y1247027D01*
G01X-177082Y1246950D01*
G01X-177012Y1246874D01*
G01X-176941Y1246799D01*
G01X-176869Y1246726D01*
G01X-176795Y1246654D01*
G01X-176720Y1246583D01*
G01X-176644Y1246513D01*
G01X-176567Y1246445D01*
G01X-176489Y1246378D01*
G01X-176409Y1246312D01*
G01X-176329Y1246248D01*
G01X-176247Y1246185D01*
G01X-176164Y1246124D01*
G01X-176080Y1246064D01*
G01X-175995Y1246006D01*
G01X-175909Y1245949D01*
G01X-175822Y1245893D01*
G01X-175734Y1245840D01*
G01X-175646Y1245787D01*
G01X-175556Y1245736D01*
G01X-175465Y1245687D01*
G01X-175374Y1245640D01*
G01X-175282Y1245594D01*
G01X-175189Y1245549D01*
G01X-175095Y1245507D01*
G01X-175000Y1245466D01*
G01X-174905Y1245426D01*
G01X-174809Y1245388D01*
G01X-174713Y1245352D01*
G01X-174616Y1245318D01*
G01X-174518Y1245285D01*
G01X-174420Y1245254D01*
G01X-174321Y1245225D01*
G01X-174221Y1245197D01*
G01X-174122Y1245171D01*
G01X-174021Y1245147D01*
G01X-173921Y1245125D01*
G01X-173820Y1245105D01*
G01X-173718Y1245086D01*
G01X-173617Y1245069D01*
G01X-173515Y1245054D01*
G01X-173413Y1245040D01*
G01X-173310Y1245028D01*
G01X-173208Y1245019D01*
G01X-173105Y1245010D01*
G01X-173002Y1245004D01*
G01X-172899Y1245000D01*
G01X-172796Y1244997D01*
G01X-172693Y1244996D01*
G01X169827D01*
G01X169930Y1244997D01*
G01X170033Y1245000D01*
G01X170136Y1245004D01*
G01X170239Y1245010D01*
G01X170341Y1245019D01*
G01X170444Y1245028D01*
G01X170546Y1245040D01*
G01X170649Y1245054D01*
G01X170751Y1245069D01*
G01X170852Y1245086D01*
G01X170954Y1245105D01*
G01X171055Y1245125D01*
G01X171155Y1245147D01*
G01X171255Y1245171D01*
G01X171355Y1245197D01*
G01X171455Y1245225D01*
G01X171553Y1245254D01*
G01X171652Y1245285D01*
G01X171749Y1245318D01*
G01X171847Y1245352D01*
G01X171943Y1245388D01*
G01X172039Y1245426D01*
G01X172134Y1245466D01*
G01X172229Y1245507D01*
G01X172323Y1245549D01*
G01X172416Y1245594D01*
G01X172508Y1245640D01*
G01X172599Y1245687D01*
G01X172690Y1245736D01*
G01X172780Y1245787D01*
G01X172868Y1245840D01*
G01X172956Y1245893D01*
G01X173043Y1245949D01*
G01X173129Y1246006D01*
G01X173214Y1246064D01*
G01X173298Y1246124D01*
G01X173381Y1246185D01*
G01X173463Y1246248D01*
G01X173543Y1246312D01*
G01X173623Y1246378D01*
G01X173701Y1246445D01*
G01X173778Y1246513D01*
G01X173854Y1246583D01*
G01X173929Y1246654D01*
G01X174003Y1246726D01*
G01X174075Y1246799D01*
G01X174146Y1246874D01*
G01X174215Y1246950D01*
G01X174284Y1247027D01*
G01X174351Y1247106D01*
G01X174416Y1247185D01*
G01X174480Y1247266D01*
G01X174543Y1247348D01*
G01X174604Y1247430D01*
G01X174664Y1247514D01*
G01X174723Y1247599D01*
G01X174780Y1247685D01*
G01X174835Y1247772D01*
G01X174889Y1247860D01*
G01X174941Y1247949D01*
G01X174992Y1248039D01*
G01X175041Y1248129D01*
G01X175089Y1248221D01*
G01X175135Y1248313D01*
G01X175179Y1248406D01*
G01X175222Y1248500D01*
G01X175263Y1248594D01*
G01X175302Y1248689D01*
G01X175340Y1248785D01*
G01X175376Y1248882D01*
G01X175411Y1248979D01*
G01X175443Y1249077D01*
G01X175474Y1249175D01*
G01X175504Y1249274D01*
G01X175531Y1249373D01*
G01X175557Y1249473D01*
G01X175581Y1249573D01*
G01X175603Y1249674D01*
G01X175624Y1249775D01*
G01X175643Y1249876D01*
G01X175660Y1249978D01*
G01X175675Y1250080D01*
G01X175688Y1250182D01*
G01X175700Y1250284D01*
G01X175710Y1250387D01*
G01X175718Y1250490D01*
G01X175724Y1250593D01*
G01X175729Y1250695D01*
G01X175731Y1250799D01*
G01X175732Y1250902D01*
G01Y1475311D01*
G01X175731Y1475414D01*
G01X175729Y1475517D01*
G01X175724Y1475620D01*
G01X175718Y1475723D01*
G01X175710Y1475826D01*
G01X175700Y1475928D01*
G01X175688Y1476031D01*
G01X175675Y1476133D01*
G01X175660Y1476235D01*
G01X175643Y1476337D01*
G01X175624Y1476438D01*
G01X175603Y1476539D01*
G01X175581Y1476639D01*
G01X175557Y1476740D01*
G01X175531Y1476839D01*
G01X175504Y1476939D01*
G01X175474Y1477038D01*
G01X175443Y1477136D01*
G01X175411Y1477234D01*
G01X175376Y1477331D01*
G01X175340Y1477427D01*
G01X175302Y1477523D01*
G01X175263Y1477618D01*
G01X175222Y1477713D01*
G01X175179Y1477807D01*
G01X175135Y1477900D01*
G01X175089Y1477992D01*
G01X175041Y1478083D01*
G01X174992Y1478174D01*
G01X174941Y1478264D01*
G01X174889Y1478353D01*
G01X174835Y1478440D01*
G01X174780Y1478527D01*
G01X174723Y1478613D01*
G01X174664Y1478698D01*
G01X174604Y1478782D01*
G01X174543Y1478865D01*
G01X174480Y1478947D01*
G01X174416Y1479027D01*
G01X174351Y1479107D01*
G01X174284Y1479185D01*
G01X174215Y1479263D01*
G01X174146Y1479339D01*
G01X174075Y1479413D01*
G01X174003Y1479487D01*
G01X173929Y1479559D01*
G01X173854Y1479630D01*
G01X173778Y1479700D01*
G01X173701Y1479768D01*
G01X173623Y1479835D01*
G01X173543Y1479900D01*
G01X173463Y1479965D01*
G01X173381Y1480027D01*
G01X173298Y1480089D01*
G01X173214Y1480149D01*
G01X173129Y1480207D01*
G01X173043Y1480264D01*
G01X172956Y1480319D01*
G01X172868Y1480373D01*
G01X172780Y1480425D01*
G01X172690Y1480476D01*
G01X172599Y1480525D01*
G01X172508Y1480573D01*
G01X172416Y1480619D01*
G01X172323Y1480663D01*
G01X172229Y1480706D01*
G01X172134Y1480747D01*
G01X172039Y1480787D01*
G01X171943Y1480824D01*
G01X171847Y1480860D01*
G01X171749Y1480895D01*
G01X171652Y1480927D01*
G01X171553Y1480958D01*
G01X171455Y1480988D01*
G01X171355Y1481015D01*
G01X171255Y1481041D01*
G01X171155Y1481065D01*
G01X171055Y1481087D01*
G01X170954Y1481108D01*
G01X170852Y1481127D01*
G01X170751Y1481144D01*
G01X170649Y1481159D01*
G01X170546Y1481173D01*
G01X170444Y1481184D01*
G01X170341Y1481194D01*
G01X170239Y1481202D01*
G01X170136Y1481208D01*
G01X170033Y1481213D01*
G01X169930Y1481216D01*
G01X169827Y1481217D01*
G01X-166787D01*
G01Y1469406D01*
G01X163921D01*
G01Y1256807D01*
G01X-166787D01*
G01Y1469406D01*
G01Y1481217D01*
G01X-172693D01*
G01X-172796Y1481216D01*
G01X-172899Y1481213D01*
G01X-173002Y1481208D01*
G01X-173105Y1481202D01*
G01X-173208Y1481194D01*
G01X-173310Y1481184D01*
G01X-173413Y1481173D01*
G01X-173515Y1481159D01*
G01X-173617Y1481144D01*
G01X-173718Y1481127D01*
G01X-173820Y1481108D01*
G01X-173921Y1481087D01*
G01X-174021Y1481065D01*
G01X-174122Y1481041D01*
G01X-174221Y1481015D01*
G01X-174321Y1480988D01*
G01X-174420Y1480958D01*
G01X-174518Y1480927D01*
G01X-174616Y1480895D01*
G01X-174713Y1480860D01*
G01X-174809Y1480824D01*
G01X-174905Y1480787D01*
G01X-175000Y1480747D01*
G01X-175095Y1480706D01*
G01X-175189Y1480663D01*
G01X-175282Y1480619D01*
G01X-175374Y1480573D01*
G01X-175465Y1480525D01*
G01X-175556Y1480476D01*
G01X-175646Y1480425D01*
G01X-175734Y1480373D01*
G01X-175822Y1480319D01*
G01X-175909Y1480264D01*
G01X-175995Y1480207D01*
G01X-176080Y1480149D01*
G01X-176164Y1480089D01*
G01X-176247Y1480027D01*
G01X-176329Y1479965D01*
G01X-176409Y1479900D01*
G01X-176489Y1479835D01*
G01X-176567Y1479768D01*
G01X-176644Y1479700D01*
G01X-176720Y1479630D01*
G01X-176795Y1479559D01*
G01X-176869Y1479487D01*
G01X-176941Y1479413D01*
G01X-177012Y1479339D01*
G01X-177082Y1479263D01*
G01X-177150Y1479185D01*
G01X-177217Y1479107D01*
G01X-177282Y1479027D01*
G01X-177347Y1478947D01*
G01X-177409Y1478865D01*
G01X-177471Y1478782D01*
G01X-177530Y1478698D01*
G01X-177589Y1478613D01*
G01X-177646Y1478527D01*
G01X-177701Y1478440D01*
G01X-177755Y1478353D01*
G01X-177807Y1478264D01*
G01X-177858Y1478174D01*
G01X-177907Y1478083D01*
G01X-177955Y1477992D01*
G01X-178001Y1477900D01*
G01X-178045Y1477807D01*
G01X-178088Y1477713D01*
G01X-178129Y1477618D01*
G01X-178168Y1477523D01*
G01X-178206Y1477427D01*
G01X-178242Y1477331D01*
G01X-178277Y1477234D01*
G01X-178309Y1477136D01*
G01X-178340Y1477038D01*
G01X-178370Y1476939D01*
G01X-178397Y1476839D01*
G01X-178423Y1476740D01*
G01X-178447Y1476639D01*
G01X-178469Y1476539D01*
G01X-178490Y1476438D01*
G01X-178509Y1476337D01*
G01X-178526Y1476235D01*
G01X-178541Y1476133D01*
G01X-178554Y1476031D01*
G01X-178566Y1475928D01*
G01X-178576Y1475826D01*
G01X-178584Y1475723D01*
G01X-178590Y1475620D01*
G01X-178595Y1475517D01*
G01X-178598Y1475414D01*
G01Y1475311D01*
G01Y1250902D01*
G37*
G36*
G01X-123977Y1472945D02*
G01X-129932Y1468374D01*
G01X-138827Y1466860D01*
G01X-147939Y1469268D01*
G01X-154096Y1476116D01*
G01X-156330Y1486411D01*
G01Y1490073D01*
G01X-151904Y1504779D01*
G01X-139462Y1509998D01*
G01X-128879Y1506639D01*
G01X-123977Y1497109D01*
G01X-129513D01*
G01X-139433Y1505471D01*
G01X-147867Y1501560D01*
G01X-150765Y1490233D01*
G01Y1486799D01*
G01X-147536Y1475558D01*
G01X-138799Y1471387D01*
G01X-133349Y1472078D01*
G01X-129485Y1474408D01*
G01Y1483816D01*
G01X-139202D01*
G01Y1488343D01*
G01X-123977D01*
G01Y1472945D01*
G37*
G36*
G01X-80410Y1467437D02*
G01X-85975D01*
G01X-107112Y1499790D01*
G01Y1467437D01*
G01X-112677D01*
G01Y1509422D01*
G01X-107112D01*
G01X-85918Y1476924D01*
G01Y1509422D01*
G01X-80410D01*
G01Y1467437D01*
G37*
G36*
G01X-68496Y1467437D02*
G01X-56876D01*
G01X-46971Y1469888D01*
G01X-40425Y1476751D01*
G01X-38133Y1487160D01*
G01Y1489842D01*
G01X-40454Y1500108D01*
G01X-46956Y1506999D01*
G01X-56645Y1509422D01*
G01X-62960D01*
G01Y1504894D01*
G01X-56501D01*
G01X-46971Y1500868D01*
G01X-43611Y1489743D01*
G01Y1487289D01*
G01X-47173Y1475947D01*
G01X-57135Y1471964D01*
G01X-62960D01*
G01Y1504894D01*
G01Y1509422D01*
G01X-68496D01*
G01Y1467437D01*
G37*
G36*
G01X32152Y1195263D02*
G01X44147Y1229894D01*
G01X50203D01*
G01X34632Y1187909D01*
G01X29730D01*
G01X14187Y1229894D01*
G01X20214D01*
G01X32152Y1195263D01*
G37*
G36*
G01X53472Y1203365D02*
G01X56889Y1191773D01*
G01X65727Y1187333D01*
G01X74637Y1191254D01*
G01X74896Y1187909D01*
G01X79798D01*
G01Y1232201D01*
G01X74464D01*
G01Y1215938D01*
G01X67111Y1219113D01*
G01Y1215159D01*
G01X74464Y1210747D01*
G01Y1196416D01*
G01X67053Y1191860D01*
G01X60998Y1194859D01*
G01X58806Y1203163D01*
G01X60998Y1212131D01*
G01X67111Y1215159D01*
G01Y1219113D01*
G01X65784Y1219686D01*
G01X56874Y1215318D01*
G01X53472Y1203769D01*
G01Y1203365D01*
G37*
G36*
G01X103143Y1214323D02*
G01X100519Y1214525D01*
G01X93396Y1210055D01*
G01Y1187909D01*
G01X88062D01*
G01Y1219109D01*
G01X93252D01*
G01X93338Y1215505D01*
G01X100778Y1219686D01*
G01X103143Y1219282D01*
G01Y1214323D01*
G37*
G36*
G01X106626Y1210459D02*
G01X111989D01*
G01X113921Y1213948D01*
G01X118708Y1215390D01*
G01X123639Y1213732D01*
G01X125311Y1209277D01*
G01Y1206826D01*
G01X121130D01*
G01Y1203048D01*
G01X125311D01*
G01Y1196647D01*
G01X122053Y1193273D01*
G01X117295Y1191975D01*
G01X112999Y1193388D01*
G01X111326Y1197310D01*
G01X121130Y1203048D01*
G01Y1206826D01*
G01X120121D01*
G01X109697Y1204129D01*
G01X105991Y1196560D01*
G01X108947Y1189942D01*
G01X116516Y1187333D01*
G01X125398Y1191197D01*
G01X126148Y1187909D01*
G01X131742D01*
G01Y1188371D01*
G01X130646Y1195205D01*
G01Y1209565D01*
G01X127474Y1216990D01*
G01X119025Y1219686D01*
G01X112782Y1218417D01*
G01X108284Y1214972D01*
G01X106626Y1210459D01*
G37*
G36*
G01X144793Y1187909D02*
G01X139458D01*
G01Y1219109D01*
G01X144793D01*
G01Y1187909D01*
G37*
G36*
G01X139025Y1227385D02*
G01X139818Y1229577D01*
G01X142169Y1230471D01*
G01X144533Y1229577D01*
G01X145340Y1227385D01*
G01X144533Y1225223D01*
G01X142169Y1224358D01*
G01X139818Y1225223D01*
G01X139025Y1227385D01*
G37*
G36*
G01X158364Y1219109D02*
G01X158537Y1215188D01*
G01X167879Y1219686D01*
G01X177856Y1208527D01*
G01Y1187909D01*
G01X172522D01*
G01Y1208556D01*
G01X170979Y1213544D01*
G01X166265Y1215159D01*
G01X161709Y1213775D01*
G01X158652Y1210142D01*
G01Y1187909D01*
G01X153317D01*
G01Y1219109D01*
G01X158364D01*
G37*
G36*
G01X-164699Y1195263D02*
G01X-152703Y1229894D01*
G01X-146648D01*
G01X-162219Y1187909D01*
G01X-167121D01*
G01X-182663Y1229894D01*
G01X-176636D01*
G01X-164699Y1195263D01*
G37*
G36*
G01X-143350Y1203769D02*
G01X-139962Y1191745D01*
G01X-131095Y1187333D01*
G01X-122358Y1191024D01*
G01Y1188342D01*
G01X-124535Y1182171D01*
G01X-130605Y1179980D01*
G01X-138996Y1184219D01*
G01X-141764Y1181018D01*
G01X-136833Y1177067D01*
G01X-130230Y1175626D01*
G01X-120584Y1179115D01*
G01X-116994Y1188659D01*
G01Y1219109D01*
G01X-121867D01*
G01X-122127Y1215649D01*
G01X-129711Y1219085D01*
G01Y1215159D01*
G01X-122358Y1210689D01*
G01Y1196445D01*
G01X-129768Y1191860D01*
G01X-135824Y1194873D01*
G01X-137986Y1203163D01*
G01X-135795Y1212131D01*
G01X-129711Y1215159D01*
G01Y1219085D01*
G01X-131037Y1219686D01*
G01X-139976Y1215375D01*
G01X-143350Y1203769D01*
G37*
G36*
G01X-109196Y1210459D02*
G01X-103833D01*
G01X-101901Y1213948D01*
G01X-97114Y1215390D01*
G01X-92183Y1213732D01*
G01X-90511Y1209277D01*
G01Y1206826D01*
G01X-94692D01*
G01Y1203048D01*
G01X-90511D01*
G01Y1196647D01*
G01X-93769Y1193273D01*
G01X-98527Y1191975D01*
G01X-102823Y1193388D01*
G01X-104496Y1197310D01*
G01X-94692Y1203048D01*
G01Y1206826D01*
G01X-95701D01*
G01X-106125Y1204129D01*
G01X-109830Y1196560D01*
G01X-106875Y1189942D01*
G01X-99305Y1187333D01*
G01X-90424Y1191197D01*
G01X-89674Y1187909D01*
G01X-84080D01*
G01Y1188371D01*
G01X-85176Y1195205D01*
G01Y1209565D01*
G01X-88348Y1216990D01*
G01X-96797Y1219686D01*
G01X-103040Y1218417D01*
G01X-107538Y1214972D01*
G01X-109196Y1210459D01*
G37*
G36*
G01X-69588Y1226664D02*
G01Y1219109D01*
G01X-63763D01*
G01Y1214986D01*
G01X-69588D01*
G01Y1195613D01*
G01X-68809Y1192798D01*
G01X-66156Y1191860D01*
G01X-63619Y1192206D01*
G01Y1187906D01*
G01X-67713Y1187333D01*
G01X-73105Y1189495D01*
G01X-74922Y1195637D01*
G01Y1214986D01*
G01X-80603D01*
G01Y1219109D01*
G01X-74922D01*
G01Y1226664D01*
G01X-69588D01*
G37*
G36*
G01X-58877Y1202644D02*
G01X-54898Y1191499D01*
G01X-44574Y1187333D01*
G01X-32810Y1193359D01*
G01X-36068Y1195897D01*
G01X-39499Y1192840D01*
G01X-44286Y1191687D01*
G01X-50846Y1194527D01*
G01X-53542Y1201981D01*
G01X-32406D01*
G01Y1204202D01*
G01X-35780Y1215678D01*
G01X-45238Y1219686D01*
G01Y1215303D01*
G01X-39932Y1213068D01*
G01X-37740Y1206768D01*
G01Y1206364D01*
G01X-53369D01*
G01X-50659Y1212953D01*
G01X-45238Y1215303D01*
G01Y1219686D01*
G01X-52144Y1217624D01*
G01X-57103Y1211915D01*
G01X-58877Y1203625D01*
G01Y1202644D01*
G37*
G36*
G01X45314Y1472945D02*
G01X39360Y1468374D01*
G01X30464Y1466860D01*
G01X21352Y1469268D01*
G01X15196Y1476116D01*
G01X12961Y1486411D01*
G01Y1490073D01*
G01X17387Y1504779D01*
G01X29830Y1509998D01*
G01X40412Y1506639D01*
G01X45314Y1497109D01*
G01X39778D01*
G01X29858Y1505471D01*
G01X21424Y1501560D01*
G01X18526Y1490233D01*
G01Y1486799D01*
G01X21756Y1475558D01*
G01X30493Y1471387D01*
G01X35943Y1472078D01*
G01X39807Y1474408D01*
G01Y1483816D01*
G01X30089D01*
G01Y1488343D01*
G01X45314D01*
G01Y1472945D01*
G37*
G36*
G01X88881Y1467437D02*
G01X83316D01*
G01X62180Y1499790D01*
G01Y1467437D01*
G01X56614D01*
G01Y1509422D01*
G01X62180D01*
G01X83374Y1476924D01*
G01Y1509422D01*
G01X88881D01*
G01Y1467437D01*
G37*
G36*
G01X100795Y1467437D02*
G01X112416D01*
G01X122321Y1469888D01*
G01X128866Y1476751D01*
G01X131159Y1487160D01*
G01Y1489842D01*
G01X128837Y1500108D01*
G01X122335Y1506999D01*
G01X112646Y1509422D01*
G01X106331D01*
G01Y1504894D01*
G01X112791D01*
G01X122321Y1500868D01*
G01X125680Y1489743D01*
G01Y1487289D01*
G01X122119Y1475947D01*
G01X112156Y1471964D01*
G01X106331D01*
G01Y1504894D01*
G01Y1509422D01*
G01X100795D01*
G01Y1467437D01*
G37*
G36*
G01X155152Y635724D02*
G01X151875Y628871D01*
G01X144541Y626458D01*
G01X136592Y630014D01*
G01X133603Y639530D01*
G01Y642221D01*
G01X134996Y649084D01*
G01X138947Y653631D01*
G01X144868Y655217D01*
G01X152019Y652727D01*
G01X155152Y645836D01*
G01X151442D01*
G01X149356Y650695D01*
G01X144868Y652199D01*
G01X139322Y649582D01*
G01X137313Y642136D01*
G01Y639423D01*
G01X139216Y632170D01*
G01X144541Y629476D01*
G01X149260Y630870D01*
G01X151442Y635724D01*
G01X155152D01*
G37*
G36*
G01X186318Y642491D02*
G01X170285D01*
G01Y645586D01*
G01X186318D01*
G01Y642491D01*
G37*
G36*
G01X186318Y634513D02*
G01X170285D01*
G01Y637589D01*
G01X186318D01*
G01Y634513D01*
G37*
G36*
G01X213415Y626843D02*
G01X209839D01*
G01Y650545D01*
G01X202669Y647912D01*
G01Y651141D01*
G01X212857Y654967D01*
G01X213415D01*
G01Y626843D01*
G37*
G36*
G01X225086Y638300D02*
G01X227316Y629428D01*
G01X233948Y626458D01*
G01X240618Y629495D01*
G01X242752Y638780D01*
G01Y643394D01*
G01X240561Y652323D01*
G01X233909Y655217D01*
G01Y652295D01*
G01X237927Y650228D01*
G01X239196Y643644D01*
G01Y637819D01*
G01X237860Y631399D01*
G01X233948Y629361D01*
G01X229959Y631523D01*
G01X228642Y638223D01*
G01Y643913D01*
G01X229930Y650238D01*
G01X233909Y652295D01*
G01Y655217D01*
G01X227220Y652218D01*
G01X225086Y643048D01*
G01Y638300D01*
G37*
G36*
G01X252177Y647643D02*
G01Y635474D01*
G01X253187Y630841D01*
G01X256406Y629342D01*
G01X261424Y632264D01*
G01Y647643D01*
G01X264999D01*
G01Y626843D01*
G01X261789D01*
G01X261616Y629053D01*
G01X256560Y626458D01*
G01X252177Y627861D01*
G01Y618845D01*
G01X248621D01*
G01Y647643D01*
G01X252177D01*
G37*
G36*
G01X287328Y639203D02*
G01X275582D01*
G01Y626843D01*
G01X271892D01*
G01Y654832D01*
G01X289231D01*
G01Y651814D01*
G01X275582D01*
G01Y642221D01*
G01X287328D01*
G01Y639203D01*
G37*
G36*
G01X-194297Y667177D02*
G01X-197574Y660323D01*
G01X-204908Y657911D01*
G01X-212857Y661467D01*
G01X-215846Y670983D01*
G01Y673674D01*
G01X-214453Y680537D01*
G01X-210502Y685083D01*
G01X-204581Y686669D01*
G01X-197430Y684180D01*
G01X-194297Y677288D01*
G01X-198007D01*
G01X-200092Y682147D01*
G01X-204581Y683651D01*
G01X-210127Y681035D01*
G01X-212136Y673589D01*
G01Y670876D01*
G01X-210233Y663622D01*
G01X-204908Y660929D01*
G01X-200189Y662323D01*
G01X-198007Y667177D01*
G01X-194297D01*
G37*
G36*
G01X-163131Y673943D02*
G01X-179164D01*
G01Y677038D01*
G01X-163131D01*
G01Y673943D01*
G37*
G36*
G01X-163131Y665966D02*
G01X-179164D01*
G01Y669041D01*
G01X-163131D01*
G01Y665966D01*
G37*
G36*
G01X-136034Y658295D02*
G01X-139610D01*
G01Y681998D01*
G01X-146780Y679364D01*
G01Y682594D01*
G01X-136592Y686420D01*
G01X-136034D01*
G01Y658295D01*
G37*
G36*
G01X-124363Y669753D02*
G01X-122133Y660881D01*
G01X-115501Y657911D01*
G01X-108830Y660948D01*
G01X-106697Y670233D01*
G01Y674847D01*
G01X-108888Y683776D01*
G01X-115539Y686669D01*
G01Y683747D01*
G01X-111522Y681681D01*
G01X-110253Y675097D01*
G01Y669272D01*
G01X-111589Y662851D01*
G01X-115501Y660814D01*
G01X-119490Y662976D01*
G01X-120807Y669676D01*
G01Y675366D01*
G01X-119519Y681690D01*
G01X-115539Y683747D01*
G01Y686669D01*
G01X-122229Y683671D01*
G01X-124363Y674501D01*
G01Y669753D01*
G37*
G36*
G01X-97272Y679095D02*
G01Y666927D01*
G01X-96262Y662294D01*
G01X-93042Y660794D01*
G01X-88025Y663716D01*
G01Y679095D01*
G01X-84449D01*
G01Y658295D01*
G01X-87660D01*
G01X-87833Y660506D01*
G01X-92889Y657911D01*
G01X-97272Y659314D01*
G01Y650298D01*
G01X-100828D01*
G01Y679095D01*
G01X-97272D01*
G37*
G36*
G01X-62121Y670656D02*
G01X-73866D01*
G01Y658295D01*
G01X-77557D01*
G01Y686285D01*
G01X-60218D01*
G01Y683267D01*
G01X-73866D01*
G01Y673674D01*
G01X-62121D01*
G01Y670656D01*
G37*
G36*
G01X395916Y628476D02*
G01X392638Y621623D01*
G01X385305Y619210D01*
G01X377356Y622766D01*
G01X374366Y632282D01*
G01Y634973D01*
G01X375760Y641836D01*
G01X379711Y646383D01*
G01X385631Y647969D01*
G01X392783Y645479D01*
G01X395916Y638587D01*
G01X392206D01*
G01X390120Y643447D01*
G01X385631Y644951D01*
G01X380085Y642334D01*
G01X378077Y634888D01*
G01Y632175D01*
G01X379980Y624922D01*
G01X385305Y622228D01*
G01X390024Y623622D01*
G01X392206Y628476D01*
G01X395916D01*
G37*
G36*
G01X427082Y635243D02*
G01X411049D01*
G01Y638338D01*
G01X427082D01*
G01Y635243D01*
G37*
G36*
G01X427082Y627265D02*
G01X411049D01*
G01Y630341D01*
G01X427082D01*
G01Y627265D01*
G37*
G36*
G01X454178Y619594D02*
G01X450603D01*
G01Y643297D01*
G01X443432Y640664D01*
G01Y643893D01*
G01X453621Y647719D01*
G01X454178D01*
G01Y619594D01*
G37*
G36*
G01X465850Y631052D02*
G01X468079Y622180D01*
G01X474712Y619210D01*
G01X481382Y622247D01*
G01X483516Y631532D01*
G01Y636146D01*
G01X481325Y645075D01*
G01X474673Y647969D01*
G01Y645047D01*
G01X478691Y642980D01*
G01X479960Y636396D01*
G01Y630571D01*
G01X478624Y624150D01*
G01X474712Y622113D01*
G01X470723Y624275D01*
G01X469406Y630975D01*
G01Y636665D01*
G01X470694Y642990D01*
G01X474673Y645047D01*
G01Y647969D01*
G01X467983Y644970D01*
G01X465850Y635800D01*
G01Y631052D01*
G37*
G36*
G01X489324Y631052D02*
G01X491554Y622180D01*
G01X498186Y619210D01*
G01X504857Y622247D01*
G01X506990Y631532D01*
G01Y636146D01*
G01X504799Y645075D01*
G01X498148Y647969D01*
G01Y645047D01*
G01X502165Y642980D01*
G01X503434Y636396D01*
G01Y630571D01*
G01X502098Y624150D01*
G01X498186Y622113D01*
G01X494197Y624275D01*
G01X492880Y630975D01*
G01Y636665D01*
G01X494168Y642990D01*
G01X498148Y645047D01*
G01Y647969D01*
G01X491458Y644970D01*
G01X489324Y635800D01*
G01Y631052D01*
G37*
G36*
G01X525698Y640395D02*
G01X525814Y637780D01*
G01X532042Y640779D01*
G01X538693Y633339D01*
G01Y619594D01*
G01X535137D01*
G01Y633359D01*
G01X534109Y636684D01*
G01X530965Y637761D01*
G01X527928Y636838D01*
G01X525890Y634416D01*
G01Y619594D01*
G01X522334D01*
G01Y640395D01*
G01X525698D01*
G37*
G36*
G01X560744Y631955D02*
G01X548999D01*
G01Y619594D01*
G01X545308D01*
G01Y647584D01*
G01X562648D01*
G01Y644566D01*
G01X548999D01*
G01Y634973D01*
G01X560744D01*
G01Y631955D01*
G37*
G36*
G01X-473198Y649850D02*
G01X-476476Y642997D01*
G01X-483810Y640584D01*
G01X-491759Y644140D01*
G01X-494748Y653656D01*
G01Y656347D01*
G01X-493354Y663210D01*
G01X-489404Y667757D01*
G01X-483483Y669343D01*
G01X-476332Y666853D01*
G01X-473198Y659961D01*
G01X-476908D01*
G01X-478994Y664821D01*
G01X-483483Y666325D01*
G01X-489029Y663708D01*
G01X-491038Y656262D01*
G01Y653549D01*
G01X-489135Y646296D01*
G01X-483810Y643602D01*
G01X-479090Y644996D01*
G01X-476908Y649850D01*
G01X-473198D01*
G37*
G36*
G01X-442033Y656617D02*
G01X-458065D01*
G01Y659712D01*
G01X-442033D01*
G01Y656617D01*
G37*
G36*
G01X-442033Y648639D02*
G01X-458065D01*
G01Y651715D01*
G01X-442033D01*
G01Y648639D01*
G37*
G36*
G01X-414936Y640969D02*
G01X-418511D01*
G01Y664671D01*
G01X-425682Y662038D01*
G01Y665267D01*
G01X-415493Y669093D01*
G01X-414936D01*
G01Y640969D01*
G37*
G36*
G01X-403265Y652426D02*
G01X-401035Y643554D01*
G01X-394403Y640584D01*
G01X-387732Y643621D01*
G01X-385598Y652906D01*
G01Y657520D01*
G01X-387790Y666449D01*
G01X-394441Y669343D01*
G01Y666421D01*
G01X-390423Y664354D01*
G01X-389154Y657770D01*
G01Y651945D01*
G01X-390491Y645525D01*
G01X-394403Y643487D01*
G01X-398391Y645649D01*
G01X-399708Y652349D01*
G01Y658039D01*
G01X-398420Y664364D01*
G01X-394441Y666421D01*
G01Y669343D01*
G01X-401131Y666344D01*
G01X-403265Y657174D01*
G01Y652426D01*
G37*
G36*
G01X-379790Y652426D02*
G01X-377560Y643554D01*
G01X-370928Y640584D01*
G01X-364258Y643621D01*
G01X-362124Y652906D01*
G01Y657520D01*
G01X-364315Y666449D01*
G01X-370967Y669343D01*
G01Y666421D01*
G01X-366949Y664354D01*
G01X-365680Y657770D01*
G01Y651945D01*
G01X-367016Y645525D01*
G01X-370928Y643487D01*
G01X-374917Y645649D01*
G01X-376234Y652349D01*
G01Y658039D01*
G01X-374946Y664364D01*
G01X-370967Y666421D01*
G01Y669343D01*
G01X-377656Y666344D01*
G01X-379790Y657174D01*
G01Y652426D01*
G37*
G36*
G01X-343416Y661769D02*
G01X-343301Y659154D01*
G01X-337072Y662153D01*
G01X-330421Y654713D01*
G01Y640969D01*
G01X-333977D01*
G01Y654733D01*
G01X-335006Y658058D01*
G01X-338149Y659135D01*
G01X-341186Y658212D01*
G01X-343224Y655790D01*
G01Y640969D01*
G01X-346780D01*
G01Y661769D01*
G01X-343416D01*
G37*
G36*
G01X-308370Y653329D02*
G01X-320115D01*
G01Y640969D01*
G01X-323806D01*
G01Y668958D01*
G01X-306467D01*
G01Y665940D01*
G01X-320115D01*
G01Y656347D01*
G01X-308370D01*
G01Y653329D01*
G37*
G36*
G01X138660Y290003D02*
G01X135383Y283150D01*
G01X128049Y280738D01*
G01X120100Y284294D01*
G01X117110Y293810D01*
G01Y296501D01*
G01X118504Y303364D01*
G01X122455Y307910D01*
G01X128376Y309496D01*
G01X135527Y307007D01*
G01X138660Y300115D01*
G01X134950D01*
G01X132864Y304974D01*
G01X128376Y306478D01*
G01X122829Y303861D01*
G01X120821Y296416D01*
G01Y293703D01*
G01X122724Y286449D01*
G01X128049Y283756D01*
G01X132768Y285149D01*
G01X134950Y290003D01*
G01X138660D01*
G37*
G36*
G01X169826Y296770D02*
G01X153793D01*
G01Y299865D01*
G01X169826D01*
G01Y296770D01*
G37*
G36*
G01X169826Y288792D02*
G01X153793D01*
G01Y291868D01*
G01X169826D01*
G01Y288792D01*
G37*
G36*
G01X196923Y281122D02*
G01X193347D01*
G01Y304825D01*
G01X186176Y302191D01*
G01Y305421D01*
G01X196365Y309246D01*
G01X196923D01*
G01Y281122D01*
G37*
G36*
G01X218129Y273125D02*
G01X221686D01*
G01Y283141D01*
G01X227645Y280738D01*
G01X233527Y283640D01*
G01X235700Y291291D01*
G01Y291618D01*
G01X233518Y299481D01*
G01X227587Y302307D01*
G01X226530Y301835D01*
G01Y299288D01*
G01X230644Y297251D01*
G01X232143Y291695D01*
G01X230634Y285668D01*
G01X226568Y283640D01*
G01X221686Y286485D01*
G01Y296424D01*
G01X226530Y299288D01*
G01Y301835D01*
G01X221551Y299615D01*
G01X221378Y301922D01*
G01X218129D01*
G01Y273125D01*
G37*
G36*
G01X256909Y293483D02*
G01X245163D01*
G01Y281122D01*
G01X241472D01*
G01Y309112D01*
G01X258812D01*
G01Y306094D01*
G01X245163D01*
G01Y296501D01*
G01X256909D01*
G01Y293483D01*
G37*
G36*
G01X-162277Y319322D02*
G01X-165554Y312469D01*
G01X-172888Y310056D01*
G01X-180837Y313613D01*
G01X-183827Y323129D01*
G01Y325820D01*
G01X-182433Y332683D01*
G01X-178482Y337229D01*
G01X-172561Y338815D01*
G01X-165410Y336326D01*
G01X-162277Y329434D01*
G01X-165987D01*
G01X-168073Y334293D01*
G01X-172561Y335797D01*
G01X-178108Y333180D01*
G01X-180116Y325735D01*
G01Y323022D01*
G01X-178213Y315768D01*
G01X-172888Y313075D01*
G01X-168169Y314468D01*
G01X-165987Y319322D01*
G01X-162277D01*
G37*
G36*
G01X-131111Y326089D02*
G01X-147144D01*
G01Y329184D01*
G01X-131111D01*
G01Y326089D01*
G37*
G36*
G01X-131111Y318111D02*
G01X-147144D01*
G01Y321187D01*
G01X-131111D01*
G01Y318111D01*
G37*
G36*
G01X-104014Y310441D02*
G01X-107590D01*
G01Y334144D01*
G01X-114761Y331510D01*
G01Y334740D01*
G01X-104572Y338565D01*
G01X-104014D01*
G01Y310441D01*
G37*
G36*
G01X-82808Y302444D02*
G01X-79251D01*
G01Y312459D01*
G01X-73292Y310056D01*
G01X-67410Y312959D01*
G01X-65237Y320610D01*
G01Y320937D01*
G01X-67419Y328800D01*
G01X-73350Y331625D01*
G01X-74407Y331154D01*
G01Y328607D01*
G01X-70293Y326570D01*
G01X-68794Y321014D01*
G01X-70303Y314987D01*
G01X-74369Y312959D01*
G01X-79251Y315804D01*
G01Y325743D01*
G01X-74407Y328607D01*
G01Y331154D01*
G01X-79386Y328934D01*
G01X-79559Y331241D01*
G01X-82808D01*
G01Y302444D01*
G37*
G36*
G01X-44028Y322802D02*
G01X-55774D01*
G01Y310441D01*
G01X-59465D01*
G01Y338431D01*
G01X-42125D01*
G01Y335412D01*
G01X-55774D01*
G01Y325820D01*
G01X-44028D01*
G01Y322802D01*
G37*
G36*
G01X592837Y-254859D02*
G01X589560Y-261712D01*
G01X582226Y-264125D01*
G01X574277Y-260568D01*
G01X571288Y-251053D01*
G01Y-248361D01*
G01X572681Y-241498D01*
G01X576632Y-236952D01*
G01X582553Y-235366D01*
G01X589704Y-237855D01*
G01X592837Y-244747D01*
G01X589127D01*
G01X587041Y-239888D01*
G01X582553Y-238384D01*
G01X577007Y-241001D01*
G01X574998Y-248447D01*
G01Y-251159D01*
G01X576901Y-258413D01*
G01X582226Y-261107D01*
G01X586945Y-259713D01*
G01X589127Y-254859D01*
G01X592837D01*
G37*
G36*
G01X597053Y-253398D02*
G01X599678Y-261183D01*
G01X606531Y-264125D01*
G01X611500Y-262779D01*
G01X614826Y-259021D01*
G01X615989Y-253571D01*
G01Y-253321D01*
G01X613365Y-245497D01*
G01X606492Y-242556D01*
G01Y-245478D01*
G01X610808Y-247602D01*
G01X612432Y-253148D01*
G01X610837Y-259098D01*
G01X606531Y-261222D01*
G01X602234Y-259126D01*
G01X600629Y-253571D01*
G01X602244Y-247573D01*
G01X606492Y-245478D01*
G01Y-242556D01*
G01X601600Y-243882D01*
G01X598255Y-247650D01*
G01X597053Y-253148D01*
G01Y-253398D01*
G37*
G36*
G01X646444Y-248092D02*
G01X630411D01*
G01Y-244997D01*
G01X646444D01*
G01Y-248092D01*
G37*
G36*
G01X646444Y-256070D02*
G01X630411D01*
G01Y-252994D01*
G01X646444D01*
G01Y-256070D01*
G37*
G36*
G01X662333Y-243055D02*
G01X663410Y-246766D01*
G01X666351Y-249322D01*
G01X662920Y-252091D01*
G01X661680Y-256185D01*
G01X664111Y-261962D01*
G01X670580Y-264125D01*
G01X677030Y-261972D01*
G01X679481Y-256185D01*
G01X678202Y-252091D01*
G01X674732Y-249342D01*
G01X677722Y-246785D01*
G01X678827Y-243055D01*
G01X676549Y-237442D01*
G01X670580Y-235366D01*
G01Y-238288D01*
G01X673944Y-239634D01*
G01X675271Y-243113D01*
G01X673992Y-246564D01*
G01X670580Y-247881D01*
G01X670542Y-247866D01*
G01Y-250803D01*
G01X674435Y-252283D01*
G01X675924Y-256108D01*
G01X674502Y-259847D01*
G01X670580Y-261222D01*
G01X666649Y-259857D01*
G01X665236Y-256108D01*
G01X666687Y-252264D01*
G01X670542Y-250803D01*
G01Y-247866D01*
G01X667168Y-246564D01*
G01X665890Y-243113D01*
G01X667187Y-239586D01*
G01X670580Y-238288D01*
G01Y-235366D01*
G01X664602Y-237442D01*
G01X662333Y-243055D01*
G37*
G36*
G01X703666Y-263740D02*
G01X685327D01*
G01Y-261183D01*
G01X695016Y-250418D01*
G01X697986Y-246448D01*
G01X698803Y-243286D01*
G01X697476Y-239691D01*
G01X693939Y-238288D01*
G01X689816Y-239797D01*
G01X688345Y-243997D01*
G01X684789D01*
G01X687278Y-237750D01*
G01X693939Y-235366D01*
G01X700110Y-237413D01*
G01X702378Y-242863D01*
G01X697111Y-252706D01*
G01X689614Y-260837D01*
G01X703666D01*
G01Y-263740D01*
G37*
G36*
G01X718222Y-271737D02*
G01X721778D01*
G01Y-261722D01*
G01X727738Y-264125D01*
G01X733620Y-261222D01*
G01X735792Y-253571D01*
G01Y-253244D01*
G01X733610Y-245382D01*
G01X727680Y-242556D01*
G01X726623Y-243027D01*
G01Y-245574D01*
G01X730736Y-247611D01*
G01X732236Y-253167D01*
G01X730727Y-259194D01*
G01X726661Y-261222D01*
G01X721778Y-258377D01*
G01Y-248438D01*
G01X726623Y-245574D01*
G01Y-243027D01*
G01X721644Y-245247D01*
G01X721471Y-242940D01*
G01X718222D01*
G01Y-271737D01*
G37*
G36*
G01X757001Y-251379D02*
G01X745256D01*
G01Y-263740D01*
G01X741565D01*
G01Y-235750D01*
G01X758904D01*
G01Y-238769D01*
G01X745256D01*
G01Y-248361D01*
G01X757001D01*
G01Y-251379D01*
G37*
G36*
G01X-179025Y-220243D02*
G01X-175094Y-217341D01*
G01X-173681Y-212785D01*
G01X-176228Y-206518D01*
G01X-183505Y-204365D01*
G01X-189060D01*
G01Y-207383D01*
G01X-183408D01*
G01X-178939Y-208789D01*
G01X-177391Y-212775D01*
G01X-179016Y-216588D01*
G01X-183389Y-218013D01*
G01X-189060D01*
G01Y-207383D01*
G01Y-204365D01*
G01X-192770D01*
G01Y-232354D01*
G01X-189060D01*
G01Y-221032D01*
G01X-182486D01*
G01X-176411Y-232354D01*
G01X-172451D01*
G01Y-232124D01*
G01X-179025Y-220243D01*
G37*
G36*
G01X-168383Y-240351D02*
G01X-164826D01*
G01Y-230336D01*
G01X-158867Y-232739D01*
G01X-152984Y-229836D01*
G01X-150812Y-222185D01*
G01Y-221858D01*
G01X-152994Y-213996D01*
G01X-158924Y-211170D01*
G01X-159982Y-211641D01*
G01Y-214188D01*
G01X-155868Y-216226D01*
G01X-154368Y-221781D01*
G01X-155878Y-227808D01*
G01X-159943Y-229836D01*
G01X-164826Y-226991D01*
G01Y-217052D01*
G01X-159982Y-214188D01*
G01Y-211641D01*
G01X-164961Y-213861D01*
G01X-165134Y-211554D01*
G01X-168383D01*
G01Y-240351D01*
G37*
G36*
G01X-120279Y-216706D02*
G01X-136311D01*
G01Y-213611D01*
G01X-120279D01*
G01Y-216706D01*
G37*
G36*
G01X-120279Y-224684D02*
G01X-136311D01*
G01Y-221608D01*
G01X-120279D01*
G01Y-224684D01*
G37*
G36*
G01X-172242Y-279598D02*
G01X-175817D01*
G01Y-255896D01*
G01X-182988Y-258529D01*
G01Y-255300D01*
G01X-172799Y-251474D01*
G01X-172242D01*
G01Y-279598D01*
G37*
G36*
G01X-160702Y-277734D02*
G01X-160154Y-276196D01*
G01X-158511Y-275581D01*
G01X-156848Y-276196D01*
G01X-156281Y-277734D01*
G01X-156848Y-279214D01*
G01X-158511Y-279810D01*
G01X-160154Y-279214D01*
G01X-160702Y-277734D01*
G37*
G36*
G01X-149616Y-258914D02*
G01X-148539Y-262624D01*
G01X-145598Y-265181D01*
G01X-149029Y-267949D01*
G01X-150269Y-272044D01*
G01X-147837Y-277820D01*
G01X-141369Y-279983D01*
G01X-134919Y-277830D01*
G01X-132468Y-272044D01*
G01X-133746Y-267949D01*
G01X-137216Y-265200D01*
G01X-134227Y-262643D01*
G01X-133122Y-258914D01*
G01X-135400Y-253300D01*
G01X-141369Y-251224D01*
G01Y-254146D01*
G01X-138004Y-255492D01*
G01X-136678Y-258971D01*
G01X-137956Y-262422D01*
G01X-141369Y-263739D01*
G01X-141407Y-263724D01*
G01Y-266661D01*
G01X-137514Y-268141D01*
G01X-136024Y-271967D01*
G01X-137447Y-275706D01*
G01X-141369Y-277080D01*
G01X-145300Y-275715D01*
G01X-146713Y-271967D01*
G01X-145261Y-268122D01*
G01X-141407Y-266661D01*
G01Y-263724D01*
G01X-144781Y-262422D01*
G01X-146059Y-258971D01*
G01X-144762Y-255444D01*
G01X-141369Y-254146D01*
G01Y-251224D01*
G01X-147347Y-253300D01*
G01X-149616Y-258914D01*
G37*
G36*
G01X-111396Y-269967D02*
G01X-113626Y-272293D01*
G01Y-279598D01*
G01X-117182D01*
G01Y-250071D01*
G01X-113626D01*
G01Y-267930D01*
G01X-111723Y-265642D01*
G01X-105244Y-258798D01*
G01X-100919D01*
G01X-109012Y-267488D01*
G01X-99977Y-279598D01*
G01X-104149D01*
G01X-111396Y-269967D01*
G37*
G36*
G01X-85080Y-276484D02*
G01X-80947Y-273233D01*
G01X-79409Y-265998D01*
G01Y-263420D01*
G01X-81274Y-256609D01*
G01X-86387Y-254242D01*
G01X-91482Y-256647D01*
G01X-93327Y-263459D01*
G01Y-265633D01*
G01X-91818Y-273098D01*
G01X-87522Y-276484D01*
G01Y-279598D01*
G01X-96980D01*
G01Y-276580D01*
G01X-92731D01*
G01X-95922Y-271669D01*
G01X-97076Y-265604D01*
G01Y-263470D01*
G01X-95720Y-257088D01*
G01X-91924Y-252753D01*
G01X-86387Y-251224D01*
G01X-80880Y-252724D01*
G01X-77083Y-256953D01*
G01X-75661Y-263143D01*
G01Y-265642D01*
G01X-76814Y-271669D01*
G01X-80005Y-276580D01*
G01X-75776D01*
G01Y-279598D01*
G01X-85080D01*
G01Y-276484D01*
G37*
G36*
G01X-623615Y-262166D02*
G01X-626893Y-269019D01*
G01X-634227Y-271432D01*
G01X-642176Y-267875D01*
G01X-645165Y-258360D01*
G01Y-255668D01*
G01X-643771Y-248805D01*
G01X-639821Y-244259D01*
G01X-633900Y-242673D01*
G01X-626749Y-245163D01*
G01X-623615Y-252054D01*
G01X-627326D01*
G01X-629411Y-247195D01*
G01X-633900Y-245691D01*
G01X-639446Y-248308D01*
G01X-641455Y-255754D01*
G01Y-258467D01*
G01X-639552Y-265720D01*
G01X-634227Y-268414D01*
G01X-629507Y-267020D01*
G01X-627326Y-262166D01*
G01X-623615D01*
G37*
G36*
G01X-614593Y-271047D02*
G01X-618150D01*
G01Y-250247D01*
G01X-614593D01*
G01Y-271047D01*
G37*
G36*
G01X-618438Y-244730D02*
G01X-617909Y-243269D01*
G01X-616343Y-242673D01*
G01X-614766Y-243269D01*
G01X-614228Y-244730D01*
G01X-614766Y-246172D01*
G01X-616343Y-246749D01*
G01X-617909Y-246172D01*
G01X-618438Y-244730D01*
G37*
G36*
G01X-582903Y-255399D02*
G01X-598935D01*
G01Y-252304D01*
G01X-582903D01*
G01Y-255399D01*
G37*
G36*
G01X-582903Y-263377D02*
G01X-598935D01*
G01Y-260301D01*
G01X-582903D01*
G01Y-263377D01*
G37*
G36*
G01X-567013Y-250363D02*
G01X-565937Y-254073D01*
G01X-562995Y-256629D01*
G01X-566427Y-259398D01*
G01X-567667Y-263492D01*
G01X-565235Y-269269D01*
G01X-558766Y-271432D01*
G01X-552317Y-269279D01*
G01X-549866Y-263492D01*
G01X-551144Y-259398D01*
G01X-554614Y-256649D01*
G01X-551625Y-254092D01*
G01X-550519Y-250363D01*
G01X-552797Y-244749D01*
G01X-558766Y-242673D01*
G01Y-245595D01*
G01X-555402Y-246941D01*
G01X-554076Y-250420D01*
G01X-555354Y-253871D01*
G01X-558766Y-255188D01*
G01X-558805Y-255173D01*
G01Y-258110D01*
G01X-554912Y-259590D01*
G01X-553422Y-263415D01*
G01X-554845Y-267154D01*
G01X-558766Y-268529D01*
G01X-562698Y-267164D01*
G01X-564110Y-263415D01*
G01X-562659Y-259571D01*
G01X-558805Y-258110D01*
G01Y-255173D01*
G01X-562178Y-253871D01*
G01X-563457Y-250420D01*
G01X-562159Y-246893D01*
G01X-558766Y-245595D01*
G01Y-242673D01*
G01X-564745Y-244749D01*
G01X-567013Y-250363D01*
G37*
G36*
G01X-525680Y-271047D02*
G01X-544019D01*
G01Y-268490D01*
G01X-534331Y-257725D01*
G01X-531361Y-253756D01*
G01X-530544Y-250593D01*
G01X-531870Y-246998D01*
G01X-535407Y-245595D01*
G01X-539531Y-247104D01*
G01X-541001Y-251305D01*
G01X-544558D01*
G01X-542068Y-245057D01*
G01X-535407Y-242673D01*
G01X-529236Y-244720D01*
G01X-526968Y-250170D01*
G01X-532235Y-260013D01*
G01X-539733Y-268144D01*
G01X-525680D01*
G01Y-271047D01*
G37*
G36*
G01X-511125Y-279044D02*
G01X-507568D01*
G01Y-269029D01*
G01X-501609Y-271432D01*
G01X-495726Y-268529D01*
G01X-493554Y-260878D01*
G01Y-260551D01*
G01X-495736Y-252689D01*
G01X-501667Y-249863D01*
G01X-502724Y-250334D01*
G01Y-252881D01*
G01X-498610Y-254919D01*
G01X-497111Y-260474D01*
G01X-498620Y-266501D01*
G01X-502685Y-268529D01*
G01X-507568Y-265684D01*
G01Y-255745D01*
G01X-502724Y-252881D01*
G01Y-250334D01*
G01X-507703Y-252554D01*
G01X-507876Y-250247D01*
G01X-511125D01*
G01Y-279044D01*
G37*
G36*
G01X-472345Y-258686D02*
G01X-484091D01*
G01Y-271047D01*
G01X-487782D01*
G01Y-243058D01*
G01X-470442D01*
G01Y-246076D01*
G01X-484091D01*
G01Y-255668D01*
G01X-472345D01*
G01Y-258686D01*
G37*
G36*
G01X-205844Y-455162D02*
G01X-209121Y-462015D01*
G01X-216455Y-464428D01*
G01X-224404Y-460871D01*
G01X-227393Y-451356D01*
G01Y-448664D01*
G01X-226000Y-441802D01*
G01X-222049Y-437255D01*
G01X-216128Y-435669D01*
G01X-208977Y-438159D01*
G01X-205844Y-445050D01*
G01X-209554D01*
G01X-211640Y-440191D01*
G01X-216128Y-438687D01*
G01X-221674Y-441304D01*
G01X-223683Y-448750D01*
G01Y-451463D01*
G01X-221780Y-458716D01*
G01X-216455Y-461410D01*
G01X-211736Y-460016D01*
G01X-209554Y-455162D01*
G01X-205844D01*
G37*
G36*
G01X-188575Y-458526D02*
G01X-189661Y-456287D01*
G01X-193448Y-454912D01*
G01X-197735Y-453528D01*
G01X-200080Y-451606D01*
G01X-200839Y-448953D01*
G01X-198677Y-444627D01*
G01X-193150Y-442859D01*
G01X-187412Y-444685D01*
G01X-185211Y-449356D01*
G01X-188786D01*
G01X-190026Y-446838D01*
G01X-193150Y-445781D01*
G01X-196187Y-446627D01*
G01X-197283Y-448837D01*
G01X-196264Y-450779D01*
G01X-192583Y-452029D01*
G01X-188267Y-453451D01*
G01X-185816Y-455441D01*
G01X-185018Y-458276D01*
G01X-187248Y-462746D01*
G01X-193035Y-464428D01*
G01X-197456Y-463543D01*
G01X-200465Y-461073D01*
G01X-201551Y-457642D01*
G01X-197994D01*
G01X-196562Y-460477D01*
G01X-193035Y-461525D01*
G01X-189795Y-460708D01*
G01X-188575Y-458526D01*
G37*
G36*
G01X-154378Y-448395D02*
G01X-170411D01*
G01Y-445300D01*
G01X-154378D01*
G01Y-448395D01*
G37*
G36*
G01X-154378Y-456373D02*
G01X-170411D01*
G01Y-453297D01*
G01X-154378D01*
G01Y-456373D01*
G37*
G36*
G01X-127281Y-464043D02*
G01X-130857D01*
G01Y-440341D01*
G01X-138027Y-442974D01*
G01Y-439745D01*
G01X-127839Y-435919D01*
G01X-127281D01*
G01Y-464043D01*
G37*
G36*
G01X-115742Y-462179D02*
G01X-115194Y-460641D01*
G01X-113550Y-460026D01*
G01X-111887Y-460641D01*
G01X-111320Y-462179D01*
G01X-111887Y-463659D01*
G01X-113550Y-464255D01*
G01X-115194Y-463659D01*
G01X-115742Y-462179D01*
G37*
G36*
G01X-103502Y-450010D02*
G01X-102079Y-436054D01*
G01X-87738D01*
G01Y-439341D01*
G01X-99061D01*
G01X-99907Y-446973D01*
G01X-95235Y-445762D01*
G01X-89161Y-448290D01*
G01X-86912Y-455124D01*
G01X-89247Y-461938D01*
G01X-95774Y-464428D01*
G01X-101829Y-462371D01*
G01X-104501Y-456681D01*
G01X-101137D01*
G01X-99426Y-460304D01*
G01X-95774Y-461525D01*
G01X-91881Y-459833D01*
G01X-90468Y-455162D01*
G01X-91996Y-450654D01*
G01X-96062Y-448953D01*
G01X-99714Y-449972D01*
G01X-100656Y-450741D01*
G01X-103502Y-450010D01*
G37*
G36*
G01X-72241Y-472040D02*
G01X-68684D01*
G01Y-462025D01*
G01X-62725Y-464428D01*
G01X-56843Y-461525D01*
G01X-54670Y-453874D01*
G01Y-453547D01*
G01X-56852Y-445685D01*
G01X-62783Y-442859D01*
G01X-63840Y-443330D01*
G01Y-445877D01*
G01X-59726Y-447915D01*
G01X-58227Y-453470D01*
G01X-59736Y-459497D01*
G01X-63802Y-461525D01*
G01X-68684Y-458680D01*
G01Y-448741D01*
G01X-63840Y-445877D01*
G01Y-443330D01*
G01X-68819Y-445550D01*
G01X-68992Y-443243D01*
G01X-72241D01*
G01Y-472040D01*
G37*
G36*
G01X-33461Y-451682D02*
G01X-45207D01*
G01Y-464043D01*
G01X-48898D01*
G01Y-436054D01*
G01X-31558D01*
G01Y-439072D01*
G01X-45207D01*
G01Y-448664D01*
G01X-33461D01*
G01Y-451682D01*
G37*
G36*
G01X-212707Y-499176D02*
G01X-208775Y-496274D01*
G01X-207362Y-491718D01*
G01X-209910Y-485451D01*
G01X-217186Y-483298D01*
G01X-222741D01*
G01Y-486316D01*
G01X-217090D01*
G01X-212620Y-487722D01*
G01X-211073Y-491708D01*
G01X-212697Y-495521D01*
G01X-217070Y-496947D01*
G01X-222741D01*
G01Y-486316D01*
G01Y-483298D01*
G01X-226452D01*
G01Y-511287D01*
G01X-222741D01*
G01Y-499965D01*
G01X-216167D01*
G01X-210092Y-511287D01*
G01X-206132D01*
G01Y-511057D01*
G01X-212707Y-499176D01*
G37*
G36*
G01X-189953Y-505770D02*
G01X-191039Y-503531D01*
G01X-194826Y-502156D01*
G01X-199113Y-500772D01*
G01X-201458Y-498850D01*
G01X-202217Y-496197D01*
G01X-200055Y-491871D01*
G01X-194528Y-490103D01*
G01X-188790Y-491929D01*
G01X-186589Y-496601D01*
G01X-190164D01*
G01X-191404Y-494082D01*
G01X-194528Y-493025D01*
G01X-197565Y-493871D01*
G01X-198661Y-496081D01*
G01X-197642Y-498023D01*
G01X-193961Y-499273D01*
G01X-189645Y-500695D01*
G01X-187194Y-502685D01*
G01X-186396Y-505520D01*
G01X-188626Y-509990D01*
G01X-194413Y-511672D01*
G01X-198834Y-510788D01*
G01X-201843Y-508317D01*
G01X-202929Y-504886D01*
G01X-199372D01*
G01X-197940Y-507721D01*
G01X-194413Y-508769D01*
G01X-191173Y-507952D01*
G01X-189953Y-505770D01*
G37*
G36*
G01X-155756Y-495639D02*
G01X-171789D01*
G01Y-492544D01*
G01X-155756D01*
G01Y-495639D01*
G37*
G36*
G01X-155756Y-503617D02*
G01X-171789D01*
G01Y-500541D01*
G01X-155756D01*
G01Y-503617D01*
G37*
G36*
G01X-138713Y-497254D02*
G01X-137291Y-483298D01*
G01X-122950D01*
G01Y-486585D01*
G01X-134272D01*
G01X-135118Y-494217D01*
G01X-130447Y-493006D01*
G01X-124372Y-495534D01*
G01X-122123Y-502368D01*
G01X-124459Y-509182D01*
G01X-130985Y-511672D01*
G01X-137041Y-509615D01*
G01X-139713Y-503925D01*
G01X-136349D01*
G01X-134638Y-507548D01*
G01X-130985Y-508769D01*
G01X-127092Y-507077D01*
G01X-125680Y-502406D01*
G01X-127208Y-497898D01*
G01X-131274Y-496197D01*
G01X-134926Y-497216D01*
G01X-135868Y-497985D01*
G01X-138713Y-497254D01*
G37*
G36*
G01X-117120Y-509423D02*
G01X-116572Y-507885D01*
G01X-114928Y-507270D01*
G01X-113265Y-507885D01*
G01X-112698Y-509423D01*
G01X-113265Y-510903D01*
G01X-114928Y-511499D01*
G01X-116572Y-510903D01*
G01X-117120Y-509423D01*
G37*
G36*
G01X-102669Y-495466D02*
G01X-99824Y-488757D01*
G01X-93211Y-486297D01*
G01X-92557D01*
G01Y-483279D01*
G01X-93191D01*
G01X-103005Y-487460D01*
G01X-106302Y-499273D01*
G01Y-500637D01*
G01X-103803Y-508586D01*
G01X-97286Y-511672D01*
G01X-90971Y-509077D01*
G01X-88616Y-502156D01*
G01X-90798Y-495505D01*
G01X-96633Y-492929D01*
G01X-97228Y-493179D01*
G01Y-495889D01*
G01X-93528Y-497667D01*
G01X-92134Y-502329D01*
G01X-93509Y-506962D01*
G01X-97286Y-508731D01*
G01X-101169Y-506616D01*
G01X-102726Y-501041D01*
G01Y-499734D01*
G01X-100593Y-496985D01*
G01X-97228Y-495889D01*
G01Y-493179D01*
G01X-102669Y-495466D01*
G37*
G36*
G01X-67813Y-501656D02*
G01X-70043Y-503982D01*
G01Y-511287D01*
G01X-73600D01*
G01Y-481760D01*
G01X-70043D01*
G01Y-499619D01*
G01X-68140Y-497331D01*
G01X-61662Y-490487D01*
G01X-57336D01*
G01X-65429Y-499176D01*
G01X-56394Y-511287D01*
G01X-60566D01*
G01X-67813Y-501656D01*
G37*
G36*
G01X-41498Y-508173D02*
G01X-37364Y-504922D01*
G01X-35827Y-497687D01*
G01Y-495109D01*
G01X-37691Y-488298D01*
G01X-42805Y-485931D01*
G01X-47899Y-488336D01*
G01X-49744Y-495148D01*
G01Y-497322D01*
G01X-48235Y-504787D01*
G01X-43939Y-508173D01*
G01Y-511287D01*
G01X-53397D01*
G01Y-508269D01*
G01X-49149D01*
G01X-52340Y-503358D01*
G01X-53493Y-497293D01*
G01Y-495159D01*
G01X-52138Y-488776D01*
G01X-48341Y-484442D01*
G01X-42805Y-482913D01*
G01X-37297Y-484413D01*
G01X-33500Y-488642D01*
G01X-32078Y-494832D01*
G01Y-497331D01*
G01X-33231Y-503358D01*
G01X-36422Y-508269D01*
G01X-32193D01*
G01Y-511287D01*
G01X-41498D01*
G01Y-508173D01*
G37*
G36*
G01X-541379Y1300252D02*
G01X-533382Y1323340D01*
G01X-529345D01*
G01X-539726Y1295350D01*
G01X-542994D01*
G01X-553355Y1323340D01*
G01X-549338D01*
G01X-541379Y1300252D01*
G37*
G36*
G01X-527147Y1305923D02*
G01X-524888Y1297907D01*
G01X-518977Y1294966D01*
G01X-513152Y1297427D01*
G01Y1295639D01*
G01X-514603Y1291525D01*
G01X-518650Y1290064D01*
G01X-524244Y1292890D01*
G01X-526089Y1290756D01*
G01X-522802Y1288122D01*
G01X-518400Y1287161D01*
G01X-511970Y1289487D01*
G01X-509576Y1295850D01*
G01Y1316150D01*
G01X-512825D01*
G01X-512998Y1313844D01*
G01X-518054Y1316134D01*
G01Y1313517D01*
G01X-513152Y1310537D01*
G01Y1301041D01*
G01X-518092Y1297984D01*
G01X-522129Y1299993D01*
G01X-523571Y1305520D01*
G01X-522110Y1311498D01*
G01X-518054Y1313517D01*
G01Y1316134D01*
G01X-518938Y1316535D01*
G01X-524897Y1313661D01*
G01X-527147Y1305923D01*
G37*
G36*
G01X-504377Y1310383D02*
G01X-500802D01*
G01X-499514Y1312709D01*
G01X-496323Y1313671D01*
G01X-493035Y1312565D01*
G01X-491920Y1309595D01*
G01Y1307961D01*
G01X-494708D01*
G01Y1305443D01*
G01X-491920D01*
G01Y1301175D01*
G01X-494093Y1298926D01*
G01X-497265Y1298061D01*
G01X-500129Y1299003D01*
G01X-501244Y1301617D01*
G01X-494708Y1305443D01*
G01Y1307961D01*
G01X-495381D01*
G01X-502330Y1306164D01*
G01X-504800Y1301117D01*
G01X-502830Y1296706D01*
G01X-497784Y1294966D01*
G01X-491863Y1297542D01*
G01X-491363Y1295350D01*
G01X-487634D01*
G01Y1295658D01*
G01X-488364Y1300214D01*
G01Y1309787D01*
G01X-490479Y1314737D01*
G01X-496111Y1316535D01*
G01X-500273Y1315689D01*
G01X-503272Y1313392D01*
G01X-504377Y1310383D01*
G37*
G36*
G01X-477972Y1321187D02*
G01Y1316150D01*
G01X-474089D01*
G01Y1313401D01*
G01X-477972D01*
G01Y1300486D01*
G01X-477453Y1298610D01*
G01X-475684Y1297984D01*
G01X-473992Y1298215D01*
G01Y1295348D01*
G01X-476722Y1294966D01*
G01X-480317Y1296408D01*
G01X-481528Y1300502D01*
G01Y1313401D01*
G01X-485315D01*
G01Y1316150D01*
G01X-481528D01*
G01Y1321187D01*
G01X-477972D01*
G37*
G36*
G01X-470831Y1305174D02*
G01X-468178Y1297744D01*
G01X-461296Y1294966D01*
G01X-453453Y1298984D01*
G01X-455625Y1300675D01*
G01X-457913Y1298638D01*
G01X-461104Y1297869D01*
G01X-465478Y1299762D01*
G01X-467275Y1304732D01*
G01X-453184D01*
G01Y1306212D01*
G01X-455433Y1313863D01*
G01X-461738Y1316535D01*
G01Y1313613D01*
G01X-458201Y1312123D01*
G01X-456740Y1307923D01*
G01Y1307654D01*
G01X-467160D01*
G01X-465353Y1312046D01*
G01X-461738Y1313613D01*
G01Y1316535D01*
G01X-466343Y1315160D01*
G01X-469649Y1311354D01*
G01X-470831Y1305827D01*
G01Y1305174D01*
G37*
G36*
G01X-423054Y1310998D02*
G01X-439087D01*
G01Y1314093D01*
G01X-423054D01*
G01Y1310998D01*
G37*
G36*
G01X-423054Y1303021D02*
G01X-439087D01*
G01Y1306096D01*
G01X-423054D01*
G01Y1303021D01*
G37*
G36*
G01X-400568Y1305789D02*
G01X-409949D01*
G01Y1308692D01*
G01X-400568D01*
G01Y1305789D01*
G37*
G36*
G01X-378455Y1295350D02*
G01X-396794D01*
G01Y1297907D01*
G01X-387105Y1308672D01*
G01X-384135Y1312642D01*
G01X-383318Y1315804D01*
G01X-384645Y1319399D01*
G01X-388182Y1320803D01*
G01X-392305Y1319293D01*
G01X-393776Y1315093D01*
G01X-397332D01*
G01X-394843Y1321341D01*
G01X-388182Y1323725D01*
G01X-382011Y1321677D01*
G01X-379743Y1316227D01*
G01X-385010Y1306385D01*
G01X-392507Y1298253D01*
G01X-378455D01*
G01Y1295350D01*
G37*
G36*
G01X-373566Y1297215D02*
G01X-373019Y1298753D01*
G01X-371375Y1299368D01*
G01X-369712Y1298753D01*
G01X-369145Y1297215D01*
G01X-369712Y1295735D01*
G01X-371375Y1295139D01*
G01X-373019Y1295735D01*
G01X-373566Y1297215D01*
G37*
G36*
G01X-362480Y1316035D02*
G01X-361403Y1312325D01*
G01X-358462Y1309768D01*
G01X-361893Y1307000D01*
G01X-363133Y1302905D01*
G01X-360702Y1297129D01*
G01X-354233Y1294966D01*
G01X-347783Y1297119D01*
G01X-345332Y1302905D01*
G01X-346611Y1307000D01*
G01X-350080Y1309749D01*
G01X-347091Y1312306D01*
G01X-345986Y1316035D01*
G01X-348264Y1321648D01*
G01X-354233Y1323725D01*
G01Y1320803D01*
G01X-350869Y1319457D01*
G01X-349542Y1315977D01*
G01X-350821Y1312527D01*
G01X-354233Y1311210D01*
G01X-354271Y1311225D01*
G01Y1308288D01*
G01X-350378Y1306808D01*
G01X-348889Y1302982D01*
G01X-350311Y1299243D01*
G01X-354233Y1297869D01*
G01X-358164Y1299234D01*
G01X-359577Y1302982D01*
G01X-358126Y1306827D01*
G01X-354271Y1308288D01*
G01Y1311225D01*
G01X-357645Y1312527D01*
G01X-358923Y1315977D01*
G01X-357626Y1319505D01*
G01X-354233Y1320803D01*
G01Y1323725D01*
G01X-360211Y1321648D01*
G01X-362480Y1316035D01*
G37*
G36*
G01X-337852Y1309384D02*
G01X-336429Y1323340D01*
G01X-322089D01*
G01Y1320053D01*
G01X-333411D01*
G01X-334257Y1312421D01*
G01X-329586Y1313632D01*
G01X-323511Y1311104D01*
G01X-321262Y1304270D01*
G01X-323598Y1297455D01*
G01X-330124Y1294966D01*
G01X-336179Y1297023D01*
G01X-338852Y1302713D01*
G01X-335487D01*
G01X-333777Y1299089D01*
G01X-330124Y1297869D01*
G01X-326231Y1299560D01*
G01X-324818Y1304232D01*
G01X-326347Y1308740D01*
G01X-330412Y1310441D01*
G01X-334065Y1309422D01*
G01X-335007Y1308653D01*
G01X-337852Y1309384D01*
G37*
G36*
G01X-296079Y1300252D02*
G01X-288082Y1323340D01*
G01X-284045D01*
G01X-294426Y1295350D01*
G01X-297694D01*
G01X-308055Y1323340D01*
G01X-304037D01*
G01X-296079Y1300252D01*
G37*
G36*
G01X-541379Y1253008D02*
G01X-533382Y1276096D01*
G01X-529345D01*
G01X-539726Y1248106D01*
G01X-542994D01*
G01X-553355Y1276096D01*
G01X-549338D01*
G01X-541379Y1253008D01*
G37*
G36*
G01X-527166Y1258410D02*
G01X-524888Y1250682D01*
G01X-518996Y1247722D01*
G01X-513056Y1250336D01*
G01X-512883Y1248106D01*
G01X-509615D01*
G01Y1277634D01*
G01X-513171D01*
G01Y1266792D01*
G01X-518073Y1268909D01*
G01Y1266273D01*
G01X-513171Y1263331D01*
G01Y1253777D01*
G01X-518112Y1250740D01*
G01X-522148Y1252739D01*
G01X-523609Y1258276D01*
G01X-522148Y1264254D01*
G01X-518073Y1266273D01*
G01Y1268909D01*
G01X-518957Y1269291D01*
G01X-524897Y1266378D01*
G01X-527166Y1258679D01*
G01Y1258410D01*
G37*
G36*
G01X-494052Y1265715D02*
G01X-495801Y1265850D01*
G01X-500550Y1262870D01*
G01Y1248106D01*
G01X-504106D01*
G01Y1268906D01*
G01X-500646D01*
G01X-500588Y1266503D01*
G01X-495628Y1269291D01*
G01X-494052Y1269022D01*
G01Y1265715D01*
G37*
G36*
G01X-491730Y1263139D02*
G01X-488154D01*
G01X-486866Y1265465D01*
G01X-483675Y1266426D01*
G01X-480388Y1265321D01*
G01X-479273Y1262351D01*
G01Y1260717D01*
G01X-482060D01*
G01Y1258199D01*
G01X-479273D01*
G01Y1253931D01*
G01X-481445Y1251682D01*
G01X-484617Y1250817D01*
G01X-487481Y1251759D01*
G01X-488596Y1254373D01*
G01X-482060Y1258199D01*
G01Y1260717D01*
G01X-482733D01*
G01X-489682Y1258920D01*
G01X-492153Y1253873D01*
G01X-490182Y1249462D01*
G01X-485136Y1247722D01*
G01X-479215Y1250298D01*
G01X-478715Y1248106D01*
G01X-474986D01*
G01Y1248414D01*
G01X-475716Y1252970D01*
G01Y1262543D01*
G01X-477831Y1267493D01*
G01X-483464Y1269291D01*
G01X-487625Y1268445D01*
G01X-490624Y1266148D01*
G01X-491730Y1263139D01*
G37*
G36*
G01X-466285Y1248106D02*
G01X-469842D01*
G01Y1268906D01*
G01X-466285D01*
G01Y1248106D01*
G37*
G36*
G01X-470130Y1274424D02*
G01X-469601Y1275885D01*
G01X-468035Y1276480D01*
G01X-466458Y1275885D01*
G01X-465920Y1274424D01*
G01X-466458Y1272982D01*
G01X-468035Y1272405D01*
G01X-469601Y1272982D01*
G01X-470130Y1274424D01*
G37*
G36*
G01X-457238Y1268906D02*
G01X-457123Y1266292D01*
G01X-450894Y1269291D01*
G01X-444243Y1261851D01*
G01Y1248106D01*
G01X-447799D01*
G01Y1261870D01*
G01X-448827Y1265196D01*
G01X-451971Y1266273D01*
G01X-455008Y1265350D01*
G01X-457046Y1262928D01*
G01Y1248106D01*
G01X-460602D01*
G01Y1268906D01*
G01X-457238D01*
G37*
G36*
G01X-412867Y1263754D02*
G01X-428900D01*
G01Y1266849D01*
G01X-412867D01*
G01Y1263754D01*
G37*
G36*
G01X-412867Y1255777D02*
G01X-428900D01*
G01Y1258852D01*
G01X-412867D01*
G01Y1255777D01*
G37*
G36*
G01X-379119Y1248106D02*
G01X-397458D01*
G01Y1250663D01*
G01X-387770Y1261428D01*
G01X-384800Y1265398D01*
G01X-383983Y1268560D01*
G01X-385309Y1272155D01*
G01X-388846Y1273558D01*
G01X-392970Y1272049D01*
G01X-394440Y1267849D01*
G01X-397997D01*
G01X-395507Y1274097D01*
G01X-388846Y1276480D01*
G01X-382675Y1274433D01*
G01X-380407Y1268983D01*
G01X-385674Y1259141D01*
G01X-393172Y1251009D01*
G01X-379119D01*
G01Y1248106D01*
G37*
G36*
G01X-373503Y1268791D02*
G01X-372427Y1265081D01*
G01X-369486Y1262524D01*
G01X-372917Y1259756D01*
G01X-374157Y1255661D01*
G01X-371725Y1249884D01*
G01X-365256Y1247722D01*
G01X-358807Y1249875D01*
G01X-356356Y1255661D01*
G01X-357634Y1259756D01*
G01X-361104Y1262505D01*
G01X-358115Y1265062D01*
G01X-357009Y1268791D01*
G01X-359287Y1274404D01*
G01X-365256Y1276480D01*
G01Y1273558D01*
G01X-361892Y1272213D01*
G01X-360566Y1268733D01*
G01X-361844Y1265283D01*
G01X-365256Y1263966D01*
G01X-365295Y1263981D01*
G01Y1261044D01*
G01X-361402Y1259564D01*
G01X-359912Y1255738D01*
G01X-361335Y1251999D01*
G01X-365256Y1250625D01*
G01X-369188Y1251989D01*
G01X-370601Y1255738D01*
G01X-369149Y1259583D01*
G01X-365295Y1261044D01*
G01Y1263981D01*
G01X-368669Y1265283D01*
G01X-369947Y1268733D01*
G01X-368649Y1272261D01*
G01X-365256Y1273558D01*
G01Y1276480D01*
G01X-371235Y1274404D01*
G01X-373503Y1268791D01*
G37*
G36*
G01X-340321Y1253008D02*
G01X-332324Y1276096D01*
G01X-328287D01*
G01X-338668Y1248106D01*
G01X-341936D01*
G01X-352297Y1276096D01*
G01X-348280D01*
G01X-340321Y1253008D01*
G37*
G36*
G01X-1175843Y1437854D02*
G01X-1155947D01*
G01Y1433327D01*
G01X-1181408D01*
G01Y1475311D01*
G01X-1175843D01*
G01Y1437854D01*
G37*
G36*
G01X-1150845Y1448840D02*
G01X-1146909Y1437162D01*
G01X-1136629Y1432750D01*
G01X-1129175Y1434769D01*
G01X-1124187Y1440406D01*
G01X-1122442Y1448581D01*
G01Y1448956D01*
G01X-1126378Y1460692D01*
G01X-1136687Y1465104D01*
G01Y1460721D01*
G01X-1130213Y1457534D01*
G01X-1127777Y1449215D01*
G01X-1130170Y1440291D01*
G01X-1136629Y1437104D01*
G01X-1143074Y1440247D01*
G01X-1145482Y1448581D01*
G01X-1143059Y1457577D01*
G01X-1136687Y1460721D01*
G01Y1465104D01*
G01X-1144025Y1463114D01*
G01X-1149043Y1457462D01*
G01X-1150845Y1449215D01*
G01Y1448840D01*
G37*
G36*
G01X-1100690Y1459740D02*
G01X-1103314Y1459942D01*
G01X-1110436Y1455472D01*
G01Y1433327D01*
G01X-1115771D01*
G01Y1464527D01*
G01X-1110580D01*
G01X-1110494Y1460922D01*
G01X-1103054Y1465104D01*
G01X-1100690Y1464700D01*
G01Y1459740D01*
G37*
G36*
G01X-1097675Y1448062D02*
G01X-1093695Y1436917D01*
G01X-1083372Y1432750D01*
G01X-1071607Y1438777D01*
G01X-1074866Y1441314D01*
G01X-1078297Y1438258D01*
G01X-1083084Y1437104D01*
G01X-1089644Y1439945D01*
G01X-1092340Y1447398D01*
G01X-1071204D01*
G01Y1449619D01*
G01X-1074577Y1461095D01*
G01X-1084035Y1465104D01*
G01Y1460721D01*
G01X-1078730Y1458486D01*
G01X-1076538Y1452185D01*
G01Y1451781D01*
G01X-1092167D01*
G01X-1089456Y1458370D01*
G01X-1084035Y1460721D01*
G01Y1465104D01*
G01X-1090942Y1463042D01*
G01X-1095901Y1457332D01*
G01X-1097675Y1449042D01*
G01Y1448062D01*
G37*
G36*
G01X-1059974Y1464527D02*
G01X-1059801Y1460605D01*
G01X-1050458Y1465104D01*
G01X-1040481Y1453944D01*
G01Y1433327D01*
G01X-1045816D01*
G01Y1453973D01*
G01X-1047358Y1458962D01*
G01X-1052073Y1460576D01*
G01X-1056629Y1459192D01*
G01X-1059686Y1455559D01*
G01Y1433327D01*
G01X-1065020D01*
G01Y1464527D01*
G01X-1059974D01*
G37*
G36*
G01X-1027412Y1437681D02*
G01X-1009159D01*
G01Y1433327D01*
G01X-1033929D01*
G01Y1437248D01*
G01X-1016714Y1460115D01*
G01X-1033669D01*
G01Y1464527D01*
G01X-1010024D01*
G01Y1460749D01*
G01X-1027412Y1437681D01*
G37*
G36*
G01X-1005016Y1448840D02*
G01X-1001080Y1437162D01*
G01X-990800Y1432750D01*
G01X-983346Y1434769D01*
G01X-978357Y1440406D01*
G01X-976613Y1448581D01*
G01Y1448956D01*
G01X-980549Y1460692D01*
G01X-990857Y1465104D01*
G01Y1460721D01*
G01X-984384Y1457534D01*
G01X-981947Y1449215D01*
G01X-984341Y1440291D01*
G01X-990800Y1437104D01*
G01X-997245Y1440247D01*
G01X-999652Y1448581D01*
G01X-997230Y1457577D01*
G01X-990857Y1460721D01*
G01Y1465104D01*
G01X-998196Y1463114D01*
G01X-1003214Y1457462D01*
G01X-1005016Y1449215D01*
G01Y1448840D01*
G37*
G36*
G01X-946304Y1475311D02*
G01X-932579Y1441055D01*
G01X-918853Y1475311D01*
G01X-911673D01*
G01Y1433327D01*
G01X-917209D01*
G01Y1449677D01*
G01X-916690Y1467324D01*
G01X-930474Y1433327D01*
G01X-934712D01*
G01X-948467Y1467237D01*
G01X-947919Y1449677D01*
G01Y1433327D01*
G01X-953456D01*
G01Y1475311D01*
G01X-946304D01*
G37*
G36*
G01X-901955Y1455876D02*
G01X-896592D01*
G01X-894660Y1459365D01*
G01X-889873Y1460807D01*
G01X-884942Y1459149D01*
G01X-883270Y1454694D01*
G01Y1452243D01*
G01X-887451D01*
G01Y1448465D01*
G01X-883270D01*
G01Y1442064D01*
G01X-886528Y1438690D01*
G01X-891286Y1437393D01*
G01X-895583Y1438806D01*
G01X-897255Y1442727D01*
G01X-887451Y1448465D01*
G01Y1452243D01*
G01X-888460D01*
G01X-898884Y1449547D01*
G01X-902590Y1441977D01*
G01X-899634Y1435360D01*
G01X-892065Y1432750D01*
G01X-883183Y1436614D01*
G01X-882434Y1433327D01*
G01X-876840D01*
G01Y1433788D01*
G01X-877935Y1440622D01*
G01Y1454982D01*
G01X-881107Y1462407D01*
G01X-889556Y1465104D01*
G01X-895799Y1463835D01*
G01X-900297Y1460389D01*
G01X-901955Y1455876D01*
G37*
G36*
G01X-864567Y1437681D02*
G01X-846314D01*
G01Y1433327D01*
G01X-871084D01*
G01Y1437248D01*
G01X-853869Y1460115D01*
G01X-870825D01*
G01Y1464527D01*
G01X-847179D01*
G01Y1460749D01*
G01X-864567Y1437681D01*
G37*
G36*
G01X-835298Y1437681D02*
G01X-817045D01*
G01Y1433327D01*
G01X-841815D01*
G01Y1437248D01*
G01X-824600Y1460115D01*
G01X-841555D01*
G01Y1464527D01*
G01X-817910D01*
G01Y1460749D01*
G01X-835298Y1437681D01*
G37*
G36*
G01X-812902Y1448840D02*
G01X-808966Y1437162D01*
G01X-798686Y1432750D01*
G01X-791232Y1434769D01*
G01X-786244Y1440406D01*
G01X-784499Y1448581D01*
G01Y1448956D01*
G01X-788435Y1460692D01*
G01X-798744Y1465104D01*
G01Y1460721D01*
G01X-792270Y1457534D01*
G01X-789834Y1449215D01*
G01X-792227Y1440291D01*
G01X-798686Y1437104D01*
G01X-805131Y1440247D01*
G01X-807539Y1448581D01*
G01X-805116Y1457577D01*
G01X-798744Y1460721D01*
G01Y1465104D01*
G01X-806082Y1463114D01*
G01X-811100Y1457462D01*
G01X-812902Y1449215D01*
G01Y1448840D01*
G37*
G36*
G01X-772781Y1464527D02*
G01X-772608Y1460605D01*
G01X-763266Y1465104D01*
G01X-753289Y1453944D01*
G01Y1433327D01*
G01X-758623D01*
G01Y1453973D01*
G01X-760166Y1458962D01*
G01X-764881Y1460576D01*
G01X-769437Y1459192D01*
G01X-772493Y1455559D01*
G01Y1433327D01*
G01X-777828D01*
G01Y1464527D01*
G01X-772781D01*
G37*
G36*
G01X-1185474Y1362461D02*
G01X-1179765D01*
G01X-1175814Y1373447D01*
G01X-1158225D01*
G01X-1154216Y1362461D01*
G01X-1148536D01*
G01X-1164597Y1404445D01*
G01X-1167019D01*
G01Y1397611D01*
G01X-1159868Y1377974D01*
G01X-1174142D01*
G01X-1167019Y1397611D01*
G01Y1404445D01*
G01X-1169442D01*
G01X-1185474Y1362461D01*
G37*
G36*
G01X-1143975Y1377916D02*
G01X-1140558Y1366325D01*
G01X-1131720Y1361884D01*
G01X-1122810Y1365806D01*
G01X-1122550Y1362461D01*
G01X-1117648D01*
G01Y1406752D01*
G01X-1122983D01*
G01Y1390489D01*
G01X-1130336Y1393664D01*
G01Y1389710D01*
G01X-1122983Y1385298D01*
G01Y1370967D01*
G01X-1130394Y1366411D01*
G01X-1136449Y1369410D01*
G01X-1138641Y1377715D01*
G01X-1136449Y1386682D01*
G01X-1130336Y1389710D01*
G01Y1393664D01*
G01X-1131662Y1394237D01*
G01X-1140573Y1389869D01*
G01X-1143975Y1378320D01*
G01Y1377916D01*
G37*
G36*
G01X-1094304Y1388874D02*
G01X-1096928Y1389076D01*
G01X-1104051Y1384606D01*
G01Y1362461D01*
G01X-1109385D01*
G01Y1393661D01*
G01X-1104195D01*
G01X-1104108Y1390056D01*
G01X-1096669Y1394237D01*
G01X-1094304Y1393834D01*
G01Y1388874D01*
G37*
G36*
G01X-1083621Y1362461D02*
G01X-1088956D01*
G01Y1393661D01*
G01X-1083621D01*
G01Y1362461D01*
G37*
G36*
G01X-1089388Y1401936D02*
G01X-1088595Y1404128D01*
G01X-1086245Y1405022D01*
G01X-1083881Y1404128D01*
G01X-1083073Y1401936D01*
G01X-1083881Y1399774D01*
G01X-1086245Y1398909D01*
G01X-1088595Y1399774D01*
G01X-1089388Y1401936D01*
G37*
G36*
G01X-1075356Y1385010D02*
G01X-1069993D01*
G01X-1068061Y1388499D01*
G01X-1063274Y1389941D01*
G01X-1058343Y1388283D01*
G01X-1056671Y1383828D01*
G01Y1381377D01*
G01X-1060852D01*
G01Y1377599D01*
G01X-1056671D01*
G01Y1371198D01*
G01X-1059929Y1367824D01*
G01X-1064687Y1366526D01*
G01X-1068983Y1367939D01*
G01X-1070656Y1371861D01*
G01X-1060852Y1377599D01*
G01Y1381377D01*
G01X-1061861D01*
G01X-1072285Y1378681D01*
G01X-1075990Y1371111D01*
G01X-1073035Y1364494D01*
G01X-1065465Y1361884D01*
G01X-1056584Y1365748D01*
G01X-1055834Y1362461D01*
G01X-1050240D01*
G01Y1362922D01*
G01X-1051336Y1369756D01*
G01Y1384116D01*
G01X-1054508Y1391541D01*
G01X-1062957Y1394237D01*
G01X-1069200Y1392969D01*
G01X-1073698Y1389523D01*
G01X-1075356Y1385010D01*
G37*
G36*
G01X-1037939Y1393661D02*
G01X-1037766Y1389739D01*
G01X-1028423Y1394237D01*
G01X-1018446Y1383078D01*
G01Y1362461D01*
G01X-1023781D01*
G01Y1383107D01*
G01X-1025323Y1388095D01*
G01X-1030038Y1389710D01*
G01X-1034594Y1388326D01*
G01X-1037651Y1384693D01*
G01Y1362461D01*
G01X-1042985D01*
G01Y1393661D01*
G01X-1037939D01*
G37*
G36*
G01X-961641Y1362461D02*
G01X-967207D01*
G01X-988343Y1394814D01*
G01Y1362461D01*
G01X-993908D01*
G01Y1404445D01*
G01X-988343D01*
G01X-967149Y1371948D01*
G01Y1404445D01*
G01X-961641D01*
G01Y1362461D01*
G37*
G36*
G01X-945801Y1362461D02*
G01X-951136D01*
G01Y1393661D01*
G01X-945801D01*
G01Y1362461D01*
G37*
G36*
G01X-951569Y1401936D02*
G01X-950776Y1404128D01*
G01X-948425Y1405022D01*
G01X-946061Y1404128D01*
G01X-945254Y1401936D01*
G01X-946061Y1399774D01*
G01X-948425Y1398909D01*
G01X-950776Y1399774D01*
G01X-951569Y1401936D01*
G37*
G36*
G01X-937536Y1385010D02*
G01X-932173D01*
G01X-930241Y1388499D01*
G01X-925454Y1389941D01*
G01X-920523Y1388283D01*
G01X-918851Y1383828D01*
G01Y1381377D01*
G01X-923032D01*
G01Y1377599D01*
G01X-918851D01*
G01Y1371198D01*
G01X-922109Y1367824D01*
G01X-926867Y1366526D01*
G01X-931163Y1367939D01*
G01X-932836Y1371861D01*
G01X-923032Y1377599D01*
G01Y1381377D01*
G01X-924041D01*
G01X-934465Y1378681D01*
G01X-938170Y1371111D01*
G01X-935215Y1364494D01*
G01X-927645Y1361884D01*
G01X-918764Y1365748D01*
G01X-918014Y1362461D01*
G01X-912420D01*
G01Y1362922D01*
G01X-913516Y1369756D01*
G01Y1384116D01*
G01X-916688Y1391541D01*
G01X-925137Y1394237D01*
G01X-931380Y1392969D01*
G01X-935878Y1389523D01*
G01X-937536Y1385010D01*
G37*
G36*
G01X-900148Y1366815D02*
G01X-881895D01*
G01Y1362461D01*
G01X-906665D01*
G01Y1366382D01*
G01X-889450Y1389249D01*
G01X-906405D01*
G01Y1393661D01*
G01X-882760D01*
G01Y1389883D01*
G01X-900148Y1366815D01*
G37*
G36*
G01X-870100Y1362461D02*
G01X-875435D01*
G01Y1393661D01*
G01X-870100D01*
G01Y1362461D01*
G37*
G36*
G01X-875867Y1401936D02*
G01X-875074Y1404128D01*
G01X-872724Y1405022D01*
G01X-870360Y1404128D01*
G01X-869552Y1401936D01*
G01X-870360Y1399774D01*
G01X-872724Y1398909D01*
G01X-875074Y1399774D01*
G01X-875867Y1401936D01*
G37*
M02*

